<?xml version="1.0" standalone="no"?>
 <!DOCTYPE svg PUBLIC "-//W3C//DTD SVG 1.1//EN" 
 "http://www.w3.org/Graphics/SVG/1.1/DTD/svg11.dtd"> 
<svg
  xmlns:svg="http://www.w3.org/2000/svg"
  xmlns="http://www.w3.org/2000/svg"
  xmlns:xlink="http://www.w3.org/1999/xlink"
  version="1.1"
  width="9.103360cm" height="5.504180cm" viewBox="0 0 35840 21670">
<title>SVG Picture created as quali5.kicad_pcb-top-plate-brd.svg date 2021/05/28 21:31:21 </title>
  <desc>Picture generated by PCBNEW </desc>
<g style="fill:#000000; fill-opacity:1;stroke:#000000; stroke-opacity:1;
stroke-linecap:round; stroke-linejoin:round;"
 transform="translate(0 0) scale(1 1)">
</g>
<g style="fill:#000000; fill-opacity:0.0; 
stroke:#000000; stroke-width:-0.000393701; stroke-opacity:1; 
stroke-linecap:round; stroke-linejoin:round;">
</g>
<g style="fill:#000000; fill-opacity:0.0; 
stroke:#000000; stroke-width:19.685; stroke-opacity:1; 
stroke-linecap:round; stroke-linejoin:round;">
<path d="M9671 9223
L7628 4167
" />
<path d="M4615 11265
L9671 9223
" />
<path d="M2572 6210
L4615 11265
" />
<path d="M7628 4167
L2572 6210
" />
<path d="M32295 19593
L32959 14181
" />
<path d="M32959 14181
L27547 13516
" />
<path d="M27547 13516
L26882 18928
" />
<path d="M26882 18928
L32295 19593
" />
<path d="M32380 9122
L33374 3761
" />
<path d="M33374 3761
L28012 2767
" />
<path d="M28012 2767
L27019 8128
" />
<path d="M27019 8128
L32380 9122
" />
<path d="M24635 6702
L24635 1250
" />
<path d="M19183 6702
L24635 6702
" />
<path d="M19183 1250
L19183 6702
" />
<path d="M24635 1250
L19183 1250
" />
<path d="M11683 1250
L11683 6702
" />
<path d="M17135 1250
L11683 1250
" />
<path d="M17135 6702
L17135 1250
" />
<path d="M11683 6702
L17135 6702
" />
<path d="M15127 16545
L9 16545
" />
<path d="M15127 16702
L15127 16545
" />
<path d="M15127 21663
L15127 16702
" />
<circle cx="34655.5" cy="20482.3" r="433.071" /> 
<circle cx="16348.4" cy="19104.3" r="433.071" /> 
<circle cx="1190.95" cy="10836.6" r="433.071" /> 
<circle cx="1190.95" cy="1190.95" r="433.071" /> 
<circle cx="34655.5" cy="1190.95" r="433.071" /> 
<path d="M15127 21663
L34753 21663
" />
<path d="M35836 1092
L35836 20580
" />
<path d="M1092 9
L34753 9
" />
<path d="M14 1190
L9 16545
" />
<path d="M1092.52 9.84291 A1082.68 1082.68 0.0 0 0 14.2892 1190.54" />
<path d="M34753.9 21663.4 A1082.68 1082.68 0.0 0 0 35836.6 20580.7" />
<path d="M35836.6 1092.52 A1082.68 1082.68 0.0 0 0 34753.9 9.84291" />
<g >
</g>
<g >
</g>
<g >
</g>
<g >
</g>
<g >
</g>
<g >
</g>
<g >
</g>
<g >
</g>
<g >
</g>
<g >
</g>
<g >
</g>
<g >
</g>
<g >
</g>
<g >
</g>
<g >
</g>
<g >
</g>
<g >
</g>
<g >
</g>
<g >
</g>
</g> 
</svg>
