<?xml version="1.0" standalone="no"?>
 <!DOCTYPE svg PUBLIC "-//W3C//DTD SVG 1.1//EN" 
 "http://www.w3.org/Graphics/SVG/1.1/DTD/svg11.dtd"> 
<svg
  xmlns:svg="http://www.w3.org/2000/svg"
  xmlns="http://www.w3.org/2000/svg"
  xmlns:xlink="http://www.w3.org/1999/xlink"
  version="1.1"
  width="9.103360cm" height="5.504180cm" viewBox="0 0 35840 21670">
<title>SVG Picture created as quali5.kicad_pcb-bottom-plate-brd.svg date 2021/05/28 21:30:53 </title>
  <desc>Picture generated by PCBNEW </desc>
<g style="fill:#000000; fill-opacity:1;stroke:#000000; stroke-opacity:1;
stroke-linecap:round; stroke-linejoin:round;"
 transform="translate(0 0) scale(1 1)">
</g>
<g style="fill:#000000; fill-opacity:0.0; 
stroke:#000000; stroke-width:-0.000393701; stroke-opacity:1; 
stroke-linecap:round; stroke-linejoin:round;">
</g>
<g style="fill:#000000; fill-opacity:0.0; 
stroke:#000000; stroke-width:19.685; stroke-opacity:1; 
stroke-linecap:round; stroke-linejoin:round;">
<circle cx="34655.5" cy="20482.3" r="433.071" /> 
<circle cx="16348.4" cy="19104.3" r="433.071" /> 
<circle cx="1190.95" cy="10836.6" r="433.071" /> 
<circle cx="1190.95" cy="1190.95" r="433.071" /> 
<circle cx="34655.5" cy="1190.95" r="433.071" /> 
<path d="M1092 21663
L34753 21663
" />
<path d="M35836 1092
L35836 20580
" />
<path d="M1092 9
L34753 9
" />
<path d="M14 1190
L9 20580
" />
<path d="M1092.52 9.84291 A1082.68 1082.68 0.0 0 0 14.2892 1190.54" />
<path d="M9.84291 20580.7 A1082.68 1082.68 0.0 0 0 1092.52 21663.4" />
<path d="M34753.9 21663.4 A1082.68 1082.68 0.0 0 0 35836.6 20580.7" />
<path d="M35836.6 1092.52 A1082.68 1082.68 0.0 0 0 34753.9 9.84291" />
<g >
</g>
<g >
</g>
<g >
</g>
<g >
</g>
<g >
</g>
<g >
</g>
<g >
</g>
<g >
</g>
<g >
</g>
<g >
</g>
<g >
</g>
<g >
</g>
<g >
</g>
<g >
</g>
<g >
</g>
<g >
</g>
<g >
</g>
<g >
</g>
<g >
</g>
</g> 
</svg>
