<?xml version="1.0" standalone="no"?>
 <!DOCTYPE svg PUBLIC "-//W3C//DTD SVG 1.1//EN" 
 "http://www.w3.org/Graphics/SVG/1.1/DTD/svg11.dtd"> 
<svg
  xmlns:svg="http://www.w3.org/2000/svg"
  xmlns="http://www.w3.org/2000/svg"
  xmlns:xlink="http://www.w3.org/1999/xlink"
  version="1.1"
  width="29.700220cm" height="21.000720cm" viewBox="0 0 116930 82680">
<title>SVG Picture created as quali5-plate-top-Edge_Cuts.svg date 2021/06/22 23:25:36 </title>
  <desc>Picture generated by PCBNEW </desc>
<g style="fill:#000000; fill-opacity:1;stroke:#000000; stroke-opacity:1;
stroke-linecap:round; stroke-linejoin:round;"
 transform="translate(0 0) scale(1 1)">
</g>
<g style="fill:#000000; fill-opacity:0.0; 
stroke:#000000; stroke-width:-0.000393701; stroke-opacity:1; 
stroke-linecap:round; stroke-linejoin:round;">
</g>
<g style="fill:#000000; fill-opacity:0.0; 
stroke:#000000; stroke-width:19.685; stroke-opacity:1; 
stroke-linecap:round; stroke-linejoin:round;">
<path d="M45397 50035
L30279 50035
" />
<path d="M45397 50114
L45397 50035
" />
<path d="M45397 50114
L45397 55153
" />
<path d="M32839 39684
L34889 44758
" />
<path d="M39963 42708
L37913 37634
" />
<path d="M34889 44758
L39963 42708
" />
<path d="M37913 37634
L32839 39684
" />
<path d="M57798 47005
L57131 52437
" />
<path d="M62563 53104
L63230 47672
" />
<path d="M57131 52437
L62563 53104
" />
<path d="M63230 47672
L57798 47005
" />
<path d="M58264 36236
L57267 41616
" />
<path d="M62648 42614
L63645 37233
" />
<path d="M57267 41616
L62648 42614
" />
<path d="M63645 37233
L58264 36236
" />
<path d="M54925 40192
L54925 34720
" />
<path d="M49452 34720
L49452 40192
" />
<path d="M54925 34720
L49452 34720
" />
<path d="M49452 40192
L54925 40192
" />
<path d="M47405 34720
L41933 34720
" />
<path d="M47405 40192
L47405 34720
" />
<path d="M41933 40192
L47405 40192
" />
<path d="M41933 34720
L41933 40192
" />
<circle cx="31421.3" cy="44326.8" r="393.701" /> 
<circle cx="48232.3" cy="54011.8" r="393.701" /> 
<circle cx="64964.6" cy="54011.8" r="393.701" /> 
<circle cx="64964.6" cy="34641.7" r="393.701" /> 
<circle cx="31421.3" cy="34641.7" r="393.701" /> 
<path d="M45397 55153
L65023 55153
" />
<path d="M66106 34582
L66106 54070
" />
<path d="M31362 33500
L65023 33500
" />
<path d="M30283 34680
L30279 50035
" />
<path d="M31362.2 33500 A1082.68 1082.68 0.0 0 0 30284 34680.7" />
<path d="M65023.6 55153.5 A1082.68 1082.68 0.0 0 0 66106.3 54070.9" />
<path d="M66106.3 34582.7 A1082.68 1082.68 0.0 0 0 65023.6 33500" />
<g >
</g>
<g >
</g>
<g >
</g>
<g >
</g>
<g >
</g>
<g >
</g>
<g >
</g>
<g >
</g>
<g >
</g>
<g >
</g>
<g >
</g>
<g >
</g>
<g >
</g>
<g >
</g>
<g >
</g>
<g >
</g>
<g >
</g>
<g >
</g>
<g >
</g>
</g> 
</svg>
