%TF.GenerationSoftware,KiCad,Pcbnew,(5.1.9-0-10_14)*%
%TF.CreationDate,2021-06-22T22:50:01+09:00*%
%TF.ProjectId,quali5,7175616c-6935-42e6-9b69-6361645f7063,rev?*%
%TF.SameCoordinates,Original*%
%TF.FileFunction,Legend,Bot*%
%TF.FilePolarity,Positive*%
%FSLAX46Y46*%
G04 Gerber Fmt 4.6, Leading zero omitted, Abs format (unit mm)*
G04 Created by KiCad (PCBNEW (5.1.9-0-10_14)) date 2021-06-22 22:50:01*
%MOMM*%
%LPD*%
G01*
G04 APERTURE LIST*
%ADD10C,0.120000*%
%ADD11C,0.150000*%
%ADD12C,0.125000*%
G04 APERTURE END LIST*
D10*
%TO.C,SW2*%
X94541226Y-97482695D02*
X96226956Y-101655022D01*
X92760347Y-100682846D02*
X94541226Y-97482695D01*
X91130809Y-96649596D02*
X92760347Y-100682846D01*
X90238220Y-101647925D02*
X91130809Y-96649596D01*
X88571221Y-97521957D02*
X90238220Y-101647925D01*
D11*
X88153522Y-97555901D02*
X90564200Y-96581924D01*
X89895442Y-101867306D02*
X92282941Y-100902694D01*
X95378676Y-102024713D02*
X97742995Y-101069466D01*
X94169886Y-97497909D02*
X96001074Y-96758061D01*
X88593652Y-101314729D02*
X87600944Y-98857692D01*
X88153522Y-97555901D02*
X87587130Y-98890237D01*
X89895442Y-101867306D02*
X88561107Y-101300915D01*
X95378676Y-102024713D02*
X93812545Y-101551973D01*
X97009028Y-96917052D02*
X98357612Y-100254914D01*
X96795029Y-96787806D02*
X98293456Y-100496541D01*
X96618491Y-96751278D02*
X98191839Y-100645451D01*
X96441953Y-96714751D02*
X98090222Y-100794360D01*
X96284145Y-96724583D02*
X97969875Y-100896910D01*
X96126337Y-96734415D02*
X97830797Y-100953101D01*
X95987260Y-96790606D02*
X97710450Y-101055651D01*
X95848182Y-96846797D02*
X97571372Y-101111842D01*
X95709104Y-96902988D02*
X97432295Y-101168033D01*
X95570027Y-96959179D02*
X97293217Y-101224224D01*
X95430949Y-97015370D02*
X97154140Y-101280415D01*
X95291872Y-97071561D02*
X97015062Y-101336606D01*
X95152794Y-97127752D02*
X96875984Y-101392797D01*
X95013716Y-97183943D02*
X96736907Y-101448988D01*
X94874639Y-97240134D02*
X96597829Y-101505179D01*
X94735561Y-97296325D02*
X96458752Y-101561370D01*
X94596484Y-97352516D02*
X96319674Y-101617561D01*
X94457406Y-97408707D02*
X96180597Y-101673752D01*
X94318329Y-97464898D02*
X96041519Y-101729943D01*
X94179251Y-97521089D02*
X95902441Y-101786134D01*
X94040173Y-97577280D02*
X95744633Y-101795966D01*
X93882366Y-97587111D02*
X95624286Y-101898516D01*
X93743288Y-97643302D02*
X95485209Y-101954707D01*
X93604210Y-97699493D02*
X95327401Y-101964539D01*
X93446402Y-97709325D02*
X95150862Y-101928012D01*
X93269864Y-97672798D02*
X94974324Y-101891484D01*
X93112056Y-97682629D02*
X94779056Y-101808598D01*
X92935518Y-97646102D02*
X94602517Y-101772070D01*
X92758980Y-97609575D02*
X94407249Y-101689184D01*
X92582442Y-97573047D02*
X94230711Y-101652656D01*
X92387173Y-97490161D02*
X94054172Y-101616129D01*
X92191904Y-97407274D02*
X93858904Y-101533242D01*
X92024265Y-97259298D02*
X93578882Y-101107111D01*
X91875355Y-97157681D02*
X93429973Y-101005494D01*
X91707716Y-97009705D02*
X93262333Y-100857518D01*
X91558806Y-96908088D02*
X93132154Y-100802260D01*
X91372436Y-96713753D02*
X93020705Y-100793362D01*
X91223527Y-96612136D02*
X92909257Y-100784463D01*
X91046989Y-96575608D02*
X92751449Y-100794295D01*
X90870450Y-96539081D02*
X92574910Y-100757768D01*
X90712643Y-96548913D02*
X92435833Y-100813959D01*
X90573565Y-96605104D02*
X92296755Y-100870150D01*
X90434487Y-96661295D02*
X92138947Y-100879981D01*
X90295410Y-96717486D02*
X92018600Y-100982532D01*
X90156332Y-96773677D02*
X91879523Y-101038723D01*
X90017255Y-96829868D02*
X91740445Y-101094914D01*
X89878177Y-96886059D02*
X91601367Y-101151104D01*
X89739099Y-96942250D02*
X91462290Y-101207295D01*
X89600022Y-96998441D02*
X91323212Y-101263486D01*
X89460944Y-97054632D02*
X91184135Y-101319677D01*
X89321867Y-97110823D02*
X91045057Y-101375868D01*
X89182789Y-97167014D02*
X90905979Y-101432059D01*
X89043712Y-97223205D02*
X90766902Y-101488250D01*
X88904634Y-97279396D02*
X90627824Y-101544441D01*
X88765556Y-97335587D02*
X90488747Y-101600632D01*
X88626479Y-97391778D02*
X90349669Y-101656823D01*
X88487401Y-97447969D02*
X90210592Y-101713014D01*
X88348324Y-97504160D02*
X90071514Y-101769205D01*
X88209246Y-97560351D02*
X89932436Y-101825396D01*
X88107629Y-97709260D02*
X89755898Y-101788869D01*
X88024743Y-97904529D02*
X89560630Y-101705982D01*
X87941856Y-98099797D02*
X89365361Y-101623096D01*
X87858969Y-98295066D02*
X89170093Y-101540209D01*
X87803712Y-98425245D02*
X89039913Y-101484951D01*
X87748454Y-98555424D02*
X88909734Y-101429694D01*
X87693196Y-98685603D02*
X88779555Y-101374436D01*
X93812545Y-101551972D02*
G75*
G03*
X92282941Y-100902694I-1089441J-440163D01*
G01*
X91627002Y-96910838D02*
G75*
G03*
X94169886Y-97497909I1690654J1522272D01*
G01*
X97742995Y-101069466D02*
G75*
G03*
X98295572Y-99767675I-374607J927184D01*
G01*
X96001074Y-96758062D02*
G75*
G02*
X97302864Y-97310638I374607J-927183D01*
G01*
X90565575Y-96582672D02*
G75*
G02*
X91627001Y-96910838I311247J-873928D01*
G01*
D10*
%TO.C,SW4*%
X137190000Y-89270000D02*
X137190000Y-93770000D01*
X134340000Y-91570000D02*
X137190000Y-89270000D01*
X134340000Y-87220000D02*
X134340000Y-91570000D01*
X131640000Y-91520000D02*
X134340000Y-87220000D01*
X131640000Y-87070000D02*
X131640000Y-91520000D01*
D11*
X131240000Y-86945000D02*
X133840000Y-86945000D01*
X131240000Y-91595000D02*
X133815000Y-91595000D01*
X136265000Y-93795000D02*
X138815000Y-93795000D01*
X136840000Y-89145000D02*
X138815000Y-89145000D01*
X130240000Y-90595000D02*
X130240000Y-87945000D01*
X131240000Y-86945000D02*
X130215000Y-87970000D01*
X131240000Y-91595000D02*
X130215000Y-90570000D01*
X136265000Y-93795000D02*
X134990000Y-92770000D01*
X139690000Y-89670000D02*
X139690000Y-93270000D01*
X139540000Y-89470000D02*
X139540000Y-93470000D01*
X139390000Y-89370000D02*
X139390000Y-93570000D01*
X139240000Y-89270000D02*
X139240000Y-93670000D01*
X139090000Y-89220000D02*
X139090000Y-93720000D01*
X138940000Y-89170000D02*
X138940000Y-93720000D01*
X138790000Y-89170000D02*
X138790000Y-93770000D01*
X138640000Y-89170000D02*
X138640000Y-93770000D01*
X138490000Y-89170000D02*
X138490000Y-93770000D01*
X138340000Y-89170000D02*
X138340000Y-93770000D01*
X138190000Y-89170000D02*
X138190000Y-93770000D01*
X138040000Y-89170000D02*
X138040000Y-93770000D01*
X137890000Y-89170000D02*
X137890000Y-93770000D01*
X137740000Y-89170000D02*
X137740000Y-93770000D01*
X137590000Y-89170000D02*
X137590000Y-93770000D01*
X137440000Y-89170000D02*
X137440000Y-93770000D01*
X137290000Y-89170000D02*
X137290000Y-93770000D01*
X137140000Y-89170000D02*
X137140000Y-93770000D01*
X136990000Y-89170000D02*
X136990000Y-93770000D01*
X136840000Y-89170000D02*
X136840000Y-93770000D01*
X136690000Y-89170000D02*
X136690000Y-93720000D01*
X136540000Y-89120000D02*
X136540000Y-93770000D01*
X136390000Y-89120000D02*
X136390000Y-93770000D01*
X136240000Y-89120000D02*
X136240000Y-93720000D01*
X136090000Y-89070000D02*
X136090000Y-93620000D01*
X135940000Y-88970000D02*
X135940000Y-93520000D01*
X135790000Y-88920000D02*
X135790000Y-93370000D01*
X135640000Y-88820000D02*
X135640000Y-93270000D01*
X135490000Y-88720000D02*
X135490000Y-93120000D01*
X135340000Y-88620000D02*
X135340000Y-93020000D01*
X135190000Y-88470000D02*
X135190000Y-92920000D01*
X135040000Y-88320000D02*
X135040000Y-92770000D01*
X134940000Y-88120000D02*
X134940000Y-92270000D01*
X134840000Y-87970000D02*
X134840000Y-92120000D01*
X134740000Y-87770000D02*
X134740000Y-91920000D01*
X134640000Y-87620000D02*
X134640000Y-91820000D01*
X134540000Y-87370000D02*
X134540000Y-91770000D01*
X134440000Y-87220000D02*
X134440000Y-91720000D01*
X134290000Y-87120000D02*
X134290000Y-91670000D01*
X134140000Y-87020000D02*
X134140000Y-91570000D01*
X133990000Y-86970000D02*
X133990000Y-91570000D01*
X133840000Y-86970000D02*
X133840000Y-91570000D01*
X133690000Y-86970000D02*
X133690000Y-91520000D01*
X133540000Y-86970000D02*
X133540000Y-91570000D01*
X133390000Y-86970000D02*
X133390000Y-91570000D01*
X133240000Y-86970000D02*
X133240000Y-91570000D01*
X133090000Y-86970000D02*
X133090000Y-91570000D01*
X132940000Y-86970000D02*
X132940000Y-91570000D01*
X132790000Y-86970000D02*
X132790000Y-91570000D01*
X132640000Y-86970000D02*
X132640000Y-91570000D01*
X132490000Y-86970000D02*
X132490000Y-91570000D01*
X132340000Y-86970000D02*
X132340000Y-91570000D01*
X132190000Y-86970000D02*
X132190000Y-91570000D01*
X132040000Y-86970000D02*
X132040000Y-91570000D01*
X131890000Y-86970000D02*
X131890000Y-91570000D01*
X131740000Y-86970000D02*
X131740000Y-91570000D01*
X131590000Y-86970000D02*
X131590000Y-91570000D01*
X131440000Y-86970000D02*
X131440000Y-91570000D01*
X131290000Y-86970000D02*
X131290000Y-91570000D01*
X131140000Y-87070000D02*
X131140000Y-91470000D01*
X130990000Y-87220000D02*
X130990000Y-91320000D01*
X130840000Y-87370000D02*
X130840000Y-91170000D01*
X130690000Y-87520000D02*
X130690000Y-91020000D01*
X130590000Y-87620000D02*
X130590000Y-90920000D01*
X130490000Y-87720000D02*
X130490000Y-90820000D01*
X130390000Y-87820000D02*
X130390000Y-90720000D01*
X134990000Y-92770000D02*
G75*
G03*
X133815000Y-91595000I-1175000J0D01*
G01*
X134702199Y-87648096D02*
G75*
G03*
X136840000Y-89145000I2137801J778096D01*
G01*
X138815000Y-93795000D02*
G75*
G03*
X139815000Y-92795000I0J1000000D01*
G01*
X138815000Y-89145000D02*
G75*
G02*
X139815000Y-90145000I0J-1000000D01*
G01*
X133840995Y-86946209D02*
G75*
G02*
X134702199Y-87648096I-38796J-926887D01*
G01*
%TO.C,U1*%
X111160000Y-135290000D02*
X111160000Y-134280000D01*
X111160000Y-117490000D02*
X111160000Y-118490000D01*
X110160000Y-135290000D02*
X111160000Y-135290000D01*
X110110000Y-117490000D02*
X111160000Y-117490000D01*
X78110000Y-135290000D02*
X78110000Y-134340000D01*
X78110000Y-117490000D02*
X78110000Y-118490000D01*
X78110000Y-135290000D02*
X79110000Y-135290000D01*
X78110000Y-117490000D02*
X79110000Y-117490000D01*
X75210000Y-122640000D02*
X76510000Y-122640000D01*
X76510000Y-122640000D02*
X76510000Y-130140000D01*
X76510000Y-130140000D02*
X75210000Y-130140000D01*
X75210000Y-130140000D02*
X75210000Y-122640000D01*
X75560000Y-125890000D02*
X75560000Y-126890000D01*
X75560000Y-126890000D02*
X76210000Y-126390000D01*
X76210000Y-126390000D02*
X75560000Y-125890000D01*
X75710000Y-126040000D02*
X75710000Y-126740000D01*
X75860000Y-126140000D02*
X75860000Y-126640000D01*
X76010000Y-126240000D02*
X76010000Y-126540000D01*
%TO.C,D5*%
X152147208Y-135154662D02*
X152025338Y-136147208D01*
X151987018Y-135638748D02*
X151154662Y-135032792D01*
X151032792Y-136025338D02*
X151987018Y-135638748D01*
X151154662Y-135032792D02*
X151032792Y-136025338D01*
X149001527Y-134516543D02*
X148818723Y-136005362D01*
X154361277Y-135174638D02*
X154178473Y-136663457D01*
X149001527Y-134516543D02*
X154361277Y-135174638D01*
X154178473Y-136663457D02*
X148818723Y-136005362D01*
%TO.C,D4*%
X152692745Y-108389490D02*
X152510510Y-109372745D01*
X152503302Y-108862894D02*
X151709490Y-108207255D01*
X151527255Y-109190510D02*
X152503302Y-108862894D01*
X151709490Y-108207255D02*
X151527255Y-109190510D01*
X149591888Y-107560523D02*
X149318535Y-109035405D01*
X154901465Y-108544595D02*
X154628112Y-110019477D01*
X149591888Y-107560523D02*
X154901465Y-108544595D01*
X154628112Y-110019477D02*
X149318535Y-109035405D01*
%TO.C,D3*%
X133040000Y-103560000D02*
X133040000Y-104560000D01*
X132940000Y-104060000D02*
X132040000Y-103560000D01*
X132040000Y-104560000D02*
X132940000Y-104060000D01*
X132040000Y-103560000D02*
X132040000Y-104560000D01*
X129840000Y-103310000D02*
X129840000Y-104810000D01*
X135240000Y-103310000D02*
X135240000Y-104810000D01*
X129840000Y-103310000D02*
X135240000Y-103310000D01*
X135240000Y-104810000D02*
X129840000Y-104810000D01*
%TO.C,D2*%
X113910000Y-103490000D02*
X113910000Y-104490000D01*
X113810000Y-103990000D02*
X112910000Y-103490000D01*
X112910000Y-104490000D02*
X113810000Y-103990000D01*
X112910000Y-103490000D02*
X112910000Y-104490000D01*
X110710000Y-103240000D02*
X110710000Y-104740000D01*
X116110000Y-103240000D02*
X116110000Y-104740000D01*
X110710000Y-103240000D02*
X116110000Y-103240000D01*
X116110000Y-104740000D02*
X110710000Y-104740000D01*
%TO.C,D1*%
X95986289Y-112299105D02*
X96360895Y-113226289D01*
X96080874Y-112800157D02*
X95059105Y-112673711D01*
X95433711Y-113600895D02*
X96080874Y-112800157D01*
X95059105Y-112673711D02*
X95433711Y-113600895D01*
X92925649Y-113266050D02*
X93487559Y-114656826D01*
X97932441Y-111243174D02*
X98494351Y-112633950D01*
X92925649Y-113266050D02*
X97932441Y-111243174D01*
X98494351Y-112633950D02*
X93487559Y-114656826D01*
D10*
%TO.C,SW6*%
X158244369Y-121800670D02*
X157695957Y-126267128D01*
X155135313Y-123736199D02*
X158244369Y-121800670D01*
X155665444Y-119418623D02*
X155135313Y-123736199D01*
X152461532Y-123357524D02*
X155665444Y-119418623D01*
X153003850Y-118940694D02*
X152461532Y-123357524D01*
D11*
X152622065Y-118767878D02*
X155202685Y-119084738D01*
X152055373Y-123383217D02*
X154611179Y-123697031D01*
X156774805Y-126179212D02*
X159305797Y-126489979D01*
X157912211Y-121633948D02*
X159872490Y-121874640D01*
X151184696Y-122268802D02*
X151507650Y-119638555D01*
X152622065Y-118767878D02*
X151479789Y-119660321D01*
X152055373Y-123383217D02*
X151162929Y-122240941D01*
X156774805Y-126179212D02*
X155634224Y-125006469D01*
X160676986Y-122502362D02*
X160238257Y-126075528D01*
X160552478Y-122285572D02*
X160065001Y-126255757D01*
X160415783Y-122168037D02*
X159903932Y-126336731D01*
X160279088Y-122050502D02*
X159742863Y-126417705D01*
X160136300Y-121982595D02*
X159587888Y-126449052D01*
X159993511Y-121914687D02*
X159439006Y-126430772D01*
X159844630Y-121896406D02*
X159284031Y-126462119D01*
X159695748Y-121878126D02*
X159135149Y-126443838D01*
X159546866Y-121859846D02*
X158986267Y-126425558D01*
X159397984Y-121841565D02*
X158837385Y-126407278D01*
X159249102Y-121823285D02*
X158688503Y-126388997D01*
X159100220Y-121805004D02*
X158539621Y-126370717D01*
X158951338Y-121786724D02*
X158390739Y-126352436D01*
X158802456Y-121768444D02*
X158241857Y-126334156D01*
X158653574Y-121750163D02*
X158092975Y-126315876D01*
X158504692Y-121731883D02*
X157944093Y-126297595D01*
X158355810Y-121713602D02*
X157795211Y-126279315D01*
X158206928Y-121695322D02*
X157646329Y-126261034D01*
X158058046Y-121677042D02*
X157497447Y-126242754D01*
X157909165Y-121658761D02*
X157348566Y-126224474D01*
X157760283Y-121640481D02*
X157205777Y-126156566D01*
X157617494Y-121572573D02*
X157050802Y-126187913D01*
X157468612Y-121554293D02*
X156901920Y-126169632D01*
X157319730Y-121536012D02*
X156759131Y-126101725D01*
X157176942Y-121468105D02*
X156622436Y-125984190D01*
X157040247Y-121350570D02*
X156485741Y-125866655D01*
X156897458Y-121282662D02*
X156355140Y-125699492D01*
X156760763Y-121165127D02*
X156218445Y-125581957D01*
X156624068Y-121047592D02*
X156087843Y-125414795D01*
X156487373Y-120930057D02*
X155951148Y-125297260D01*
X156356772Y-120762895D02*
X155814453Y-125179725D01*
X156226170Y-120595732D02*
X155683852Y-125012563D01*
X156151290Y-120385036D02*
X155645532Y-124504103D01*
X156070315Y-120223967D02*
X155564558Y-124343034D01*
X155995435Y-120013271D02*
X155489677Y-124132338D01*
X155914460Y-119852202D02*
X155402609Y-124020896D01*
X155845673Y-119591879D02*
X155309448Y-123959082D01*
X155764699Y-119430810D02*
X155216287Y-123897268D01*
X155628004Y-119313275D02*
X155073498Y-123829360D01*
X155491309Y-119195740D02*
X154936803Y-123711825D01*
X155348521Y-119127832D02*
X154787922Y-123693544D01*
X155199639Y-119109552D02*
X154639040Y-123675264D01*
X155050757Y-119091271D02*
X154496251Y-123607356D01*
X154901875Y-119072991D02*
X154341276Y-123638703D01*
X154752993Y-119054710D02*
X154192394Y-123620423D01*
X154604111Y-119036430D02*
X154043512Y-123602142D01*
X154455229Y-119018150D02*
X153894630Y-123583862D01*
X154306347Y-118999869D02*
X153745748Y-123565582D01*
X154157465Y-118981589D02*
X153596866Y-123547301D01*
X154008583Y-118963308D02*
X153447984Y-123529021D01*
X153859701Y-118945028D02*
X153299102Y-123510740D01*
X153710819Y-118926748D02*
X153150220Y-123492460D01*
X153561937Y-118908467D02*
X153001338Y-123474180D01*
X153413056Y-118890187D02*
X152852457Y-123455899D01*
X153264174Y-118871906D02*
X152703575Y-123437619D01*
X153115292Y-118853626D02*
X152554693Y-123419338D01*
X152966410Y-118835346D02*
X152405811Y-123401058D01*
X152817528Y-118817065D02*
X152256929Y-123382778D01*
X152668646Y-118798785D02*
X152108047Y-123364497D01*
X152507577Y-118879759D02*
X151971352Y-123246962D01*
X152340415Y-119010361D02*
X151840750Y-123079800D01*
X152173252Y-119140962D02*
X151710149Y-122912638D01*
X152006090Y-119271564D02*
X151579547Y-122745475D01*
X151894649Y-119358631D02*
X151492480Y-122634034D01*
X151783207Y-119445699D02*
X151405412Y-122522592D01*
X151671765Y-119532767D02*
X151318344Y-122411151D01*
X155634225Y-125006469D02*
G75*
G03*
X154611179Y-123697031I-1166242J143196D01*
G01*
X155972771Y-119887669D02*
G75*
G03*
X157912211Y-121633948I2216693J511764D01*
G01*
X159305798Y-126489979D02*
G75*
G03*
X160420213Y-125619302I121869J992546D01*
G01*
X159872490Y-121874640D02*
G75*
G02*
X160743167Y-122989055I-121869J-992546D01*
G01*
X155203526Y-119086059D02*
G75*
G02*
X155972772Y-119887669I-151466J-915250D01*
G01*
%TO.C,SW3*%
X111340000Y-87820000D02*
X111340000Y-90720000D01*
X111440000Y-87720000D02*
X111440000Y-90820000D01*
X111540000Y-87620000D02*
X111540000Y-90920000D01*
X111640000Y-87520000D02*
X111640000Y-91020000D01*
X111790000Y-87370000D02*
X111790000Y-91170000D01*
X111940000Y-87220000D02*
X111940000Y-91320000D01*
X112090000Y-87070000D02*
X112090000Y-91470000D01*
X112240000Y-86970000D02*
X112240000Y-91570000D01*
X112390000Y-86970000D02*
X112390000Y-91570000D01*
X112540000Y-86970000D02*
X112540000Y-91570000D01*
X112690000Y-86970000D02*
X112690000Y-91570000D01*
X112840000Y-86970000D02*
X112840000Y-91570000D01*
X112990000Y-86970000D02*
X112990000Y-91570000D01*
X113140000Y-86970000D02*
X113140000Y-91570000D01*
X113290000Y-86970000D02*
X113290000Y-91570000D01*
X113440000Y-86970000D02*
X113440000Y-91570000D01*
X113590000Y-86970000D02*
X113590000Y-91570000D01*
X113740000Y-86970000D02*
X113740000Y-91570000D01*
X113890000Y-86970000D02*
X113890000Y-91570000D01*
X114040000Y-86970000D02*
X114040000Y-91570000D01*
X114190000Y-86970000D02*
X114190000Y-91570000D01*
X114340000Y-86970000D02*
X114340000Y-91570000D01*
X114490000Y-86970000D02*
X114490000Y-91570000D01*
X114640000Y-86970000D02*
X114640000Y-91520000D01*
X114790000Y-86970000D02*
X114790000Y-91570000D01*
X114940000Y-86970000D02*
X114940000Y-91570000D01*
X115090000Y-87020000D02*
X115090000Y-91570000D01*
X115240000Y-87120000D02*
X115240000Y-91670000D01*
X115390000Y-87220000D02*
X115390000Y-91720000D01*
X115490000Y-87370000D02*
X115490000Y-91770000D01*
X115590000Y-87620000D02*
X115590000Y-91820000D01*
X115690000Y-87770000D02*
X115690000Y-91920000D01*
X115790000Y-87970000D02*
X115790000Y-92120000D01*
X115890000Y-88120000D02*
X115890000Y-92270000D01*
X115990000Y-88320000D02*
X115990000Y-92770000D01*
X116140000Y-88470000D02*
X116140000Y-92920000D01*
X116290000Y-88620000D02*
X116290000Y-93020000D01*
X116440000Y-88720000D02*
X116440000Y-93120000D01*
X116590000Y-88820000D02*
X116590000Y-93270000D01*
X116740000Y-88920000D02*
X116740000Y-93370000D01*
X116890000Y-88970000D02*
X116890000Y-93520000D01*
X117040000Y-89070000D02*
X117040000Y-93620000D01*
X117190000Y-89120000D02*
X117190000Y-93720000D01*
X117340000Y-89120000D02*
X117340000Y-93770000D01*
X117490000Y-89120000D02*
X117490000Y-93770000D01*
X117640000Y-89170000D02*
X117640000Y-93720000D01*
X117790000Y-89170000D02*
X117790000Y-93770000D01*
X117940000Y-89170000D02*
X117940000Y-93770000D01*
X118090000Y-89170000D02*
X118090000Y-93770000D01*
X118240000Y-89170000D02*
X118240000Y-93770000D01*
X118390000Y-89170000D02*
X118390000Y-93770000D01*
X118540000Y-89170000D02*
X118540000Y-93770000D01*
X118690000Y-89170000D02*
X118690000Y-93770000D01*
X118840000Y-89170000D02*
X118840000Y-93770000D01*
X118990000Y-89170000D02*
X118990000Y-93770000D01*
X119140000Y-89170000D02*
X119140000Y-93770000D01*
X119290000Y-89170000D02*
X119290000Y-93770000D01*
X119440000Y-89170000D02*
X119440000Y-93770000D01*
X119590000Y-89170000D02*
X119590000Y-93770000D01*
X119740000Y-89170000D02*
X119740000Y-93770000D01*
X119890000Y-89170000D02*
X119890000Y-93720000D01*
X120040000Y-89220000D02*
X120040000Y-93720000D01*
X120190000Y-89270000D02*
X120190000Y-93670000D01*
X120340000Y-89370000D02*
X120340000Y-93570000D01*
X120490000Y-89470000D02*
X120490000Y-93470000D01*
X120640000Y-89670000D02*
X120640000Y-93270000D01*
X117215000Y-93795000D02*
X115940000Y-92770000D01*
X112190000Y-91595000D02*
X111165000Y-90570000D01*
X112190000Y-86945000D02*
X111165000Y-87970000D01*
X111190000Y-90595000D02*
X111190000Y-87945000D01*
X117790000Y-89145000D02*
X119765000Y-89145000D01*
X117215000Y-93795000D02*
X119765000Y-93795000D01*
X112190000Y-91595000D02*
X114765000Y-91595000D01*
X112190000Y-86945000D02*
X114790000Y-86945000D01*
D10*
X112590000Y-87070000D02*
X112590000Y-91520000D01*
X112590000Y-91520000D02*
X115290000Y-87220000D01*
X115290000Y-87220000D02*
X115290000Y-91570000D01*
X115290000Y-91570000D02*
X118140000Y-89270000D01*
X118140000Y-89270000D02*
X118140000Y-93770000D01*
D11*
X114790995Y-86946209D02*
G75*
G02*
X115652199Y-87648096I-38796J-926887D01*
G01*
X119765000Y-89145000D02*
G75*
G02*
X120765000Y-90145000I0J-1000000D01*
G01*
X119765000Y-93795000D02*
G75*
G03*
X120765000Y-92795000I0J1000000D01*
G01*
X115652199Y-87648096D02*
G75*
G03*
X117790000Y-89145000I2137801J778096D01*
G01*
X115940000Y-92770000D02*
G75*
G03*
X114765000Y-91595000I-1175000J0D01*
G01*
%TO.C,OL1*%
X114480000Y-138360000D02*
X111940000Y-138360000D01*
X114480000Y-128200000D02*
X114480000Y-138360000D01*
X111940000Y-128200000D02*
X114480000Y-128200000D01*
X111940000Y-138360000D02*
X111940000Y-128200000D01*
%TO.C,SW1*%
X79060000Y-135990000D02*
X79060000Y-136240000D01*
X84760000Y-135990000D02*
X79060000Y-135990000D01*
X84760000Y-135990000D02*
X84760000Y-136240000D01*
X84760000Y-139190000D02*
X84760000Y-138940000D01*
X79060000Y-139190000D02*
X79060000Y-138940000D01*
X84760000Y-139190000D02*
X79060000Y-139190000D01*
%TO.C,SW5*%
X152815433Y-92551270D02*
X152286950Y-95402709D01*
X152931982Y-92471168D02*
X152367052Y-95519258D01*
X153048531Y-92391066D02*
X152447154Y-95635807D01*
X153165080Y-92310964D02*
X152527256Y-95752356D01*
X153339904Y-92190811D02*
X152647409Y-95927180D01*
X153514727Y-92070658D02*
X152767562Y-96102004D01*
X153689551Y-91950506D02*
X152887715Y-96276827D01*
X153855263Y-91879515D02*
X153016979Y-96402488D01*
X154002751Y-91906851D02*
X153164467Y-96429823D01*
X154150239Y-91934186D02*
X153311956Y-96457159D01*
X154297727Y-91961521D02*
X153459444Y-96484494D01*
X154445216Y-91988857D02*
X153606932Y-96511829D01*
X154592704Y-92016192D02*
X153754420Y-96539165D01*
X154740192Y-92043527D02*
X153901909Y-96566500D01*
X154887680Y-92070863D02*
X154049397Y-96593835D01*
X155035169Y-92098198D02*
X154196885Y-96621171D01*
X155182657Y-92125533D02*
X154344373Y-96648506D01*
X155330145Y-92152869D02*
X154491862Y-96675841D01*
X155477633Y-92180204D02*
X154639350Y-96703177D01*
X155625122Y-92207539D02*
X154786838Y-96730512D01*
X155772610Y-92234875D02*
X154934326Y-96757847D01*
X155920098Y-92262210D02*
X155081815Y-96785183D01*
X156067586Y-92289545D02*
X155229303Y-96812518D01*
X156215074Y-92316881D02*
X155385903Y-96790690D01*
X156362563Y-92344216D02*
X155524279Y-96867189D01*
X156510051Y-92371551D02*
X155671768Y-96894524D01*
X156648427Y-92448049D02*
X155819256Y-96921859D01*
X156777692Y-92573710D02*
X155948520Y-97047520D01*
X156906957Y-92699371D02*
X156086897Y-97124018D01*
X156977947Y-92865083D02*
X156176111Y-97191404D01*
X157030714Y-93129120D02*
X156265324Y-97258791D01*
X157101704Y-93294832D02*
X156345426Y-97375340D01*
X157163582Y-93509706D02*
X156407305Y-97590214D01*
X157234572Y-93675418D02*
X156478295Y-97755926D01*
X157296451Y-93890293D02*
X156485503Y-98265777D01*
X157416604Y-94065116D02*
X156605655Y-98440601D01*
X157536756Y-94239940D02*
X156734920Y-98566261D01*
X157666021Y-94365601D02*
X156864185Y-98691922D01*
X157795286Y-94491261D02*
X156984338Y-98866746D01*
X157924550Y-94616922D02*
X157113602Y-98992407D01*
X158062927Y-94693420D02*
X157233755Y-99167230D01*
X158192192Y-94819081D02*
X157363020Y-99292891D01*
X158330568Y-94895579D02*
X157492285Y-99418552D01*
X158478056Y-94922915D02*
X157630661Y-99495050D01*
X158625545Y-94950250D02*
X157778149Y-99522385D01*
X158763921Y-95026748D02*
X157934749Y-99500558D01*
X158911409Y-95054083D02*
X158073126Y-99577056D01*
X159058897Y-95081419D02*
X158220614Y-99604391D01*
X159206386Y-95108754D02*
X158368102Y-99631727D01*
X159353874Y-95136089D02*
X158515591Y-99659062D01*
X159501362Y-95163425D02*
X158663079Y-99686397D01*
X159648850Y-95190760D02*
X158810567Y-99713733D01*
X159796339Y-95218095D02*
X158958055Y-99741068D01*
X159943827Y-95245431D02*
X159105543Y-99768403D01*
X160091315Y-95272766D02*
X159253032Y-99795739D01*
X160238803Y-95300101D02*
X159400520Y-99823074D01*
X160386292Y-95327437D02*
X159548008Y-99850409D01*
X160533780Y-95354772D02*
X159695496Y-99877745D01*
X160681268Y-95382107D02*
X159842985Y-99905080D01*
X160828756Y-95409443D02*
X159990473Y-99932415D01*
X160976245Y-95436778D02*
X160147073Y-99910588D01*
X161114621Y-95513276D02*
X160294561Y-99937923D01*
X161252997Y-95589774D02*
X160451161Y-99916096D01*
X161382262Y-95715435D02*
X160616873Y-99845105D01*
X161511527Y-95841096D02*
X160782585Y-99774115D01*
X161622568Y-96065082D02*
X160966520Y-99604800D01*
X157503198Y-99496852D02*
X156436340Y-98256665D01*
X152963261Y-96417958D02*
X152142216Y-95223330D01*
X153810656Y-91845822D02*
X152616028Y-92666867D01*
X152162241Y-95252467D02*
X152645165Y-92646842D01*
X158915965Y-95029502D02*
X160857894Y-95389417D01*
X157503198Y-99496852D02*
X160010498Y-99961552D01*
X152963261Y-96417958D02*
X155495142Y-96887214D01*
X153810656Y-91845822D02*
X156367119Y-92319635D01*
D10*
X154181178Y-92041623D02*
X153370230Y-96417108D01*
X153370230Y-96417108D02*
X156808631Y-92681147D01*
X156808631Y-92681147D02*
X156015907Y-96958306D01*
X156015907Y-96958306D02*
X159237325Y-95216191D01*
X159237325Y-95216191D02*
X158417265Y-99640838D01*
D11*
X156367876Y-92321004D02*
G75*
G02*
X157086751Y-93168080I-207058J-904297D01*
G01*
X160857894Y-95389417D02*
G75*
G02*
X161658913Y-96554908I-182236J-983255D01*
G01*
X160010499Y-99961553D02*
G75*
G03*
X161175989Y-99160533I182235J983255D01*
G01*
X157086751Y-93168080D02*
G75*
G03*
X158915965Y-95029502I2243800J375483D01*
G01*
X156436340Y-98256666D02*
G75*
G03*
X155495142Y-96887214I-1155325J214127D01*
G01*
%TO.C,U1*%
D10*
X77799285Y-123893571D02*
X77049285Y-123893571D01*
X77585000Y-124143571D01*
X77049285Y-124393571D01*
X77799285Y-124393571D01*
X77799285Y-124750714D02*
X77299285Y-124750714D01*
X77049285Y-124750714D02*
X77085000Y-124715000D01*
X77120714Y-124750714D01*
X77085000Y-124786428D01*
X77049285Y-124750714D01*
X77120714Y-124750714D01*
X77763571Y-125429285D02*
X77799285Y-125357857D01*
X77799285Y-125215000D01*
X77763571Y-125143571D01*
X77727857Y-125107857D01*
X77656428Y-125072142D01*
X77442142Y-125072142D01*
X77370714Y-125107857D01*
X77335000Y-125143571D01*
X77299285Y-125215000D01*
X77299285Y-125357857D01*
X77335000Y-125429285D01*
X77799285Y-125750714D02*
X77299285Y-125750714D01*
X77442142Y-125750714D02*
X77370714Y-125786428D01*
X77335000Y-125822142D01*
X77299285Y-125893571D01*
X77299285Y-125965000D01*
X77799285Y-126322142D02*
X77763571Y-126250714D01*
X77727857Y-126215000D01*
X77656428Y-126179285D01*
X77442142Y-126179285D01*
X77370714Y-126215000D01*
X77335000Y-126250714D01*
X77299285Y-126322142D01*
X77299285Y-126429285D01*
X77335000Y-126500714D01*
X77370714Y-126536428D01*
X77442142Y-126572142D01*
X77656428Y-126572142D01*
X77727857Y-126536428D01*
X77763571Y-126500714D01*
X77799285Y-126429285D01*
X77799285Y-126322142D01*
X77049285Y-126893571D02*
X77656428Y-126893571D01*
X77727857Y-126929285D01*
X77763571Y-126965000D01*
X77799285Y-127036428D01*
X77799285Y-127179285D01*
X77763571Y-127250714D01*
X77727857Y-127286428D01*
X77656428Y-127322142D01*
X77049285Y-127322142D01*
X77763571Y-127643571D02*
X77799285Y-127750714D01*
X77799285Y-127929285D01*
X77763571Y-128000714D01*
X77727857Y-128036428D01*
X77656428Y-128072142D01*
X77585000Y-128072142D01*
X77513571Y-128036428D01*
X77477857Y-128000714D01*
X77442142Y-127929285D01*
X77406428Y-127786428D01*
X77370714Y-127715000D01*
X77335000Y-127679285D01*
X77263571Y-127643571D01*
X77192142Y-127643571D01*
X77120714Y-127679285D01*
X77085000Y-127715000D01*
X77049285Y-127786428D01*
X77049285Y-127965000D01*
X77085000Y-128072142D01*
X77406428Y-128643571D02*
X77442142Y-128750714D01*
X77477857Y-128786428D01*
X77549285Y-128822142D01*
X77656428Y-128822142D01*
X77727857Y-128786428D01*
X77763571Y-128750714D01*
X77799285Y-128679285D01*
X77799285Y-128393571D01*
X77049285Y-128393571D01*
X77049285Y-128643571D01*
X77085000Y-128715000D01*
X77120714Y-128750714D01*
X77192142Y-128786428D01*
X77263571Y-128786428D01*
X77335000Y-128750714D01*
X77370714Y-128715000D01*
X77406428Y-128643571D01*
X77406428Y-128393571D01*
D12*
X107363571Y-131686190D02*
X107327857Y-131590476D01*
X107292142Y-131558571D01*
X107220714Y-131526666D01*
X107113571Y-131526666D01*
X107042142Y-131558571D01*
X107006428Y-131590476D01*
X106970714Y-131654285D01*
X106970714Y-131909523D01*
X107720714Y-131909523D01*
X107720714Y-131686190D01*
X107685000Y-131622380D01*
X107649285Y-131590476D01*
X107577857Y-131558571D01*
X107506428Y-131558571D01*
X107435000Y-131590476D01*
X107399285Y-131622380D01*
X107363571Y-131686190D01*
X107363571Y-131909523D01*
X107470714Y-130952380D02*
X106970714Y-130952380D01*
X107756428Y-131111904D02*
X107220714Y-131271428D01*
X107220714Y-130856666D01*
X107756428Y-130122857D02*
X106792142Y-130697142D01*
X107399285Y-129803809D02*
X107435000Y-129867619D01*
X107470714Y-129899523D01*
X107542142Y-129931428D01*
X107577857Y-129931428D01*
X107649285Y-129899523D01*
X107685000Y-129867619D01*
X107720714Y-129803809D01*
X107720714Y-129676190D01*
X107685000Y-129612380D01*
X107649285Y-129580476D01*
X107577857Y-129548571D01*
X107542142Y-129548571D01*
X107470714Y-129580476D01*
X107435000Y-129612380D01*
X107399285Y-129676190D01*
X107399285Y-129803809D01*
X107363571Y-129867619D01*
X107327857Y-129899523D01*
X107256428Y-129931428D01*
X107113571Y-129931428D01*
X107042142Y-129899523D01*
X107006428Y-129867619D01*
X106970714Y-129803809D01*
X106970714Y-129676190D01*
X107006428Y-129612380D01*
X107042142Y-129580476D01*
X107113571Y-129548571D01*
X107256428Y-129548571D01*
X107327857Y-129580476D01*
X107363571Y-129612380D01*
X107399285Y-129676190D01*
X84170714Y-132213571D02*
X84920714Y-132213571D01*
X84920714Y-132054047D01*
X84885000Y-131958333D01*
X84813571Y-131894523D01*
X84742142Y-131862619D01*
X84599285Y-131830714D01*
X84492142Y-131830714D01*
X84349285Y-131862619D01*
X84277857Y-131894523D01*
X84206428Y-131958333D01*
X84170714Y-132054047D01*
X84170714Y-132213571D01*
X84849285Y-131575476D02*
X84885000Y-131543571D01*
X84920714Y-131479761D01*
X84920714Y-131320238D01*
X84885000Y-131256428D01*
X84849285Y-131224523D01*
X84777857Y-131192619D01*
X84706428Y-131192619D01*
X84599285Y-131224523D01*
X84170714Y-131607380D01*
X84170714Y-131192619D01*
X84956428Y-130426904D02*
X83992142Y-131001190D01*
X84170714Y-129820714D02*
X84527857Y-130044047D01*
X84170714Y-130203571D02*
X84920714Y-130203571D01*
X84920714Y-129948333D01*
X84885000Y-129884523D01*
X84849285Y-129852619D01*
X84777857Y-129820714D01*
X84670714Y-129820714D01*
X84599285Y-129852619D01*
X84563571Y-129884523D01*
X84527857Y-129948333D01*
X84527857Y-130203571D01*
X84920714Y-129597380D02*
X84170714Y-129150714D01*
X84920714Y-129150714D02*
X84170714Y-129597380D01*
X84170714Y-128544523D02*
X84170714Y-128927380D01*
X84170714Y-128735952D02*
X84920714Y-128735952D01*
X84813571Y-128799761D01*
X84742142Y-128863571D01*
X84706428Y-128927380D01*
X109863571Y-131686190D02*
X109827857Y-131590476D01*
X109792142Y-131558571D01*
X109720714Y-131526666D01*
X109613571Y-131526666D01*
X109542142Y-131558571D01*
X109506428Y-131590476D01*
X109470714Y-131654285D01*
X109470714Y-131909523D01*
X110220714Y-131909523D01*
X110220714Y-131686190D01*
X110185000Y-131622380D01*
X110149285Y-131590476D01*
X110077857Y-131558571D01*
X110006428Y-131558571D01*
X109935000Y-131590476D01*
X109899285Y-131622380D01*
X109863571Y-131686190D01*
X109863571Y-131909523D01*
X110220714Y-130920476D02*
X110220714Y-131239523D01*
X109863571Y-131271428D01*
X109899285Y-131239523D01*
X109935000Y-131175714D01*
X109935000Y-131016190D01*
X109899285Y-130952380D01*
X109863571Y-130920476D01*
X109792142Y-130888571D01*
X109613571Y-130888571D01*
X109542142Y-130920476D01*
X109506428Y-130952380D01*
X109470714Y-131016190D01*
X109470714Y-131175714D01*
X109506428Y-131239523D01*
X109542142Y-131271428D01*
X110256428Y-130122857D02*
X109292142Y-130697142D01*
X109470714Y-129867619D02*
X109470714Y-129740000D01*
X109506428Y-129676190D01*
X109542142Y-129644285D01*
X109649285Y-129580476D01*
X109792142Y-129548571D01*
X110077857Y-129548571D01*
X110149285Y-129580476D01*
X110185000Y-129612380D01*
X110220714Y-129676190D01*
X110220714Y-129803809D01*
X110185000Y-129867619D01*
X110149285Y-129899523D01*
X110077857Y-129931428D01*
X109899285Y-129931428D01*
X109827857Y-129899523D01*
X109792142Y-129867619D01*
X109756428Y-129803809D01*
X109756428Y-129676190D01*
X109792142Y-129612380D01*
X109827857Y-129580476D01*
X109899285Y-129548571D01*
X99392142Y-131526666D02*
X99356428Y-131558571D01*
X99320714Y-131654285D01*
X99320714Y-131718095D01*
X99356428Y-131813809D01*
X99427857Y-131877619D01*
X99499285Y-131909523D01*
X99642142Y-131941428D01*
X99749285Y-131941428D01*
X99892142Y-131909523D01*
X99963571Y-131877619D01*
X100035000Y-131813809D01*
X100070714Y-131718095D01*
X100070714Y-131654285D01*
X100035000Y-131558571D01*
X99999285Y-131526666D01*
X100070714Y-130952380D02*
X100070714Y-131080000D01*
X100035000Y-131143809D01*
X99999285Y-131175714D01*
X99892142Y-131239523D01*
X99749285Y-131271428D01*
X99463571Y-131271428D01*
X99392142Y-131239523D01*
X99356428Y-131207619D01*
X99320714Y-131143809D01*
X99320714Y-131016190D01*
X99356428Y-130952380D01*
X99392142Y-130920476D01*
X99463571Y-130888571D01*
X99642142Y-130888571D01*
X99713571Y-130920476D01*
X99749285Y-130952380D01*
X99785000Y-131016190D01*
X99785000Y-131143809D01*
X99749285Y-131207619D01*
X99713571Y-131239523D01*
X99642142Y-131271428D01*
X100106428Y-130122857D02*
X99142142Y-130697142D01*
X100070714Y-129580476D02*
X100070714Y-129899523D01*
X99713571Y-129931428D01*
X99749285Y-129899523D01*
X99785000Y-129835714D01*
X99785000Y-129676190D01*
X99749285Y-129612380D01*
X99713571Y-129580476D01*
X99642142Y-129548571D01*
X99463571Y-129548571D01*
X99392142Y-129580476D01*
X99356428Y-129612380D01*
X99320714Y-129676190D01*
X99320714Y-129835714D01*
X99356428Y-129899523D01*
X99392142Y-129931428D01*
X94406428Y-132117619D02*
X94370714Y-132021904D01*
X94370714Y-131862380D01*
X94406428Y-131798571D01*
X94442142Y-131766666D01*
X94513571Y-131734761D01*
X94585000Y-131734761D01*
X94656428Y-131766666D01*
X94692142Y-131798571D01*
X94727857Y-131862380D01*
X94763571Y-131990000D01*
X94799285Y-132053809D01*
X94835000Y-132085714D01*
X94906428Y-132117619D01*
X94977857Y-132117619D01*
X95049285Y-132085714D01*
X95085000Y-132053809D01*
X95120714Y-131990000D01*
X95120714Y-131830476D01*
X95085000Y-131734761D01*
X94442142Y-131064761D02*
X94406428Y-131096666D01*
X94370714Y-131192380D01*
X94370714Y-131256190D01*
X94406428Y-131351904D01*
X94477857Y-131415714D01*
X94549285Y-131447619D01*
X94692142Y-131479523D01*
X94799285Y-131479523D01*
X94942142Y-131447619D01*
X95013571Y-131415714D01*
X95085000Y-131351904D01*
X95120714Y-131256190D01*
X95120714Y-131192380D01*
X95085000Y-131096666D01*
X95049285Y-131064761D01*
X94370714Y-130458571D02*
X94370714Y-130777619D01*
X95120714Y-130777619D01*
X95156428Y-129756666D02*
X94192142Y-130330952D01*
X94370714Y-129533333D02*
X95120714Y-129533333D01*
X95120714Y-129373809D01*
X95085000Y-129278095D01*
X95013571Y-129214285D01*
X94942142Y-129182380D01*
X94799285Y-129150476D01*
X94692142Y-129150476D01*
X94549285Y-129182380D01*
X94477857Y-129214285D01*
X94406428Y-129278095D01*
X94370714Y-129373809D01*
X94370714Y-129533333D01*
X95120714Y-128735714D02*
X95120714Y-128671904D01*
X95085000Y-128608095D01*
X95049285Y-128576190D01*
X94977857Y-128544285D01*
X94835000Y-128512380D01*
X94656428Y-128512380D01*
X94513571Y-128544285D01*
X94442142Y-128576190D01*
X94406428Y-128608095D01*
X94370714Y-128671904D01*
X94370714Y-128735714D01*
X94406428Y-128799523D01*
X94442142Y-128831428D01*
X94513571Y-128863333D01*
X94656428Y-128895238D01*
X94835000Y-128895238D01*
X94977857Y-128863333D01*
X95049285Y-128831428D01*
X95085000Y-128799523D01*
X95120714Y-128735714D01*
X95156428Y-127746666D02*
X94192142Y-128320952D01*
X95120714Y-127587142D02*
X95120714Y-127172380D01*
X94835000Y-127395714D01*
X94835000Y-127300000D01*
X94799285Y-127236190D01*
X94763571Y-127204285D01*
X94692142Y-127172380D01*
X94513571Y-127172380D01*
X94442142Y-127204285D01*
X94406428Y-127236190D01*
X94370714Y-127300000D01*
X94370714Y-127491428D01*
X94406428Y-127555238D01*
X94442142Y-127587142D01*
X91906428Y-132133571D02*
X91870714Y-132037857D01*
X91870714Y-131878333D01*
X91906428Y-131814523D01*
X91942142Y-131782619D01*
X92013571Y-131750714D01*
X92085000Y-131750714D01*
X92156428Y-131782619D01*
X92192142Y-131814523D01*
X92227857Y-131878333D01*
X92263571Y-132005952D01*
X92299285Y-132069761D01*
X92335000Y-132101666D01*
X92406428Y-132133571D01*
X92477857Y-132133571D01*
X92549285Y-132101666D01*
X92585000Y-132069761D01*
X92620714Y-132005952D01*
X92620714Y-131846428D01*
X92585000Y-131750714D01*
X91870714Y-131463571D02*
X92620714Y-131463571D01*
X92620714Y-131304047D01*
X92585000Y-131208333D01*
X92513571Y-131144523D01*
X92442142Y-131112619D01*
X92299285Y-131080714D01*
X92192142Y-131080714D01*
X92049285Y-131112619D01*
X91977857Y-131144523D01*
X91906428Y-131208333D01*
X91870714Y-131304047D01*
X91870714Y-131463571D01*
X92085000Y-130825476D02*
X92085000Y-130506428D01*
X91870714Y-130889285D02*
X92620714Y-130665952D01*
X91870714Y-130442619D01*
X92656428Y-129740714D02*
X91692142Y-130315000D01*
X91870714Y-129517380D02*
X92620714Y-129517380D01*
X92620714Y-129357857D01*
X92585000Y-129262142D01*
X92513571Y-129198333D01*
X92442142Y-129166428D01*
X92299285Y-129134523D01*
X92192142Y-129134523D01*
X92049285Y-129166428D01*
X91977857Y-129198333D01*
X91906428Y-129262142D01*
X91870714Y-129357857D01*
X91870714Y-129517380D01*
X91870714Y-128496428D02*
X91870714Y-128879285D01*
X91870714Y-128687857D02*
X92620714Y-128687857D01*
X92513571Y-128751666D01*
X92442142Y-128815476D01*
X92406428Y-128879285D01*
X92656428Y-127730714D02*
X91692142Y-128305000D01*
X92549285Y-127539285D02*
X92585000Y-127507380D01*
X92620714Y-127443571D01*
X92620714Y-127284047D01*
X92585000Y-127220238D01*
X92549285Y-127188333D01*
X92477857Y-127156428D01*
X92406428Y-127156428D01*
X92299285Y-127188333D01*
X91870714Y-127571190D01*
X91870714Y-127156428D01*
X96770714Y-131909523D02*
X97520714Y-131909523D01*
X97520714Y-131750000D01*
X97485000Y-131654285D01*
X97413571Y-131590476D01*
X97342142Y-131558571D01*
X97199285Y-131526666D01*
X97092142Y-131526666D01*
X96949285Y-131558571D01*
X96877857Y-131590476D01*
X96806428Y-131654285D01*
X96770714Y-131750000D01*
X96770714Y-131909523D01*
X97270714Y-130952380D02*
X96770714Y-130952380D01*
X97556428Y-131111904D02*
X97020714Y-131271428D01*
X97020714Y-130856666D01*
X97556428Y-130122857D02*
X96592142Y-130697142D01*
X97270714Y-129612380D02*
X96770714Y-129612380D01*
X97556428Y-129771904D02*
X97020714Y-129931428D01*
X97020714Y-129516666D01*
X81620714Y-132133809D02*
X82370714Y-132133809D01*
X82370714Y-131974285D01*
X82335000Y-131878571D01*
X82263571Y-131814761D01*
X82192142Y-131782857D01*
X82049285Y-131750952D01*
X81942142Y-131750952D01*
X81799285Y-131782857D01*
X81727857Y-131814761D01*
X81656428Y-131878571D01*
X81620714Y-131974285D01*
X81620714Y-132133809D01*
X82370714Y-131527619D02*
X82370714Y-131112857D01*
X82085000Y-131336190D01*
X82085000Y-131240476D01*
X82049285Y-131176666D01*
X82013571Y-131144761D01*
X81942142Y-131112857D01*
X81763571Y-131112857D01*
X81692142Y-131144761D01*
X81656428Y-131176666D01*
X81620714Y-131240476D01*
X81620714Y-131431904D01*
X81656428Y-131495714D01*
X81692142Y-131527619D01*
X82406428Y-130347142D02*
X81442142Y-130921428D01*
X82370714Y-130219523D02*
X82370714Y-129836666D01*
X81620714Y-130028095D02*
X82370714Y-130028095D01*
X82370714Y-129677142D02*
X81620714Y-129230476D01*
X82370714Y-129230476D02*
X81620714Y-129677142D01*
X82370714Y-128847619D02*
X82370714Y-128783809D01*
X82335000Y-128720000D01*
X82299285Y-128688095D01*
X82227857Y-128656190D01*
X82085000Y-128624285D01*
X81906428Y-128624285D01*
X81763571Y-128656190D01*
X81692142Y-128688095D01*
X81656428Y-128720000D01*
X81620714Y-128783809D01*
X81620714Y-128847619D01*
X81656428Y-128911428D01*
X81692142Y-128943333D01*
X81763571Y-128975238D01*
X81906428Y-129007142D01*
X82085000Y-129007142D01*
X82227857Y-128975238D01*
X82299285Y-128943333D01*
X82335000Y-128911428D01*
X82370714Y-128847619D01*
X89935000Y-131755476D02*
X89970714Y-131819285D01*
X89970714Y-131915000D01*
X89935000Y-132010714D01*
X89863571Y-132074523D01*
X89792142Y-132106428D01*
X89649285Y-132138333D01*
X89542142Y-132138333D01*
X89399285Y-132106428D01*
X89327857Y-132074523D01*
X89256428Y-132010714D01*
X89220714Y-131915000D01*
X89220714Y-131851190D01*
X89256428Y-131755476D01*
X89292142Y-131723571D01*
X89542142Y-131723571D01*
X89542142Y-131851190D01*
X89220714Y-131436428D02*
X89970714Y-131436428D01*
X89220714Y-131053571D01*
X89970714Y-131053571D01*
X89220714Y-130734523D02*
X89970714Y-130734523D01*
X89970714Y-130575000D01*
X89935000Y-130479285D01*
X89863571Y-130415476D01*
X89792142Y-130383571D01*
X89649285Y-130351666D01*
X89542142Y-130351666D01*
X89399285Y-130383571D01*
X89327857Y-130415476D01*
X89256428Y-130479285D01*
X89220714Y-130575000D01*
X89220714Y-130734523D01*
X87485000Y-131755476D02*
X87520714Y-131819285D01*
X87520714Y-131915000D01*
X87485000Y-132010714D01*
X87413571Y-132074523D01*
X87342142Y-132106428D01*
X87199285Y-132138333D01*
X87092142Y-132138333D01*
X86949285Y-132106428D01*
X86877857Y-132074523D01*
X86806428Y-132010714D01*
X86770714Y-131915000D01*
X86770714Y-131851190D01*
X86806428Y-131755476D01*
X86842142Y-131723571D01*
X87092142Y-131723571D01*
X87092142Y-131851190D01*
X86770714Y-131436428D02*
X87520714Y-131436428D01*
X86770714Y-131053571D01*
X87520714Y-131053571D01*
X86770714Y-130734523D02*
X87520714Y-130734523D01*
X87520714Y-130575000D01*
X87485000Y-130479285D01*
X87413571Y-130415476D01*
X87342142Y-130383571D01*
X87199285Y-130351666D01*
X87092142Y-130351666D01*
X86949285Y-130383571D01*
X86877857Y-130415476D01*
X86806428Y-130479285D01*
X86770714Y-130575000D01*
X86770714Y-130734523D01*
X101870714Y-131909523D02*
X102620714Y-131909523D01*
X102620714Y-131750000D01*
X102585000Y-131654285D01*
X102513571Y-131590476D01*
X102442142Y-131558571D01*
X102299285Y-131526666D01*
X102192142Y-131526666D01*
X102049285Y-131558571D01*
X101977857Y-131590476D01*
X101906428Y-131654285D01*
X101870714Y-131750000D01*
X101870714Y-131909523D01*
X102620714Y-131303333D02*
X102620714Y-130856666D01*
X101870714Y-131143809D01*
X102656428Y-130122857D02*
X101692142Y-130697142D01*
X102620714Y-129612380D02*
X102620714Y-129740000D01*
X102585000Y-129803809D01*
X102549285Y-129835714D01*
X102442142Y-129899523D01*
X102299285Y-129931428D01*
X102013571Y-129931428D01*
X101942142Y-129899523D01*
X101906428Y-129867619D01*
X101870714Y-129803809D01*
X101870714Y-129676190D01*
X101906428Y-129612380D01*
X101942142Y-129580476D01*
X102013571Y-129548571D01*
X102192142Y-129548571D01*
X102263571Y-129580476D01*
X102299285Y-129612380D01*
X102335000Y-129676190D01*
X102335000Y-129803809D01*
X102299285Y-129867619D01*
X102263571Y-129899523D01*
X102192142Y-129931428D01*
X104813571Y-131877619D02*
X104813571Y-131654285D01*
X104420714Y-131558571D02*
X104420714Y-131877619D01*
X105170714Y-131877619D01*
X105170714Y-131558571D01*
X105170714Y-130984285D02*
X105170714Y-131111904D01*
X105135000Y-131175714D01*
X105099285Y-131207619D01*
X104992142Y-131271428D01*
X104849285Y-131303333D01*
X104563571Y-131303333D01*
X104492142Y-131271428D01*
X104456428Y-131239523D01*
X104420714Y-131175714D01*
X104420714Y-131048095D01*
X104456428Y-130984285D01*
X104492142Y-130952380D01*
X104563571Y-130920476D01*
X104742142Y-130920476D01*
X104813571Y-130952380D01*
X104849285Y-130984285D01*
X104885000Y-131048095D01*
X104885000Y-131175714D01*
X104849285Y-131239523D01*
X104813571Y-131271428D01*
X104742142Y-131303333D01*
X105206428Y-130154761D02*
X104242142Y-130729047D01*
X105170714Y-129995238D02*
X105170714Y-129548571D01*
X104420714Y-129835714D01*
X107070714Y-123022619D02*
X107070714Y-123405476D01*
X107070714Y-123214047D02*
X107820714Y-123214047D01*
X107713571Y-123277857D01*
X107642142Y-123341666D01*
X107606428Y-123405476D01*
X107820714Y-122448333D02*
X107820714Y-122575952D01*
X107785000Y-122639761D01*
X107749285Y-122671666D01*
X107642142Y-122735476D01*
X107499285Y-122767380D01*
X107213571Y-122767380D01*
X107142142Y-122735476D01*
X107106428Y-122703571D01*
X107070714Y-122639761D01*
X107070714Y-122512142D01*
X107106428Y-122448333D01*
X107142142Y-122416428D01*
X107213571Y-122384523D01*
X107392142Y-122384523D01*
X107463571Y-122416428D01*
X107499285Y-122448333D01*
X107535000Y-122512142D01*
X107535000Y-122639761D01*
X107499285Y-122703571D01*
X107463571Y-122735476D01*
X107392142Y-122767380D01*
X107856428Y-121618809D02*
X106892142Y-122193095D01*
X107463571Y-121172142D02*
X107427857Y-121076428D01*
X107392142Y-121044523D01*
X107320714Y-121012619D01*
X107213571Y-121012619D01*
X107142142Y-121044523D01*
X107106428Y-121076428D01*
X107070714Y-121140238D01*
X107070714Y-121395476D01*
X107820714Y-121395476D01*
X107820714Y-121172142D01*
X107785000Y-121108333D01*
X107749285Y-121076428D01*
X107677857Y-121044523D01*
X107606428Y-121044523D01*
X107535000Y-121076428D01*
X107499285Y-121108333D01*
X107463571Y-121172142D01*
X107463571Y-121395476D01*
X107749285Y-120757380D02*
X107785000Y-120725476D01*
X107820714Y-120661666D01*
X107820714Y-120502142D01*
X107785000Y-120438333D01*
X107749285Y-120406428D01*
X107677857Y-120374523D01*
X107606428Y-120374523D01*
X107499285Y-120406428D01*
X107070714Y-120789285D01*
X107070714Y-120374523D01*
X109520714Y-123022619D02*
X109520714Y-123405476D01*
X109520714Y-123214047D02*
X110270714Y-123214047D01*
X110163571Y-123277857D01*
X110092142Y-123341666D01*
X110056428Y-123405476D01*
X110270714Y-122607857D02*
X110270714Y-122544047D01*
X110235000Y-122480238D01*
X110199285Y-122448333D01*
X110127857Y-122416428D01*
X109985000Y-122384523D01*
X109806428Y-122384523D01*
X109663571Y-122416428D01*
X109592142Y-122448333D01*
X109556428Y-122480238D01*
X109520714Y-122544047D01*
X109520714Y-122607857D01*
X109556428Y-122671666D01*
X109592142Y-122703571D01*
X109663571Y-122735476D01*
X109806428Y-122767380D01*
X109985000Y-122767380D01*
X110127857Y-122735476D01*
X110199285Y-122703571D01*
X110235000Y-122671666D01*
X110270714Y-122607857D01*
X110306428Y-121618809D02*
X109342142Y-122193095D01*
X109913571Y-121172142D02*
X109877857Y-121076428D01*
X109842142Y-121044523D01*
X109770714Y-121012619D01*
X109663571Y-121012619D01*
X109592142Y-121044523D01*
X109556428Y-121076428D01*
X109520714Y-121140238D01*
X109520714Y-121395476D01*
X110270714Y-121395476D01*
X110270714Y-121172142D01*
X110235000Y-121108333D01*
X110199285Y-121076428D01*
X110127857Y-121044523D01*
X110056428Y-121044523D01*
X109985000Y-121076428D01*
X109949285Y-121108333D01*
X109913571Y-121172142D01*
X109913571Y-121395476D01*
X110270714Y-120438333D02*
X110270714Y-120565952D01*
X110235000Y-120629761D01*
X110199285Y-120661666D01*
X110092142Y-120725476D01*
X109949285Y-120757380D01*
X109663571Y-120757380D01*
X109592142Y-120725476D01*
X109556428Y-120693571D01*
X109520714Y-120629761D01*
X109520714Y-120502142D01*
X109556428Y-120438333D01*
X109592142Y-120406428D01*
X109663571Y-120374523D01*
X109842142Y-120374523D01*
X109913571Y-120406428D01*
X109949285Y-120438333D01*
X109985000Y-120502142D01*
X109985000Y-120629761D01*
X109949285Y-120693571D01*
X109913571Y-120725476D01*
X109842142Y-120757380D01*
X104470714Y-123177619D02*
X104470714Y-123560476D01*
X104470714Y-123369047D02*
X105220714Y-123369047D01*
X105113571Y-123432857D01*
X105042142Y-123496666D01*
X105006428Y-123560476D01*
X104970714Y-122603333D02*
X104470714Y-122603333D01*
X105256428Y-122762857D02*
X104720714Y-122922380D01*
X104720714Y-122507619D01*
X105256428Y-121773809D02*
X104292142Y-122348095D01*
X104863571Y-121327142D02*
X104827857Y-121231428D01*
X104792142Y-121199523D01*
X104720714Y-121167619D01*
X104613571Y-121167619D01*
X104542142Y-121199523D01*
X104506428Y-121231428D01*
X104470714Y-121295238D01*
X104470714Y-121550476D01*
X105220714Y-121550476D01*
X105220714Y-121327142D01*
X105185000Y-121263333D01*
X105149285Y-121231428D01*
X105077857Y-121199523D01*
X105006428Y-121199523D01*
X104935000Y-121231428D01*
X104899285Y-121263333D01*
X104863571Y-121327142D01*
X104863571Y-121550476D01*
X105220714Y-120944285D02*
X105220714Y-120529523D01*
X104935000Y-120752857D01*
X104935000Y-120657142D01*
X104899285Y-120593333D01*
X104863571Y-120561428D01*
X104792142Y-120529523D01*
X104613571Y-120529523D01*
X104542142Y-120561428D01*
X104506428Y-120593333D01*
X104470714Y-120657142D01*
X104470714Y-120848571D01*
X104506428Y-120912380D01*
X104542142Y-120944285D01*
X101920714Y-123177619D02*
X101920714Y-123560476D01*
X101920714Y-123369047D02*
X102670714Y-123369047D01*
X102563571Y-123432857D01*
X102492142Y-123496666D01*
X102456428Y-123560476D01*
X102670714Y-122571428D02*
X102670714Y-122890476D01*
X102313571Y-122922380D01*
X102349285Y-122890476D01*
X102385000Y-122826666D01*
X102385000Y-122667142D01*
X102349285Y-122603333D01*
X102313571Y-122571428D01*
X102242142Y-122539523D01*
X102063571Y-122539523D01*
X101992142Y-122571428D01*
X101956428Y-122603333D01*
X101920714Y-122667142D01*
X101920714Y-122826666D01*
X101956428Y-122890476D01*
X101992142Y-122922380D01*
X102706428Y-121773809D02*
X101742142Y-122348095D01*
X102313571Y-121327142D02*
X102277857Y-121231428D01*
X102242142Y-121199523D01*
X102170714Y-121167619D01*
X102063571Y-121167619D01*
X101992142Y-121199523D01*
X101956428Y-121231428D01*
X101920714Y-121295238D01*
X101920714Y-121550476D01*
X102670714Y-121550476D01*
X102670714Y-121327142D01*
X102635000Y-121263333D01*
X102599285Y-121231428D01*
X102527857Y-121199523D01*
X102456428Y-121199523D01*
X102385000Y-121231428D01*
X102349285Y-121263333D01*
X102313571Y-121327142D01*
X102313571Y-121550476D01*
X101920714Y-120529523D02*
X101920714Y-120912380D01*
X101920714Y-120720952D02*
X102670714Y-120720952D01*
X102563571Y-120784761D01*
X102492142Y-120848571D01*
X102456428Y-120912380D01*
X99585000Y-123480714D02*
X99585000Y-123161666D01*
X99370714Y-123544523D02*
X100120714Y-123321190D01*
X99370714Y-123097857D01*
X100120714Y-122746904D02*
X100120714Y-122683095D01*
X100085000Y-122619285D01*
X100049285Y-122587380D01*
X99977857Y-122555476D01*
X99835000Y-122523571D01*
X99656428Y-122523571D01*
X99513571Y-122555476D01*
X99442142Y-122587380D01*
X99406428Y-122619285D01*
X99370714Y-122683095D01*
X99370714Y-122746904D01*
X99406428Y-122810714D01*
X99442142Y-122842619D01*
X99513571Y-122874523D01*
X99656428Y-122906428D01*
X99835000Y-122906428D01*
X99977857Y-122874523D01*
X100049285Y-122842619D01*
X100085000Y-122810714D01*
X100120714Y-122746904D01*
X100156428Y-121757857D02*
X99192142Y-122332142D01*
X99763571Y-121311190D02*
X99763571Y-121534523D01*
X99370714Y-121534523D02*
X100120714Y-121534523D01*
X100120714Y-121215476D01*
X100120714Y-121024047D02*
X100120714Y-120577380D01*
X99370714Y-120864523D01*
X97035000Y-123480714D02*
X97035000Y-123161666D01*
X96820714Y-123544523D02*
X97570714Y-123321190D01*
X96820714Y-123097857D01*
X96820714Y-122523571D02*
X96820714Y-122906428D01*
X96820714Y-122715000D02*
X97570714Y-122715000D01*
X97463571Y-122778809D01*
X97392142Y-122842619D01*
X97356428Y-122906428D01*
X97606428Y-121757857D02*
X96642142Y-122332142D01*
X97213571Y-121311190D02*
X97213571Y-121534523D01*
X96820714Y-121534523D02*
X97570714Y-121534523D01*
X97570714Y-121215476D01*
X97570714Y-120673095D02*
X97570714Y-120800714D01*
X97535000Y-120864523D01*
X97499285Y-120896428D01*
X97392142Y-120960238D01*
X97249285Y-120992142D01*
X96963571Y-120992142D01*
X96892142Y-120960238D01*
X96856428Y-120928333D01*
X96820714Y-120864523D01*
X96820714Y-120736904D01*
X96856428Y-120673095D01*
X96892142Y-120641190D01*
X96963571Y-120609285D01*
X97142142Y-120609285D01*
X97213571Y-120641190D01*
X97249285Y-120673095D01*
X97285000Y-120736904D01*
X97285000Y-120864523D01*
X97249285Y-120928333D01*
X97213571Y-120960238D01*
X97142142Y-120992142D01*
X94535000Y-123480714D02*
X94535000Y-123161666D01*
X94320714Y-123544523D02*
X95070714Y-123321190D01*
X94320714Y-123097857D01*
X94999285Y-122906428D02*
X95035000Y-122874523D01*
X95070714Y-122810714D01*
X95070714Y-122651190D01*
X95035000Y-122587380D01*
X94999285Y-122555476D01*
X94927857Y-122523571D01*
X94856428Y-122523571D01*
X94749285Y-122555476D01*
X94320714Y-122938333D01*
X94320714Y-122523571D01*
X95106428Y-121757857D02*
X94142142Y-122332142D01*
X94713571Y-121311190D02*
X94713571Y-121534523D01*
X94320714Y-121534523D02*
X95070714Y-121534523D01*
X95070714Y-121215476D01*
X95070714Y-120641190D02*
X95070714Y-120960238D01*
X94713571Y-120992142D01*
X94749285Y-120960238D01*
X94785000Y-120896428D01*
X94785000Y-120736904D01*
X94749285Y-120673095D01*
X94713571Y-120641190D01*
X94642142Y-120609285D01*
X94463571Y-120609285D01*
X94392142Y-120641190D01*
X94356428Y-120673095D01*
X94320714Y-120736904D01*
X94320714Y-120896428D01*
X94356428Y-120960238D01*
X94392142Y-120992142D01*
X92035000Y-123480714D02*
X92035000Y-123161666D01*
X91820714Y-123544523D02*
X92570714Y-123321190D01*
X91820714Y-123097857D01*
X92570714Y-122938333D02*
X92570714Y-122523571D01*
X92285000Y-122746904D01*
X92285000Y-122651190D01*
X92249285Y-122587380D01*
X92213571Y-122555476D01*
X92142142Y-122523571D01*
X91963571Y-122523571D01*
X91892142Y-122555476D01*
X91856428Y-122587380D01*
X91820714Y-122651190D01*
X91820714Y-122842619D01*
X91856428Y-122906428D01*
X91892142Y-122938333D01*
X92606428Y-121757857D02*
X91642142Y-122332142D01*
X92213571Y-121311190D02*
X92213571Y-121534523D01*
X91820714Y-121534523D02*
X92570714Y-121534523D01*
X92570714Y-121215476D01*
X92320714Y-120673095D02*
X91820714Y-120673095D01*
X92606428Y-120832619D02*
X92070714Y-120992142D01*
X92070714Y-120577380D01*
X89870714Y-122288333D02*
X89120714Y-122065000D01*
X89870714Y-121841666D01*
X89192142Y-121235476D02*
X89156428Y-121267380D01*
X89120714Y-121363095D01*
X89120714Y-121426904D01*
X89156428Y-121522619D01*
X89227857Y-121586428D01*
X89299285Y-121618333D01*
X89442142Y-121650238D01*
X89549285Y-121650238D01*
X89692142Y-121618333D01*
X89763571Y-121586428D01*
X89835000Y-121522619D01*
X89870714Y-121426904D01*
X89870714Y-121363095D01*
X89835000Y-121267380D01*
X89799285Y-121235476D01*
X89192142Y-120565476D02*
X89156428Y-120597380D01*
X89120714Y-120693095D01*
X89120714Y-120756904D01*
X89156428Y-120852619D01*
X89227857Y-120916428D01*
X89299285Y-120948333D01*
X89442142Y-120980238D01*
X89549285Y-120980238D01*
X89692142Y-120948333D01*
X89763571Y-120916428D01*
X89835000Y-120852619D01*
X89870714Y-120756904D01*
X89870714Y-120693095D01*
X89835000Y-120597380D01*
X89799285Y-120565476D01*
X86670714Y-121761904D02*
X87027857Y-121985238D01*
X86670714Y-122144761D02*
X87420714Y-122144761D01*
X87420714Y-121889523D01*
X87385000Y-121825714D01*
X87349285Y-121793809D01*
X87277857Y-121761904D01*
X87170714Y-121761904D01*
X87099285Y-121793809D01*
X87063571Y-121825714D01*
X87027857Y-121889523D01*
X87027857Y-122144761D01*
X86706428Y-121506666D02*
X86670714Y-121410952D01*
X86670714Y-121251428D01*
X86706428Y-121187619D01*
X86742142Y-121155714D01*
X86813571Y-121123809D01*
X86885000Y-121123809D01*
X86956428Y-121155714D01*
X86992142Y-121187619D01*
X87027857Y-121251428D01*
X87063571Y-121379047D01*
X87099285Y-121442857D01*
X87135000Y-121474761D01*
X87206428Y-121506666D01*
X87277857Y-121506666D01*
X87349285Y-121474761D01*
X87385000Y-121442857D01*
X87420714Y-121379047D01*
X87420714Y-121219523D01*
X87385000Y-121123809D01*
X87420714Y-120932380D02*
X87420714Y-120549523D01*
X86670714Y-120740952D02*
X87420714Y-120740952D01*
X84835000Y-121905476D02*
X84870714Y-121969285D01*
X84870714Y-122065000D01*
X84835000Y-122160714D01*
X84763571Y-122224523D01*
X84692142Y-122256428D01*
X84549285Y-122288333D01*
X84442142Y-122288333D01*
X84299285Y-122256428D01*
X84227857Y-122224523D01*
X84156428Y-122160714D01*
X84120714Y-122065000D01*
X84120714Y-122001190D01*
X84156428Y-121905476D01*
X84192142Y-121873571D01*
X84442142Y-121873571D01*
X84442142Y-122001190D01*
X84120714Y-121586428D02*
X84870714Y-121586428D01*
X84120714Y-121203571D01*
X84870714Y-121203571D01*
X84120714Y-120884523D02*
X84870714Y-120884523D01*
X84870714Y-120725000D01*
X84835000Y-120629285D01*
X84763571Y-120565476D01*
X84692142Y-120533571D01*
X84549285Y-120501666D01*
X84442142Y-120501666D01*
X84299285Y-120533571D01*
X84227857Y-120565476D01*
X84156428Y-120629285D01*
X84120714Y-120725000D01*
X84120714Y-120884523D01*
X81570714Y-121857619D02*
X81927857Y-122080952D01*
X81570714Y-122240476D02*
X82320714Y-122240476D01*
X82320714Y-121985238D01*
X82285000Y-121921428D01*
X82249285Y-121889523D01*
X82177857Y-121857619D01*
X82070714Y-121857619D01*
X81999285Y-121889523D01*
X81963571Y-121921428D01*
X81927857Y-121985238D01*
X81927857Y-122240476D01*
X81785000Y-121602380D02*
X81785000Y-121283333D01*
X81570714Y-121666190D02*
X82320714Y-121442857D01*
X81570714Y-121219523D01*
X82320714Y-121060000D02*
X81570714Y-120900476D01*
X82106428Y-120772857D01*
X81570714Y-120645238D01*
X82320714Y-120485714D01*
%TO.C,SW1*%
D11*
X83362380Y-138042380D02*
X83695714Y-137566190D01*
X83933809Y-138042380D02*
X83933809Y-137042380D01*
X83552857Y-137042380D01*
X83457619Y-137090000D01*
X83410000Y-137137619D01*
X83362380Y-137232857D01*
X83362380Y-137375714D01*
X83410000Y-137470952D01*
X83457619Y-137518571D01*
X83552857Y-137566190D01*
X83933809Y-137566190D01*
X82933809Y-137518571D02*
X82600476Y-137518571D01*
X82457619Y-138042380D02*
X82933809Y-138042380D01*
X82933809Y-137042380D01*
X82457619Y-137042380D01*
X82076666Y-137994761D02*
X81933809Y-138042380D01*
X81695714Y-138042380D01*
X81600476Y-137994761D01*
X81552857Y-137947142D01*
X81505238Y-137851904D01*
X81505238Y-137756666D01*
X81552857Y-137661428D01*
X81600476Y-137613809D01*
X81695714Y-137566190D01*
X81886190Y-137518571D01*
X81981428Y-137470952D01*
X82029047Y-137423333D01*
X82076666Y-137328095D01*
X82076666Y-137232857D01*
X82029047Y-137137619D01*
X81981428Y-137090000D01*
X81886190Y-137042380D01*
X81648095Y-137042380D01*
X81505238Y-137090000D01*
X81076666Y-137518571D02*
X80743333Y-137518571D01*
X80600476Y-138042380D02*
X81076666Y-138042380D01*
X81076666Y-137042380D01*
X80600476Y-137042380D01*
X80314761Y-137042380D02*
X79743333Y-137042380D01*
X80029047Y-138042380D02*
X80029047Y-137042380D01*
%TD*%
M02*
