M48
; DRILL file {KiCad (5.1.9-0-10_14)} date Friday, May 28, 2021 at 08:21:27 PM
; FORMAT={-:-/ absolute / inch / decimal}
; #@! TF.CreationDate,2021-05-28T20:21:27+09:00
; #@! TF.GenerationSoftware,Kicad,Pcbnew,(5.1.9-0-10_14)
; #@! TF.FileFunction,NonPlated,1,2,NPTH
FMAT,2
INCH
T1C0.0748
T2C0.1181
T3C0.1693
T4C0.1969
%
G90
G05
T1
X3.4386Y-4.203
X3.8401Y-4.0407
X4.2516Y-3.7469
X4.6846Y-3.7469
X5.0016Y-3.7469
X5.4346Y-3.7469
X5.8052Y-4.9772
X5.8339Y-3.9042
X6.235Y-5.0299
X6.2598Y-3.9832
T2
X3.5524Y-3.9065
X3.7673Y-3.913
X4.4681Y-3.5146
X4.665Y-3.6012
X5.2181Y-3.5146
X5.415Y-3.6012
X6.0484Y-4.773
X6.0892Y-3.7153
X6.2332Y-4.8829
X6.267Y-3.8363
T3
X3.1461Y-3.4681
X3.1461Y-4.4327
X4.6618Y-5.2594
X6.4925Y-3.4681
X6.4925Y-5.3972
T4
X3.6394Y-4.1219
X4.4681Y-3.7469
X5.2181Y-3.7469
X6.0201Y-5.0035
X6.0469Y-3.9437
T0
M30
