%TF.GenerationSoftware,KiCad,Pcbnew,(5.1.9-0-10_14)*%
%TF.CreationDate,2021-05-28T20:21:16+09:00*%
%TF.ProjectId,quali5,7175616c-6935-42e6-9b69-6361645f7063,rev?*%
%TF.SameCoordinates,Original*%
%TF.FileFunction,Soldermask,Top*%
%TF.FilePolarity,Negative*%
%FSLAX46Y46*%
G04 Gerber Fmt 4.6, Leading zero omitted, Abs format (unit mm)*
G04 Created by KiCad (PCBNEW (5.1.9-0-10_14)) date 2021-05-28 20:21:16*
%MOMM*%
%LPD*%
G01*
G04 APERTURE LIST*
%ADD10R,1.400000X1.000000*%
%ADD11C,4.300000*%
%ADD12C,3.000000*%
%ADD13C,0.100000*%
%ADD14C,1.397000*%
G04 APERTURE END LIST*
D10*
%TO.C,D3*%
X130765000Y-104060000D03*
X134315000Y-104060000D03*
%TD*%
D11*
%TO.C,Ref\u002A\u002A*%
X118410000Y-133590000D03*
%TD*%
%TO.C,Ref\u002A\u002A*%
X164910000Y-137090000D03*
%TD*%
%TO.C,Ref\u002A\u002A*%
X164910000Y-88090000D03*
%TD*%
%TO.C,Ref\u002A\u002A*%
X79910000Y-112590000D03*
%TD*%
%TO.C,Ref\u002A\u002A*%
X79910000Y-88090000D03*
%TD*%
D12*
%TO.C,SW2*%
X90229821Y-99224615D03*
X95689875Y-99391387D03*
%TD*%
%TO.C,SW6*%
X153629029Y-121233978D03*
X158323647Y-124026926D03*
%TD*%
%TO.C,SW3*%
X118490000Y-91470000D03*
X113490000Y-89270000D03*
%TD*%
D13*
%TO.C,D1*%
G36*
X96894026Y-113010890D02*
G01*
X96519419Y-112083706D01*
X97817476Y-111559256D01*
X98192083Y-112486440D01*
X96894026Y-113010890D01*
G37*
G36*
X93602524Y-114340744D02*
G01*
X93227917Y-113413560D01*
X94525974Y-112889110D01*
X94900581Y-113816294D01*
X93602524Y-114340744D01*
G37*
%TD*%
D10*
%TO.C,D2*%
X110905000Y-104060000D03*
X114455000Y-104060000D03*
%TD*%
D13*
%TO.C,D4*%
G36*
X153033690Y-109632891D02*
G01*
X153155559Y-108640344D01*
X154545124Y-108810961D01*
X154423255Y-109803508D01*
X153033690Y-109632891D01*
G37*
G36*
X149510152Y-109200255D02*
G01*
X149632021Y-108207708D01*
X151021586Y-108378325D01*
X150899717Y-109370872D01*
X149510152Y-109200255D01*
G37*
%TD*%
%TO.C,D5*%
G36*
X152596052Y-136217283D02*
G01*
X152717921Y-135224736D01*
X154107486Y-135395353D01*
X153985617Y-136387900D01*
X152596052Y-136217283D01*
G37*
G36*
X149072514Y-135784647D02*
G01*
X149194383Y-134792100D01*
X150583948Y-134962717D01*
X150462079Y-135955264D01*
X149072514Y-135784647D01*
G37*
%TD*%
D14*
%TO.C,OL1*%
X113210000Y-137090000D03*
X113210000Y-134550000D03*
X113210000Y-132010000D03*
X113210000Y-129470000D03*
%TD*%
D12*
%TO.C,SW4*%
X132540000Y-89270000D03*
X137540000Y-91470000D03*
%TD*%
%TO.C,SW5*%
X159180546Y-97443134D03*
X154665190Y-94368796D03*
%TD*%
M02*
