%TF.GenerationSoftware,KiCad,Pcbnew,(5.1.9-0-10_14)*%
%TF.CreationDate,2021-05-28T20:21:16+09:00*%
%TF.ProjectId,quali5,7175616c-6935-42e6-9b69-6361645f7063,rev?*%
%TF.SameCoordinates,Original*%
%TF.FileFunction,Legend,Bot*%
%TF.FilePolarity,Positive*%
%FSLAX46Y46*%
G04 Gerber Fmt 4.6, Leading zero omitted, Abs format (unit mm)*
G04 Created by KiCad (PCBNEW (5.1.9-0-10_14)) date 2021-05-28 20:21:16*
%MOMM*%
%LPD*%
G01*
G04 APERTURE LIST*
%ADD10C,0.150000*%
%ADD11C,0.120000*%
G04 APERTURE END LIST*
D10*
%TO.C,SW2*%
X87693196Y-98685603D02*
X88779555Y-101374436D01*
X87748454Y-98555424D02*
X88909734Y-101429694D01*
X87803712Y-98425245D02*
X89039913Y-101484951D01*
X87858969Y-98295066D02*
X89170093Y-101540209D01*
X87941856Y-98099797D02*
X89365361Y-101623096D01*
X88024743Y-97904529D02*
X89560630Y-101705982D01*
X88107629Y-97709260D02*
X89755898Y-101788869D01*
X88209246Y-97560351D02*
X89932436Y-101825396D01*
X88348324Y-97504160D02*
X90071514Y-101769205D01*
X88487401Y-97447969D02*
X90210592Y-101713014D01*
X88626479Y-97391778D02*
X90349669Y-101656823D01*
X88765556Y-97335587D02*
X90488747Y-101600632D01*
X88904634Y-97279396D02*
X90627824Y-101544441D01*
X89043712Y-97223205D02*
X90766902Y-101488250D01*
X89182789Y-97167014D02*
X90905979Y-101432059D01*
X89321867Y-97110823D02*
X91045057Y-101375868D01*
X89460944Y-97054632D02*
X91184135Y-101319677D01*
X89600022Y-96998441D02*
X91323212Y-101263486D01*
X89739099Y-96942250D02*
X91462290Y-101207295D01*
X89878177Y-96886059D02*
X91601367Y-101151104D01*
X90017255Y-96829868D02*
X91740445Y-101094914D01*
X90156332Y-96773677D02*
X91879523Y-101038723D01*
X90295410Y-96717486D02*
X92018600Y-100982532D01*
X90434487Y-96661295D02*
X92138947Y-100879981D01*
X90573565Y-96605104D02*
X92296755Y-100870150D01*
X90712643Y-96548913D02*
X92435833Y-100813959D01*
X90870450Y-96539081D02*
X92574910Y-100757768D01*
X91046989Y-96575608D02*
X92751449Y-100794295D01*
X91223527Y-96612136D02*
X92909257Y-100784463D01*
X91372436Y-96713753D02*
X93020705Y-100793362D01*
X91558806Y-96908088D02*
X93132154Y-100802260D01*
X91707716Y-97009705D02*
X93262333Y-100857518D01*
X91875355Y-97157681D02*
X93429973Y-101005494D01*
X92024265Y-97259298D02*
X93578882Y-101107111D01*
X92191904Y-97407274D02*
X93858904Y-101533242D01*
X92387173Y-97490161D02*
X94054172Y-101616129D01*
X92582442Y-97573047D02*
X94230711Y-101652656D01*
X92758980Y-97609575D02*
X94407249Y-101689184D01*
X92935518Y-97646102D02*
X94602517Y-101772070D01*
X93112056Y-97682629D02*
X94779056Y-101808598D01*
X93269864Y-97672798D02*
X94974324Y-101891484D01*
X93446402Y-97709325D02*
X95150862Y-101928012D01*
X93604210Y-97699493D02*
X95327401Y-101964539D01*
X93743288Y-97643302D02*
X95485209Y-101954707D01*
X93882366Y-97587111D02*
X95624286Y-101898516D01*
X94040173Y-97577280D02*
X95744633Y-101795966D01*
X94179251Y-97521089D02*
X95902441Y-101786134D01*
X94318329Y-97464898D02*
X96041519Y-101729943D01*
X94457406Y-97408707D02*
X96180597Y-101673752D01*
X94596484Y-97352516D02*
X96319674Y-101617561D01*
X94735561Y-97296325D02*
X96458752Y-101561370D01*
X94874639Y-97240134D02*
X96597829Y-101505179D01*
X95013716Y-97183943D02*
X96736907Y-101448988D01*
X95152794Y-97127752D02*
X96875984Y-101392797D01*
X95291872Y-97071561D02*
X97015062Y-101336606D01*
X95430949Y-97015370D02*
X97154140Y-101280415D01*
X95570027Y-96959179D02*
X97293217Y-101224224D01*
X95709104Y-96902988D02*
X97432295Y-101168033D01*
X95848182Y-96846797D02*
X97571372Y-101111842D01*
X95987260Y-96790606D02*
X97710450Y-101055651D01*
X96126337Y-96734415D02*
X97830797Y-100953101D01*
X96284145Y-96724583D02*
X97969875Y-100896910D01*
X96441953Y-96714751D02*
X98090222Y-100794360D01*
X96618491Y-96751278D02*
X98191839Y-100645451D01*
X96795029Y-96787806D02*
X98293456Y-100496541D01*
X97009028Y-96917052D02*
X98357612Y-100254914D01*
X95378676Y-102024713D02*
X93812545Y-101551973D01*
X89895442Y-101867306D02*
X88561107Y-101300915D01*
X88153522Y-97555901D02*
X87587130Y-98890237D01*
X88593652Y-101314729D02*
X87600944Y-98857692D01*
X94169886Y-97497909D02*
X96001074Y-96758061D01*
X95378676Y-102024713D02*
X97742995Y-101069466D01*
X89895442Y-101867306D02*
X92282941Y-100902694D01*
X88153522Y-97555901D02*
X90564200Y-96581924D01*
D11*
X88571221Y-97521957D02*
X90238220Y-101647925D01*
X90238220Y-101647925D02*
X91130809Y-96649596D01*
X91130809Y-96649596D02*
X92760347Y-100682846D01*
X92760347Y-100682846D02*
X94541226Y-97482695D01*
X94541226Y-97482695D02*
X96226956Y-101655022D01*
D10*
X93812545Y-101551972D02*
G75*
G03*
X92282941Y-100902694I-1089441J-440163D01*
G01*
X91627002Y-96910838D02*
G75*
G03*
X94169886Y-97497909I1690654J1522272D01*
G01*
X97742995Y-101069466D02*
G75*
G03*
X98295572Y-99767675I-374607J927184D01*
G01*
X96001074Y-96758062D02*
G75*
G02*
X97302864Y-97310638I374607J-927183D01*
G01*
X90565575Y-96582672D02*
G75*
G02*
X91627001Y-96910838I311247J-873928D01*
G01*
%TO.C,SW6*%
X151671765Y-119532767D02*
X151318344Y-122411151D01*
X151783207Y-119445699D02*
X151405412Y-122522592D01*
X151894649Y-119358631D02*
X151492480Y-122634034D01*
X152006090Y-119271564D02*
X151579547Y-122745475D01*
X152173252Y-119140962D02*
X151710149Y-122912638D01*
X152340415Y-119010361D02*
X151840750Y-123079800D01*
X152507577Y-118879759D02*
X151971352Y-123246962D01*
X152668646Y-118798785D02*
X152108047Y-123364497D01*
X152817528Y-118817065D02*
X152256929Y-123382778D01*
X152966410Y-118835346D02*
X152405811Y-123401058D01*
X153115292Y-118853626D02*
X152554693Y-123419338D01*
X153264174Y-118871906D02*
X152703575Y-123437619D01*
X153413056Y-118890187D02*
X152852457Y-123455899D01*
X153561937Y-118908467D02*
X153001338Y-123474180D01*
X153710819Y-118926748D02*
X153150220Y-123492460D01*
X153859701Y-118945028D02*
X153299102Y-123510740D01*
X154008583Y-118963308D02*
X153447984Y-123529021D01*
X154157465Y-118981589D02*
X153596866Y-123547301D01*
X154306347Y-118999869D02*
X153745748Y-123565582D01*
X154455229Y-119018150D02*
X153894630Y-123583862D01*
X154604111Y-119036430D02*
X154043512Y-123602142D01*
X154752993Y-119054710D02*
X154192394Y-123620423D01*
X154901875Y-119072991D02*
X154341276Y-123638703D01*
X155050757Y-119091271D02*
X154496251Y-123607356D01*
X155199639Y-119109552D02*
X154639040Y-123675264D01*
X155348521Y-119127832D02*
X154787922Y-123693544D01*
X155491309Y-119195740D02*
X154936803Y-123711825D01*
X155628004Y-119313275D02*
X155073498Y-123829360D01*
X155764699Y-119430810D02*
X155216287Y-123897268D01*
X155845673Y-119591879D02*
X155309448Y-123959082D01*
X155914460Y-119852202D02*
X155402609Y-124020896D01*
X155995435Y-120013271D02*
X155489677Y-124132338D01*
X156070315Y-120223967D02*
X155564558Y-124343034D01*
X156151290Y-120385036D02*
X155645532Y-124504103D01*
X156226170Y-120595732D02*
X155683852Y-125012563D01*
X156356772Y-120762895D02*
X155814453Y-125179725D01*
X156487373Y-120930057D02*
X155951148Y-125297260D01*
X156624068Y-121047592D02*
X156087843Y-125414795D01*
X156760763Y-121165127D02*
X156218445Y-125581957D01*
X156897458Y-121282662D02*
X156355140Y-125699492D01*
X157040247Y-121350570D02*
X156485741Y-125866655D01*
X157176942Y-121468105D02*
X156622436Y-125984190D01*
X157319730Y-121536012D02*
X156759131Y-126101725D01*
X157468612Y-121554293D02*
X156901920Y-126169632D01*
X157617494Y-121572573D02*
X157050802Y-126187913D01*
X157760283Y-121640481D02*
X157205777Y-126156566D01*
X157909165Y-121658761D02*
X157348566Y-126224474D01*
X158058046Y-121677042D02*
X157497447Y-126242754D01*
X158206928Y-121695322D02*
X157646329Y-126261034D01*
X158355810Y-121713602D02*
X157795211Y-126279315D01*
X158504692Y-121731883D02*
X157944093Y-126297595D01*
X158653574Y-121750163D02*
X158092975Y-126315876D01*
X158802456Y-121768444D02*
X158241857Y-126334156D01*
X158951338Y-121786724D02*
X158390739Y-126352436D01*
X159100220Y-121805004D02*
X158539621Y-126370717D01*
X159249102Y-121823285D02*
X158688503Y-126388997D01*
X159397984Y-121841565D02*
X158837385Y-126407278D01*
X159546866Y-121859846D02*
X158986267Y-126425558D01*
X159695748Y-121878126D02*
X159135149Y-126443838D01*
X159844630Y-121896406D02*
X159284031Y-126462119D01*
X159993511Y-121914687D02*
X159439006Y-126430772D01*
X160136300Y-121982595D02*
X159587888Y-126449052D01*
X160279088Y-122050502D02*
X159742863Y-126417705D01*
X160415783Y-122168037D02*
X159903932Y-126336731D01*
X160552478Y-122285572D02*
X160065001Y-126255757D01*
X160676986Y-122502362D02*
X160238257Y-126075528D01*
X156774805Y-126179212D02*
X155634224Y-125006469D01*
X152055373Y-123383217D02*
X151162929Y-122240941D01*
X152622065Y-118767878D02*
X151479789Y-119660321D01*
X151184696Y-122268802D02*
X151507650Y-119638555D01*
X157912211Y-121633948D02*
X159872490Y-121874640D01*
X156774805Y-126179212D02*
X159305797Y-126489979D01*
X152055373Y-123383217D02*
X154611179Y-123697031D01*
X152622065Y-118767878D02*
X155202685Y-119084738D01*
D11*
X153003850Y-118940694D02*
X152461532Y-123357524D01*
X152461532Y-123357524D02*
X155665444Y-119418623D01*
X155665444Y-119418623D02*
X155135313Y-123736199D01*
X155135313Y-123736199D02*
X158244369Y-121800670D01*
X158244369Y-121800670D02*
X157695957Y-126267128D01*
D10*
X155634225Y-125006469D02*
G75*
G03*
X154611179Y-123697031I-1166242J143196D01*
G01*
X155972771Y-119887669D02*
G75*
G03*
X157912211Y-121633948I2216693J511764D01*
G01*
X159305798Y-126489979D02*
G75*
G03*
X160420213Y-125619302I121869J992546D01*
G01*
X159872490Y-121874640D02*
G75*
G02*
X160743167Y-122989055I-121869J-992546D01*
G01*
X155203526Y-119086059D02*
G75*
G02*
X155972772Y-119887669I-151466J-915250D01*
G01*
D11*
%TO.C,SW3*%
X118140000Y-89270000D02*
X118140000Y-93770000D01*
X115290000Y-91570000D02*
X118140000Y-89270000D01*
X115290000Y-87220000D02*
X115290000Y-91570000D01*
X112590000Y-91520000D02*
X115290000Y-87220000D01*
X112590000Y-87070000D02*
X112590000Y-91520000D01*
D10*
X112190000Y-86945000D02*
X114790000Y-86945000D01*
X112190000Y-91595000D02*
X114765000Y-91595000D01*
X117215000Y-93795000D02*
X119765000Y-93795000D01*
X117790000Y-89145000D02*
X119765000Y-89145000D01*
X111190000Y-90595000D02*
X111190000Y-87945000D01*
X112190000Y-86945000D02*
X111165000Y-87970000D01*
X112190000Y-91595000D02*
X111165000Y-90570000D01*
X117215000Y-93795000D02*
X115940000Y-92770000D01*
X120640000Y-89670000D02*
X120640000Y-93270000D01*
X120490000Y-89470000D02*
X120490000Y-93470000D01*
X120340000Y-89370000D02*
X120340000Y-93570000D01*
X120190000Y-89270000D02*
X120190000Y-93670000D01*
X120040000Y-89220000D02*
X120040000Y-93720000D01*
X119890000Y-89170000D02*
X119890000Y-93720000D01*
X119740000Y-89170000D02*
X119740000Y-93770000D01*
X119590000Y-89170000D02*
X119590000Y-93770000D01*
X119440000Y-89170000D02*
X119440000Y-93770000D01*
X119290000Y-89170000D02*
X119290000Y-93770000D01*
X119140000Y-89170000D02*
X119140000Y-93770000D01*
X118990000Y-89170000D02*
X118990000Y-93770000D01*
X118840000Y-89170000D02*
X118840000Y-93770000D01*
X118690000Y-89170000D02*
X118690000Y-93770000D01*
X118540000Y-89170000D02*
X118540000Y-93770000D01*
X118390000Y-89170000D02*
X118390000Y-93770000D01*
X118240000Y-89170000D02*
X118240000Y-93770000D01*
X118090000Y-89170000D02*
X118090000Y-93770000D01*
X117940000Y-89170000D02*
X117940000Y-93770000D01*
X117790000Y-89170000D02*
X117790000Y-93770000D01*
X117640000Y-89170000D02*
X117640000Y-93720000D01*
X117490000Y-89120000D02*
X117490000Y-93770000D01*
X117340000Y-89120000D02*
X117340000Y-93770000D01*
X117190000Y-89120000D02*
X117190000Y-93720000D01*
X117040000Y-89070000D02*
X117040000Y-93620000D01*
X116890000Y-88970000D02*
X116890000Y-93520000D01*
X116740000Y-88920000D02*
X116740000Y-93370000D01*
X116590000Y-88820000D02*
X116590000Y-93270000D01*
X116440000Y-88720000D02*
X116440000Y-93120000D01*
X116290000Y-88620000D02*
X116290000Y-93020000D01*
X116140000Y-88470000D02*
X116140000Y-92920000D01*
X115990000Y-88320000D02*
X115990000Y-92770000D01*
X115890000Y-88120000D02*
X115890000Y-92270000D01*
X115790000Y-87970000D02*
X115790000Y-92120000D01*
X115690000Y-87770000D02*
X115690000Y-91920000D01*
X115590000Y-87620000D02*
X115590000Y-91820000D01*
X115490000Y-87370000D02*
X115490000Y-91770000D01*
X115390000Y-87220000D02*
X115390000Y-91720000D01*
X115240000Y-87120000D02*
X115240000Y-91670000D01*
X115090000Y-87020000D02*
X115090000Y-91570000D01*
X114940000Y-86970000D02*
X114940000Y-91570000D01*
X114790000Y-86970000D02*
X114790000Y-91570000D01*
X114640000Y-86970000D02*
X114640000Y-91520000D01*
X114490000Y-86970000D02*
X114490000Y-91570000D01*
X114340000Y-86970000D02*
X114340000Y-91570000D01*
X114190000Y-86970000D02*
X114190000Y-91570000D01*
X114040000Y-86970000D02*
X114040000Y-91570000D01*
X113890000Y-86970000D02*
X113890000Y-91570000D01*
X113740000Y-86970000D02*
X113740000Y-91570000D01*
X113590000Y-86970000D02*
X113590000Y-91570000D01*
X113440000Y-86970000D02*
X113440000Y-91570000D01*
X113290000Y-86970000D02*
X113290000Y-91570000D01*
X113140000Y-86970000D02*
X113140000Y-91570000D01*
X112990000Y-86970000D02*
X112990000Y-91570000D01*
X112840000Y-86970000D02*
X112840000Y-91570000D01*
X112690000Y-86970000D02*
X112690000Y-91570000D01*
X112540000Y-86970000D02*
X112540000Y-91570000D01*
X112390000Y-86970000D02*
X112390000Y-91570000D01*
X112240000Y-86970000D02*
X112240000Y-91570000D01*
X112090000Y-87070000D02*
X112090000Y-91470000D01*
X111940000Y-87220000D02*
X111940000Y-91320000D01*
X111790000Y-87370000D02*
X111790000Y-91170000D01*
X111640000Y-87520000D02*
X111640000Y-91020000D01*
X111540000Y-87620000D02*
X111540000Y-90920000D01*
X111440000Y-87720000D02*
X111440000Y-90820000D01*
X111340000Y-87820000D02*
X111340000Y-90720000D01*
X114790995Y-86946209D02*
G75*
G02*
X115652199Y-87648096I-38796J-926887D01*
G01*
X119765000Y-89145000D02*
G75*
G02*
X120765000Y-90145000I0J-1000000D01*
G01*
X119765000Y-93795000D02*
G75*
G03*
X120765000Y-92795000I0J1000000D01*
G01*
X115652199Y-87648096D02*
G75*
G03*
X117790000Y-89145000I2137801J778096D01*
G01*
X115940000Y-92770000D02*
G75*
G03*
X114765000Y-91595000I-1175000J0D01*
G01*
%TO.C,OL1*%
X111940000Y-138360000D02*
X111940000Y-128200000D01*
X111940000Y-128200000D02*
X114480000Y-128200000D01*
X114480000Y-128200000D02*
X114480000Y-138360000D01*
X114480000Y-138360000D02*
X111940000Y-138360000D01*
%TO.C,SW4*%
X130390000Y-87820000D02*
X130390000Y-90720000D01*
X130490000Y-87720000D02*
X130490000Y-90820000D01*
X130590000Y-87620000D02*
X130590000Y-90920000D01*
X130690000Y-87520000D02*
X130690000Y-91020000D01*
X130840000Y-87370000D02*
X130840000Y-91170000D01*
X130990000Y-87220000D02*
X130990000Y-91320000D01*
X131140000Y-87070000D02*
X131140000Y-91470000D01*
X131290000Y-86970000D02*
X131290000Y-91570000D01*
X131440000Y-86970000D02*
X131440000Y-91570000D01*
X131590000Y-86970000D02*
X131590000Y-91570000D01*
X131740000Y-86970000D02*
X131740000Y-91570000D01*
X131890000Y-86970000D02*
X131890000Y-91570000D01*
X132040000Y-86970000D02*
X132040000Y-91570000D01*
X132190000Y-86970000D02*
X132190000Y-91570000D01*
X132340000Y-86970000D02*
X132340000Y-91570000D01*
X132490000Y-86970000D02*
X132490000Y-91570000D01*
X132640000Y-86970000D02*
X132640000Y-91570000D01*
X132790000Y-86970000D02*
X132790000Y-91570000D01*
X132940000Y-86970000D02*
X132940000Y-91570000D01*
X133090000Y-86970000D02*
X133090000Y-91570000D01*
X133240000Y-86970000D02*
X133240000Y-91570000D01*
X133390000Y-86970000D02*
X133390000Y-91570000D01*
X133540000Y-86970000D02*
X133540000Y-91570000D01*
X133690000Y-86970000D02*
X133690000Y-91520000D01*
X133840000Y-86970000D02*
X133840000Y-91570000D01*
X133990000Y-86970000D02*
X133990000Y-91570000D01*
X134140000Y-87020000D02*
X134140000Y-91570000D01*
X134290000Y-87120000D02*
X134290000Y-91670000D01*
X134440000Y-87220000D02*
X134440000Y-91720000D01*
X134540000Y-87370000D02*
X134540000Y-91770000D01*
X134640000Y-87620000D02*
X134640000Y-91820000D01*
X134740000Y-87770000D02*
X134740000Y-91920000D01*
X134840000Y-87970000D02*
X134840000Y-92120000D01*
X134940000Y-88120000D02*
X134940000Y-92270000D01*
X135040000Y-88320000D02*
X135040000Y-92770000D01*
X135190000Y-88470000D02*
X135190000Y-92920000D01*
X135340000Y-88620000D02*
X135340000Y-93020000D01*
X135490000Y-88720000D02*
X135490000Y-93120000D01*
X135640000Y-88820000D02*
X135640000Y-93270000D01*
X135790000Y-88920000D02*
X135790000Y-93370000D01*
X135940000Y-88970000D02*
X135940000Y-93520000D01*
X136090000Y-89070000D02*
X136090000Y-93620000D01*
X136240000Y-89120000D02*
X136240000Y-93720000D01*
X136390000Y-89120000D02*
X136390000Y-93770000D01*
X136540000Y-89120000D02*
X136540000Y-93770000D01*
X136690000Y-89170000D02*
X136690000Y-93720000D01*
X136840000Y-89170000D02*
X136840000Y-93770000D01*
X136990000Y-89170000D02*
X136990000Y-93770000D01*
X137140000Y-89170000D02*
X137140000Y-93770000D01*
X137290000Y-89170000D02*
X137290000Y-93770000D01*
X137440000Y-89170000D02*
X137440000Y-93770000D01*
X137590000Y-89170000D02*
X137590000Y-93770000D01*
X137740000Y-89170000D02*
X137740000Y-93770000D01*
X137890000Y-89170000D02*
X137890000Y-93770000D01*
X138040000Y-89170000D02*
X138040000Y-93770000D01*
X138190000Y-89170000D02*
X138190000Y-93770000D01*
X138340000Y-89170000D02*
X138340000Y-93770000D01*
X138490000Y-89170000D02*
X138490000Y-93770000D01*
X138640000Y-89170000D02*
X138640000Y-93770000D01*
X138790000Y-89170000D02*
X138790000Y-93770000D01*
X138940000Y-89170000D02*
X138940000Y-93720000D01*
X139090000Y-89220000D02*
X139090000Y-93720000D01*
X139240000Y-89270000D02*
X139240000Y-93670000D01*
X139390000Y-89370000D02*
X139390000Y-93570000D01*
X139540000Y-89470000D02*
X139540000Y-93470000D01*
X139690000Y-89670000D02*
X139690000Y-93270000D01*
X136265000Y-93795000D02*
X134990000Y-92770000D01*
X131240000Y-91595000D02*
X130215000Y-90570000D01*
X131240000Y-86945000D02*
X130215000Y-87970000D01*
X130240000Y-90595000D02*
X130240000Y-87945000D01*
X136840000Y-89145000D02*
X138815000Y-89145000D01*
X136265000Y-93795000D02*
X138815000Y-93795000D01*
X131240000Y-91595000D02*
X133815000Y-91595000D01*
X131240000Y-86945000D02*
X133840000Y-86945000D01*
D11*
X131640000Y-87070000D02*
X131640000Y-91520000D01*
X131640000Y-91520000D02*
X134340000Y-87220000D01*
X134340000Y-87220000D02*
X134340000Y-91570000D01*
X134340000Y-91570000D02*
X137190000Y-89270000D01*
X137190000Y-89270000D02*
X137190000Y-93770000D01*
D10*
X134990000Y-92770000D02*
G75*
G03*
X133815000Y-91595000I-1175000J0D01*
G01*
X134702199Y-87648096D02*
G75*
G03*
X136840000Y-89145000I2137801J778096D01*
G01*
X138815000Y-93795000D02*
G75*
G03*
X139815000Y-92795000I0J1000000D01*
G01*
X138815000Y-89145000D02*
G75*
G02*
X139815000Y-90145000I0J-1000000D01*
G01*
X133840995Y-86946209D02*
G75*
G02*
X134702199Y-87648096I-38796J-926887D01*
G01*
D11*
%TO.C,SW5*%
X159237325Y-95216191D02*
X158417265Y-99640838D01*
X156015907Y-96958306D02*
X159237325Y-95216191D01*
X156808631Y-92681147D02*
X156015907Y-96958306D01*
X153370230Y-96417108D02*
X156808631Y-92681147D01*
X154181178Y-92041623D02*
X153370230Y-96417108D01*
D10*
X153810656Y-91845822D02*
X156367119Y-92319635D01*
X152963261Y-96417958D02*
X155495142Y-96887214D01*
X157503198Y-99496852D02*
X160010498Y-99961552D01*
X158915965Y-95029502D02*
X160857894Y-95389417D01*
X152162241Y-95252467D02*
X152645165Y-92646842D01*
X153810656Y-91845822D02*
X152616028Y-92666867D01*
X152963261Y-96417958D02*
X152142216Y-95223330D01*
X157503198Y-99496852D02*
X156436340Y-98256665D01*
X161622568Y-96065082D02*
X160966520Y-99604800D01*
X161511527Y-95841096D02*
X160782585Y-99774115D01*
X161382262Y-95715435D02*
X160616873Y-99845105D01*
X161252997Y-95589774D02*
X160451161Y-99916096D01*
X161114621Y-95513276D02*
X160294561Y-99937923D01*
X160976245Y-95436778D02*
X160147073Y-99910588D01*
X160828756Y-95409443D02*
X159990473Y-99932415D01*
X160681268Y-95382107D02*
X159842985Y-99905080D01*
X160533780Y-95354772D02*
X159695496Y-99877745D01*
X160386292Y-95327437D02*
X159548008Y-99850409D01*
X160238803Y-95300101D02*
X159400520Y-99823074D01*
X160091315Y-95272766D02*
X159253032Y-99795739D01*
X159943827Y-95245431D02*
X159105543Y-99768403D01*
X159796339Y-95218095D02*
X158958055Y-99741068D01*
X159648850Y-95190760D02*
X158810567Y-99713733D01*
X159501362Y-95163425D02*
X158663079Y-99686397D01*
X159353874Y-95136089D02*
X158515591Y-99659062D01*
X159206386Y-95108754D02*
X158368102Y-99631727D01*
X159058897Y-95081419D02*
X158220614Y-99604391D01*
X158911409Y-95054083D02*
X158073126Y-99577056D01*
X158763921Y-95026748D02*
X157934749Y-99500558D01*
X158625545Y-94950250D02*
X157778149Y-99522385D01*
X158478056Y-94922915D02*
X157630661Y-99495050D01*
X158330568Y-94895579D02*
X157492285Y-99418552D01*
X158192192Y-94819081D02*
X157363020Y-99292891D01*
X158062927Y-94693420D02*
X157233755Y-99167230D01*
X157924550Y-94616922D02*
X157113602Y-98992407D01*
X157795286Y-94491261D02*
X156984338Y-98866746D01*
X157666021Y-94365601D02*
X156864185Y-98691922D01*
X157536756Y-94239940D02*
X156734920Y-98566261D01*
X157416604Y-94065116D02*
X156605655Y-98440601D01*
X157296451Y-93890293D02*
X156485503Y-98265777D01*
X157234572Y-93675418D02*
X156478295Y-97755926D01*
X157163582Y-93509706D02*
X156407305Y-97590214D01*
X157101704Y-93294832D02*
X156345426Y-97375340D01*
X157030714Y-93129120D02*
X156265324Y-97258791D01*
X156977947Y-92865083D02*
X156176111Y-97191404D01*
X156906957Y-92699371D02*
X156086897Y-97124018D01*
X156777692Y-92573710D02*
X155948520Y-97047520D01*
X156648427Y-92448049D02*
X155819256Y-96921859D01*
X156510051Y-92371551D02*
X155671768Y-96894524D01*
X156362563Y-92344216D02*
X155524279Y-96867189D01*
X156215074Y-92316881D02*
X155385903Y-96790690D01*
X156067586Y-92289545D02*
X155229303Y-96812518D01*
X155920098Y-92262210D02*
X155081815Y-96785183D01*
X155772610Y-92234875D02*
X154934326Y-96757847D01*
X155625122Y-92207539D02*
X154786838Y-96730512D01*
X155477633Y-92180204D02*
X154639350Y-96703177D01*
X155330145Y-92152869D02*
X154491862Y-96675841D01*
X155182657Y-92125533D02*
X154344373Y-96648506D01*
X155035169Y-92098198D02*
X154196885Y-96621171D01*
X154887680Y-92070863D02*
X154049397Y-96593835D01*
X154740192Y-92043527D02*
X153901909Y-96566500D01*
X154592704Y-92016192D02*
X153754420Y-96539165D01*
X154445216Y-91988857D02*
X153606932Y-96511829D01*
X154297727Y-91961521D02*
X153459444Y-96484494D01*
X154150239Y-91934186D02*
X153311956Y-96457159D01*
X154002751Y-91906851D02*
X153164467Y-96429823D01*
X153855263Y-91879515D02*
X153016979Y-96402488D01*
X153689551Y-91950506D02*
X152887715Y-96276827D01*
X153514727Y-92070658D02*
X152767562Y-96102004D01*
X153339904Y-92190811D02*
X152647409Y-95927180D01*
X153165080Y-92310964D02*
X152527256Y-95752356D01*
X153048531Y-92391066D02*
X152447154Y-95635807D01*
X152931982Y-92471168D02*
X152367052Y-95519258D01*
X152815433Y-92551270D02*
X152286950Y-95402709D01*
X156367876Y-92321004D02*
G75*
G02*
X157086751Y-93168080I-207058J-904297D01*
G01*
X160857894Y-95389417D02*
G75*
G02*
X161658913Y-96554908I-182236J-983255D01*
G01*
X160010499Y-99961553D02*
G75*
G03*
X161175989Y-99160533I182235J983255D01*
G01*
X157086751Y-93168080D02*
G75*
G03*
X158915965Y-95029502I2243800J375483D01*
G01*
X156436340Y-98256666D02*
G75*
G03*
X155495142Y-96887214I-1155325J214127D01*
G01*
%TO.C,U1*%
%TD*%
M02*
