%TF.GenerationSoftware,KiCad,Pcbnew,(5.1.9-0-10_14)*%
%TF.CreationDate,2021-05-28T20:21:16+09:00*%
%TF.ProjectId,quali5,7175616c-6935-42e6-9b69-6361645f7063,rev?*%
%TF.SameCoordinates,Original*%
%TF.FileFunction,Legend,Top*%
%TF.FilePolarity,Positive*%
%FSLAX46Y46*%
G04 Gerber Fmt 4.6, Leading zero omitted, Abs format (unit mm)*
G04 Created by KiCad (PCBNEW (5.1.9-0-10_14)) date 2021-05-28 20:21:16*
%MOMM*%
%LPD*%
G01*
G04 APERTURE LIST*
%ADD10C,0.300000*%
%ADD11C,0.150000*%
%ADD12C,0.120000*%
%ADD13C,0.125000*%
G04 APERTURE END LIST*
D10*
X139917142Y-115268571D02*
X139917142Y-114268571D01*
X139917142Y-114554285D02*
X139988571Y-114411428D01*
X140060000Y-114340000D01*
X140202857Y-114268571D01*
X140345714Y-114268571D01*
X141417142Y-115197142D02*
X141274285Y-115268571D01*
X140988571Y-115268571D01*
X140845714Y-115197142D01*
X140774285Y-115054285D01*
X140774285Y-114482857D01*
X140845714Y-114340000D01*
X140988571Y-114268571D01*
X141274285Y-114268571D01*
X141417142Y-114340000D01*
X141488571Y-114482857D01*
X141488571Y-114625714D01*
X140774285Y-114768571D01*
X141988571Y-114268571D02*
X142345714Y-115268571D01*
X142702857Y-114268571D01*
X143274285Y-115125714D02*
X143345714Y-115197142D01*
X143274285Y-115268571D01*
X143202857Y-115197142D01*
X143274285Y-115125714D01*
X143274285Y-115268571D01*
X144774285Y-115268571D02*
X143917142Y-115268571D01*
X144345714Y-115268571D02*
X144345714Y-113768571D01*
X144202857Y-113982857D01*
X144060000Y-114125714D01*
X143917142Y-114197142D01*
X130160000Y-118068571D02*
X130160000Y-116568571D01*
X130160000Y-117140000D02*
X130302857Y-117068571D01*
X130588571Y-117068571D01*
X130731428Y-117140000D01*
X130802857Y-117211428D01*
X130874285Y-117354285D01*
X130874285Y-117782857D01*
X130802857Y-117925714D01*
X130731428Y-117997142D01*
X130588571Y-118068571D01*
X130302857Y-118068571D01*
X130160000Y-117997142D01*
X131374285Y-117068571D02*
X131731428Y-118068571D01*
X132088571Y-117068571D02*
X131731428Y-118068571D01*
X131588571Y-118425714D01*
X131517142Y-118497142D01*
X131374285Y-118568571D01*
X133588571Y-116568571D02*
X134445714Y-116568571D01*
X134017142Y-118068571D02*
X134017142Y-116568571D01*
X134874285Y-117640000D02*
X135588571Y-117640000D01*
X134731428Y-118068571D02*
X135231428Y-116568571D01*
X135731428Y-118068571D01*
X136231428Y-118068571D02*
X136231428Y-116568571D01*
X136731428Y-117640000D01*
X137231428Y-116568571D01*
X137231428Y-118068571D01*
X137874285Y-117640000D02*
X138588571Y-117640000D01*
X137731428Y-118068571D02*
X138231428Y-116568571D01*
X138731428Y-118068571D01*
X139231428Y-118068571D02*
X139231428Y-116568571D01*
X140088571Y-118068571D01*
X140088571Y-116568571D01*
X141088571Y-116568571D02*
X141374285Y-116568571D01*
X141517142Y-116640000D01*
X141660000Y-116782857D01*
X141731428Y-117068571D01*
X141731428Y-117568571D01*
X141660000Y-117854285D01*
X141517142Y-117997142D01*
X141374285Y-118068571D01*
X141088571Y-118068571D01*
X140945714Y-117997142D01*
X140802857Y-117854285D01*
X140731428Y-117568571D01*
X140731428Y-117068571D01*
X140802857Y-116782857D01*
X140945714Y-116640000D01*
X141088571Y-116568571D01*
X131214523Y-115485238D02*
X131024047Y-115390000D01*
X130833571Y-115199523D01*
X130547857Y-114913809D01*
X130357380Y-114818571D01*
X130166904Y-114818571D01*
X130262142Y-115294761D02*
X130071666Y-115199523D01*
X129881190Y-115009047D01*
X129785952Y-114628095D01*
X129785952Y-113961428D01*
X129881190Y-113580476D01*
X130071666Y-113390000D01*
X130262142Y-113294761D01*
X130643095Y-113294761D01*
X130833571Y-113390000D01*
X131024047Y-113580476D01*
X131119285Y-113961428D01*
X131119285Y-114628095D01*
X131024047Y-115009047D01*
X130833571Y-115199523D01*
X130643095Y-115294761D01*
X130262142Y-115294761D01*
X132833571Y-113961428D02*
X132833571Y-115294761D01*
X131976428Y-113961428D02*
X131976428Y-115009047D01*
X132071666Y-115199523D01*
X132262142Y-115294761D01*
X132547857Y-115294761D01*
X132738333Y-115199523D01*
X132833571Y-115104285D01*
X134643095Y-115294761D02*
X134643095Y-114247142D01*
X134547857Y-114056666D01*
X134357380Y-113961428D01*
X133976428Y-113961428D01*
X133785952Y-114056666D01*
X134643095Y-115199523D02*
X134452619Y-115294761D01*
X133976428Y-115294761D01*
X133785952Y-115199523D01*
X133690714Y-115009047D01*
X133690714Y-114818571D01*
X133785952Y-114628095D01*
X133976428Y-114532857D01*
X134452619Y-114532857D01*
X134643095Y-114437619D01*
X135881190Y-115294761D02*
X135690714Y-115199523D01*
X135595476Y-115009047D01*
X135595476Y-113294761D01*
X136643095Y-115294761D02*
X136643095Y-113961428D01*
X136643095Y-113294761D02*
X136547857Y-113390000D01*
X136643095Y-113485238D01*
X136738333Y-113390000D01*
X136643095Y-113294761D01*
X136643095Y-113485238D01*
X138547857Y-113294761D02*
X137595476Y-113294761D01*
X137500238Y-114247142D01*
X137595476Y-114151904D01*
X137785952Y-114056666D01*
X138262142Y-114056666D01*
X138452619Y-114151904D01*
X138547857Y-114247142D01*
X138643095Y-114437619D01*
X138643095Y-114913809D01*
X138547857Y-115104285D01*
X138452619Y-115199523D01*
X138262142Y-115294761D01*
X137785952Y-115294761D01*
X137595476Y-115199523D01*
X137500238Y-115104285D01*
D11*
%TO.C,U1*%
X76010000Y-125740000D02*
X76010000Y-125440000D01*
X75860000Y-125840000D02*
X75860000Y-125340000D01*
X75710000Y-125940000D02*
X75710000Y-125240000D01*
X76210000Y-125590000D02*
X75560000Y-126090000D01*
X75560000Y-125090000D02*
X76210000Y-125590000D01*
X75560000Y-126090000D02*
X75560000Y-125090000D01*
X75210000Y-121840000D02*
X75210000Y-129340000D01*
X76510000Y-121840000D02*
X75210000Y-121840000D01*
X76510000Y-129340000D02*
X76510000Y-121840000D01*
X75210000Y-129340000D02*
X76510000Y-129340000D01*
X78110000Y-134490000D02*
X79110000Y-134490000D01*
X78110000Y-116690000D02*
X79110000Y-116690000D01*
X78110000Y-134490000D02*
X78110000Y-133490000D01*
X78110000Y-116690000D02*
X78110000Y-117640000D01*
X110110000Y-134490000D02*
X111160000Y-134490000D01*
X110160000Y-116690000D02*
X111160000Y-116690000D01*
X111160000Y-134490000D02*
X111160000Y-133490000D01*
X111160000Y-116690000D02*
X111160000Y-117700000D01*
%TO.C,D3*%
X133040000Y-104560000D02*
X133040000Y-103560000D01*
X132040000Y-103560000D02*
X132940000Y-104060000D01*
X132040000Y-104560000D02*
X132040000Y-103560000D01*
X132940000Y-104060000D02*
X132040000Y-104560000D01*
%TO.C,D1*%
X96080874Y-112800157D02*
X95433711Y-113600895D01*
X95433711Y-113600895D02*
X95059105Y-112673711D01*
X95059105Y-112673711D02*
X96080874Y-112800157D01*
X96360895Y-113226289D02*
X95986289Y-112299105D01*
%TO.C,D2*%
X113180000Y-104560000D02*
X113180000Y-103560000D01*
X112180000Y-103560000D02*
X113080000Y-104060000D01*
X112180000Y-104560000D02*
X112180000Y-103560000D01*
X113080000Y-104060000D02*
X112180000Y-104560000D01*
%TO.C,D4*%
X152424656Y-109054356D02*
X151470430Y-109440946D01*
X151470430Y-109440946D02*
X151592300Y-108448400D01*
X151592300Y-108448400D02*
X152424656Y-109054356D01*
X152462976Y-109562816D02*
X152584846Y-108570270D01*
%TO.C,D5*%
X151987018Y-135638748D02*
X151032792Y-136025338D01*
X151032792Y-136025338D02*
X151154662Y-135032792D01*
X151154662Y-135032792D02*
X151987018Y-135638748D01*
X152025338Y-136147208D02*
X152147208Y-135154662D01*
%TO.C,OL1*%
X114480000Y-138360000D02*
X114480000Y-128200000D01*
X111940000Y-138360000D02*
X111940000Y-128200000D01*
X111940000Y-128200000D02*
X114480000Y-128200000D01*
X114480000Y-138360000D02*
X111940000Y-138360000D01*
%TO.C,SW1*%
X79060000Y-139190000D02*
X84760000Y-139190000D01*
X84760000Y-139190000D02*
X84760000Y-138940000D01*
X79060000Y-139190000D02*
X79060000Y-138940000D01*
X79060000Y-135990000D02*
X79060000Y-136240000D01*
X79060000Y-135990000D02*
X84760000Y-135990000D01*
X84760000Y-135990000D02*
X84760000Y-136240000D01*
%TO.C,U1*%
D12*
X77799285Y-128086428D02*
X77049285Y-128086428D01*
X77585000Y-127836428D01*
X77049285Y-127586428D01*
X77799285Y-127586428D01*
X77799285Y-127229285D02*
X77299285Y-127229285D01*
X77049285Y-127229285D02*
X77085000Y-127265000D01*
X77120714Y-127229285D01*
X77085000Y-127193571D01*
X77049285Y-127229285D01*
X77120714Y-127229285D01*
X77763571Y-126550714D02*
X77799285Y-126622142D01*
X77799285Y-126765000D01*
X77763571Y-126836428D01*
X77727857Y-126872142D01*
X77656428Y-126907857D01*
X77442142Y-126907857D01*
X77370714Y-126872142D01*
X77335000Y-126836428D01*
X77299285Y-126765000D01*
X77299285Y-126622142D01*
X77335000Y-126550714D01*
X77799285Y-126229285D02*
X77299285Y-126229285D01*
X77442142Y-126229285D02*
X77370714Y-126193571D01*
X77335000Y-126157857D01*
X77299285Y-126086428D01*
X77299285Y-126015000D01*
X77799285Y-125657857D02*
X77763571Y-125729285D01*
X77727857Y-125765000D01*
X77656428Y-125800714D01*
X77442142Y-125800714D01*
X77370714Y-125765000D01*
X77335000Y-125729285D01*
X77299285Y-125657857D01*
X77299285Y-125550714D01*
X77335000Y-125479285D01*
X77370714Y-125443571D01*
X77442142Y-125407857D01*
X77656428Y-125407857D01*
X77727857Y-125443571D01*
X77763571Y-125479285D01*
X77799285Y-125550714D01*
X77799285Y-125657857D01*
X77049285Y-125086428D02*
X77656428Y-125086428D01*
X77727857Y-125050714D01*
X77763571Y-125015000D01*
X77799285Y-124943571D01*
X77799285Y-124800714D01*
X77763571Y-124729285D01*
X77727857Y-124693571D01*
X77656428Y-124657857D01*
X77049285Y-124657857D01*
X77763571Y-124336428D02*
X77799285Y-124229285D01*
X77799285Y-124050714D01*
X77763571Y-123979285D01*
X77727857Y-123943571D01*
X77656428Y-123907857D01*
X77585000Y-123907857D01*
X77513571Y-123943571D01*
X77477857Y-123979285D01*
X77442142Y-124050714D01*
X77406428Y-124193571D01*
X77370714Y-124265000D01*
X77335000Y-124300714D01*
X77263571Y-124336428D01*
X77192142Y-124336428D01*
X77120714Y-124300714D01*
X77085000Y-124265000D01*
X77049285Y-124193571D01*
X77049285Y-124015000D01*
X77085000Y-123907857D01*
X77406428Y-123336428D02*
X77442142Y-123229285D01*
X77477857Y-123193571D01*
X77549285Y-123157857D01*
X77656428Y-123157857D01*
X77727857Y-123193571D01*
X77763571Y-123229285D01*
X77799285Y-123300714D01*
X77799285Y-123586428D01*
X77049285Y-123586428D01*
X77049285Y-123336428D01*
X77085000Y-123265000D01*
X77120714Y-123229285D01*
X77192142Y-123193571D01*
X77263571Y-123193571D01*
X77335000Y-123229285D01*
X77370714Y-123265000D01*
X77406428Y-123336428D01*
X77406428Y-123586428D01*
D13*
X107256428Y-122176190D02*
X107292142Y-122080476D01*
X107327857Y-122048571D01*
X107399285Y-122016666D01*
X107506428Y-122016666D01*
X107577857Y-122048571D01*
X107613571Y-122080476D01*
X107649285Y-122144285D01*
X107649285Y-122399523D01*
X106899285Y-122399523D01*
X106899285Y-122176190D01*
X106935000Y-122112380D01*
X106970714Y-122080476D01*
X107042142Y-122048571D01*
X107113571Y-122048571D01*
X107185000Y-122080476D01*
X107220714Y-122112380D01*
X107256428Y-122176190D01*
X107256428Y-122399523D01*
X107149285Y-121442380D02*
X107649285Y-121442380D01*
X106863571Y-121601904D02*
X107399285Y-121761428D01*
X107399285Y-121346666D01*
X106863571Y-120612857D02*
X107827857Y-121187142D01*
X107220714Y-120293809D02*
X107185000Y-120357619D01*
X107149285Y-120389523D01*
X107077857Y-120421428D01*
X107042142Y-120421428D01*
X106970714Y-120389523D01*
X106935000Y-120357619D01*
X106899285Y-120293809D01*
X106899285Y-120166190D01*
X106935000Y-120102380D01*
X106970714Y-120070476D01*
X107042142Y-120038571D01*
X107077857Y-120038571D01*
X107149285Y-120070476D01*
X107185000Y-120102380D01*
X107220714Y-120166190D01*
X107220714Y-120293809D01*
X107256428Y-120357619D01*
X107292142Y-120389523D01*
X107363571Y-120421428D01*
X107506428Y-120421428D01*
X107577857Y-120389523D01*
X107613571Y-120357619D01*
X107649285Y-120293809D01*
X107649285Y-120166190D01*
X107613571Y-120102380D01*
X107577857Y-120070476D01*
X107506428Y-120038571D01*
X107363571Y-120038571D01*
X107292142Y-120070476D01*
X107256428Y-120102380D01*
X107220714Y-120166190D01*
X84849285Y-123403571D02*
X84099285Y-123403571D01*
X84099285Y-123244047D01*
X84135000Y-123148333D01*
X84206428Y-123084523D01*
X84277857Y-123052619D01*
X84420714Y-123020714D01*
X84527857Y-123020714D01*
X84670714Y-123052619D01*
X84742142Y-123084523D01*
X84813571Y-123148333D01*
X84849285Y-123244047D01*
X84849285Y-123403571D01*
X84170714Y-122765476D02*
X84135000Y-122733571D01*
X84099285Y-122669761D01*
X84099285Y-122510238D01*
X84135000Y-122446428D01*
X84170714Y-122414523D01*
X84242142Y-122382619D01*
X84313571Y-122382619D01*
X84420714Y-122414523D01*
X84849285Y-122797380D01*
X84849285Y-122382619D01*
X84063571Y-121616904D02*
X85027857Y-122191190D01*
X84849285Y-121010714D02*
X84492142Y-121234047D01*
X84849285Y-121393571D02*
X84099285Y-121393571D01*
X84099285Y-121138333D01*
X84135000Y-121074523D01*
X84170714Y-121042619D01*
X84242142Y-121010714D01*
X84349285Y-121010714D01*
X84420714Y-121042619D01*
X84456428Y-121074523D01*
X84492142Y-121138333D01*
X84492142Y-121393571D01*
X84099285Y-120787380D02*
X84849285Y-120340714D01*
X84099285Y-120340714D02*
X84849285Y-120787380D01*
X84849285Y-119734523D02*
X84849285Y-120117380D01*
X84849285Y-119925952D02*
X84099285Y-119925952D01*
X84206428Y-119989761D01*
X84277857Y-120053571D01*
X84313571Y-120117380D01*
X109756428Y-122176190D02*
X109792142Y-122080476D01*
X109827857Y-122048571D01*
X109899285Y-122016666D01*
X110006428Y-122016666D01*
X110077857Y-122048571D01*
X110113571Y-122080476D01*
X110149285Y-122144285D01*
X110149285Y-122399523D01*
X109399285Y-122399523D01*
X109399285Y-122176190D01*
X109435000Y-122112380D01*
X109470714Y-122080476D01*
X109542142Y-122048571D01*
X109613571Y-122048571D01*
X109685000Y-122080476D01*
X109720714Y-122112380D01*
X109756428Y-122176190D01*
X109756428Y-122399523D01*
X109399285Y-121410476D02*
X109399285Y-121729523D01*
X109756428Y-121761428D01*
X109720714Y-121729523D01*
X109685000Y-121665714D01*
X109685000Y-121506190D01*
X109720714Y-121442380D01*
X109756428Y-121410476D01*
X109827857Y-121378571D01*
X110006428Y-121378571D01*
X110077857Y-121410476D01*
X110113571Y-121442380D01*
X110149285Y-121506190D01*
X110149285Y-121665714D01*
X110113571Y-121729523D01*
X110077857Y-121761428D01*
X109363571Y-120612857D02*
X110327857Y-121187142D01*
X110149285Y-120357619D02*
X110149285Y-120230000D01*
X110113571Y-120166190D01*
X110077857Y-120134285D01*
X109970714Y-120070476D01*
X109827857Y-120038571D01*
X109542142Y-120038571D01*
X109470714Y-120070476D01*
X109435000Y-120102380D01*
X109399285Y-120166190D01*
X109399285Y-120293809D01*
X109435000Y-120357619D01*
X109470714Y-120389523D01*
X109542142Y-120421428D01*
X109720714Y-120421428D01*
X109792142Y-120389523D01*
X109827857Y-120357619D01*
X109863571Y-120293809D01*
X109863571Y-120166190D01*
X109827857Y-120102380D01*
X109792142Y-120070476D01*
X109720714Y-120038571D01*
X99927857Y-122016666D02*
X99963571Y-122048571D01*
X99999285Y-122144285D01*
X99999285Y-122208095D01*
X99963571Y-122303809D01*
X99892142Y-122367619D01*
X99820714Y-122399523D01*
X99677857Y-122431428D01*
X99570714Y-122431428D01*
X99427857Y-122399523D01*
X99356428Y-122367619D01*
X99285000Y-122303809D01*
X99249285Y-122208095D01*
X99249285Y-122144285D01*
X99285000Y-122048571D01*
X99320714Y-122016666D01*
X99249285Y-121442380D02*
X99249285Y-121570000D01*
X99285000Y-121633809D01*
X99320714Y-121665714D01*
X99427857Y-121729523D01*
X99570714Y-121761428D01*
X99856428Y-121761428D01*
X99927857Y-121729523D01*
X99963571Y-121697619D01*
X99999285Y-121633809D01*
X99999285Y-121506190D01*
X99963571Y-121442380D01*
X99927857Y-121410476D01*
X99856428Y-121378571D01*
X99677857Y-121378571D01*
X99606428Y-121410476D01*
X99570714Y-121442380D01*
X99535000Y-121506190D01*
X99535000Y-121633809D01*
X99570714Y-121697619D01*
X99606428Y-121729523D01*
X99677857Y-121761428D01*
X99213571Y-120612857D02*
X100177857Y-121187142D01*
X99249285Y-120070476D02*
X99249285Y-120389523D01*
X99606428Y-120421428D01*
X99570714Y-120389523D01*
X99535000Y-120325714D01*
X99535000Y-120166190D01*
X99570714Y-120102380D01*
X99606428Y-120070476D01*
X99677857Y-120038571D01*
X99856428Y-120038571D01*
X99927857Y-120070476D01*
X99963571Y-120102380D01*
X99999285Y-120166190D01*
X99999285Y-120325714D01*
X99963571Y-120389523D01*
X99927857Y-120421428D01*
X95013571Y-124807619D02*
X95049285Y-124711904D01*
X95049285Y-124552380D01*
X95013571Y-124488571D01*
X94977857Y-124456666D01*
X94906428Y-124424761D01*
X94835000Y-124424761D01*
X94763571Y-124456666D01*
X94727857Y-124488571D01*
X94692142Y-124552380D01*
X94656428Y-124680000D01*
X94620714Y-124743809D01*
X94585000Y-124775714D01*
X94513571Y-124807619D01*
X94442142Y-124807619D01*
X94370714Y-124775714D01*
X94335000Y-124743809D01*
X94299285Y-124680000D01*
X94299285Y-124520476D01*
X94335000Y-124424761D01*
X94977857Y-123754761D02*
X95013571Y-123786666D01*
X95049285Y-123882380D01*
X95049285Y-123946190D01*
X95013571Y-124041904D01*
X94942142Y-124105714D01*
X94870714Y-124137619D01*
X94727857Y-124169523D01*
X94620714Y-124169523D01*
X94477857Y-124137619D01*
X94406428Y-124105714D01*
X94335000Y-124041904D01*
X94299285Y-123946190D01*
X94299285Y-123882380D01*
X94335000Y-123786666D01*
X94370714Y-123754761D01*
X95049285Y-123148571D02*
X95049285Y-123467619D01*
X94299285Y-123467619D01*
X94263571Y-122446666D02*
X95227857Y-123020952D01*
X95049285Y-122223333D02*
X94299285Y-122223333D01*
X94299285Y-122063809D01*
X94335000Y-121968095D01*
X94406428Y-121904285D01*
X94477857Y-121872380D01*
X94620714Y-121840476D01*
X94727857Y-121840476D01*
X94870714Y-121872380D01*
X94942142Y-121904285D01*
X95013571Y-121968095D01*
X95049285Y-122063809D01*
X95049285Y-122223333D01*
X94299285Y-121425714D02*
X94299285Y-121361904D01*
X94335000Y-121298095D01*
X94370714Y-121266190D01*
X94442142Y-121234285D01*
X94585000Y-121202380D01*
X94763571Y-121202380D01*
X94906428Y-121234285D01*
X94977857Y-121266190D01*
X95013571Y-121298095D01*
X95049285Y-121361904D01*
X95049285Y-121425714D01*
X95013571Y-121489523D01*
X94977857Y-121521428D01*
X94906428Y-121553333D01*
X94763571Y-121585238D01*
X94585000Y-121585238D01*
X94442142Y-121553333D01*
X94370714Y-121521428D01*
X94335000Y-121489523D01*
X94299285Y-121425714D01*
X94263571Y-120436666D02*
X95227857Y-121010952D01*
X94299285Y-120277142D02*
X94299285Y-119862380D01*
X94585000Y-120085714D01*
X94585000Y-119990000D01*
X94620714Y-119926190D01*
X94656428Y-119894285D01*
X94727857Y-119862380D01*
X94906428Y-119862380D01*
X94977857Y-119894285D01*
X95013571Y-119926190D01*
X95049285Y-119990000D01*
X95049285Y-120181428D01*
X95013571Y-120245238D01*
X94977857Y-120277142D01*
X92513571Y-124823571D02*
X92549285Y-124727857D01*
X92549285Y-124568333D01*
X92513571Y-124504523D01*
X92477857Y-124472619D01*
X92406428Y-124440714D01*
X92335000Y-124440714D01*
X92263571Y-124472619D01*
X92227857Y-124504523D01*
X92192142Y-124568333D01*
X92156428Y-124695952D01*
X92120714Y-124759761D01*
X92085000Y-124791666D01*
X92013571Y-124823571D01*
X91942142Y-124823571D01*
X91870714Y-124791666D01*
X91835000Y-124759761D01*
X91799285Y-124695952D01*
X91799285Y-124536428D01*
X91835000Y-124440714D01*
X92549285Y-124153571D02*
X91799285Y-124153571D01*
X91799285Y-123994047D01*
X91835000Y-123898333D01*
X91906428Y-123834523D01*
X91977857Y-123802619D01*
X92120714Y-123770714D01*
X92227857Y-123770714D01*
X92370714Y-123802619D01*
X92442142Y-123834523D01*
X92513571Y-123898333D01*
X92549285Y-123994047D01*
X92549285Y-124153571D01*
X92335000Y-123515476D02*
X92335000Y-123196428D01*
X92549285Y-123579285D02*
X91799285Y-123355952D01*
X92549285Y-123132619D01*
X91763571Y-122430714D02*
X92727857Y-123005000D01*
X92549285Y-122207380D02*
X91799285Y-122207380D01*
X91799285Y-122047857D01*
X91835000Y-121952142D01*
X91906428Y-121888333D01*
X91977857Y-121856428D01*
X92120714Y-121824523D01*
X92227857Y-121824523D01*
X92370714Y-121856428D01*
X92442142Y-121888333D01*
X92513571Y-121952142D01*
X92549285Y-122047857D01*
X92549285Y-122207380D01*
X92549285Y-121186428D02*
X92549285Y-121569285D01*
X92549285Y-121377857D02*
X91799285Y-121377857D01*
X91906428Y-121441666D01*
X91977857Y-121505476D01*
X92013571Y-121569285D01*
X91763571Y-120420714D02*
X92727857Y-120995000D01*
X91870714Y-120229285D02*
X91835000Y-120197380D01*
X91799285Y-120133571D01*
X91799285Y-119974047D01*
X91835000Y-119910238D01*
X91870714Y-119878333D01*
X91942142Y-119846428D01*
X92013571Y-119846428D01*
X92120714Y-119878333D01*
X92549285Y-120261190D01*
X92549285Y-119846428D01*
X97449285Y-122399523D02*
X96699285Y-122399523D01*
X96699285Y-122240000D01*
X96735000Y-122144285D01*
X96806428Y-122080476D01*
X96877857Y-122048571D01*
X97020714Y-122016666D01*
X97127857Y-122016666D01*
X97270714Y-122048571D01*
X97342142Y-122080476D01*
X97413571Y-122144285D01*
X97449285Y-122240000D01*
X97449285Y-122399523D01*
X96949285Y-121442380D02*
X97449285Y-121442380D01*
X96663571Y-121601904D02*
X97199285Y-121761428D01*
X97199285Y-121346666D01*
X96663571Y-120612857D02*
X97627857Y-121187142D01*
X96949285Y-120102380D02*
X97449285Y-120102380D01*
X96663571Y-120261904D02*
X97199285Y-120421428D01*
X97199285Y-120006666D01*
X82299285Y-123323809D02*
X81549285Y-123323809D01*
X81549285Y-123164285D01*
X81585000Y-123068571D01*
X81656428Y-123004761D01*
X81727857Y-122972857D01*
X81870714Y-122940952D01*
X81977857Y-122940952D01*
X82120714Y-122972857D01*
X82192142Y-123004761D01*
X82263571Y-123068571D01*
X82299285Y-123164285D01*
X82299285Y-123323809D01*
X81549285Y-122717619D02*
X81549285Y-122302857D01*
X81835000Y-122526190D01*
X81835000Y-122430476D01*
X81870714Y-122366666D01*
X81906428Y-122334761D01*
X81977857Y-122302857D01*
X82156428Y-122302857D01*
X82227857Y-122334761D01*
X82263571Y-122366666D01*
X82299285Y-122430476D01*
X82299285Y-122621904D01*
X82263571Y-122685714D01*
X82227857Y-122717619D01*
X81513571Y-121537142D02*
X82477857Y-122111428D01*
X81549285Y-121409523D02*
X81549285Y-121026666D01*
X82299285Y-121218095D02*
X81549285Y-121218095D01*
X81549285Y-120867142D02*
X82299285Y-120420476D01*
X81549285Y-120420476D02*
X82299285Y-120867142D01*
X81549285Y-120037619D02*
X81549285Y-119973809D01*
X81585000Y-119910000D01*
X81620714Y-119878095D01*
X81692142Y-119846190D01*
X81835000Y-119814285D01*
X82013571Y-119814285D01*
X82156428Y-119846190D01*
X82227857Y-119878095D01*
X82263571Y-119910000D01*
X82299285Y-119973809D01*
X82299285Y-120037619D01*
X82263571Y-120101428D01*
X82227857Y-120133333D01*
X82156428Y-120165238D01*
X82013571Y-120197142D01*
X81835000Y-120197142D01*
X81692142Y-120165238D01*
X81620714Y-120133333D01*
X81585000Y-120101428D01*
X81549285Y-120037619D01*
X89185000Y-121245476D02*
X89149285Y-121309285D01*
X89149285Y-121405000D01*
X89185000Y-121500714D01*
X89256428Y-121564523D01*
X89327857Y-121596428D01*
X89470714Y-121628333D01*
X89577857Y-121628333D01*
X89720714Y-121596428D01*
X89792142Y-121564523D01*
X89863571Y-121500714D01*
X89899285Y-121405000D01*
X89899285Y-121341190D01*
X89863571Y-121245476D01*
X89827857Y-121213571D01*
X89577857Y-121213571D01*
X89577857Y-121341190D01*
X89899285Y-120926428D02*
X89149285Y-120926428D01*
X89899285Y-120543571D01*
X89149285Y-120543571D01*
X89899285Y-120224523D02*
X89149285Y-120224523D01*
X89149285Y-120065000D01*
X89185000Y-119969285D01*
X89256428Y-119905476D01*
X89327857Y-119873571D01*
X89470714Y-119841666D01*
X89577857Y-119841666D01*
X89720714Y-119873571D01*
X89792142Y-119905476D01*
X89863571Y-119969285D01*
X89899285Y-120065000D01*
X89899285Y-120224523D01*
X86735000Y-121245476D02*
X86699285Y-121309285D01*
X86699285Y-121405000D01*
X86735000Y-121500714D01*
X86806428Y-121564523D01*
X86877857Y-121596428D01*
X87020714Y-121628333D01*
X87127857Y-121628333D01*
X87270714Y-121596428D01*
X87342142Y-121564523D01*
X87413571Y-121500714D01*
X87449285Y-121405000D01*
X87449285Y-121341190D01*
X87413571Y-121245476D01*
X87377857Y-121213571D01*
X87127857Y-121213571D01*
X87127857Y-121341190D01*
X87449285Y-120926428D02*
X86699285Y-120926428D01*
X87449285Y-120543571D01*
X86699285Y-120543571D01*
X87449285Y-120224523D02*
X86699285Y-120224523D01*
X86699285Y-120065000D01*
X86735000Y-119969285D01*
X86806428Y-119905476D01*
X86877857Y-119873571D01*
X87020714Y-119841666D01*
X87127857Y-119841666D01*
X87270714Y-119873571D01*
X87342142Y-119905476D01*
X87413571Y-119969285D01*
X87449285Y-120065000D01*
X87449285Y-120224523D01*
X102549285Y-122399523D02*
X101799285Y-122399523D01*
X101799285Y-122240000D01*
X101835000Y-122144285D01*
X101906428Y-122080476D01*
X101977857Y-122048571D01*
X102120714Y-122016666D01*
X102227857Y-122016666D01*
X102370714Y-122048571D01*
X102442142Y-122080476D01*
X102513571Y-122144285D01*
X102549285Y-122240000D01*
X102549285Y-122399523D01*
X101799285Y-121793333D02*
X101799285Y-121346666D01*
X102549285Y-121633809D01*
X101763571Y-120612857D02*
X102727857Y-121187142D01*
X101799285Y-120102380D02*
X101799285Y-120230000D01*
X101835000Y-120293809D01*
X101870714Y-120325714D01*
X101977857Y-120389523D01*
X102120714Y-120421428D01*
X102406428Y-120421428D01*
X102477857Y-120389523D01*
X102513571Y-120357619D01*
X102549285Y-120293809D01*
X102549285Y-120166190D01*
X102513571Y-120102380D01*
X102477857Y-120070476D01*
X102406428Y-120038571D01*
X102227857Y-120038571D01*
X102156428Y-120070476D01*
X102120714Y-120102380D01*
X102085000Y-120166190D01*
X102085000Y-120293809D01*
X102120714Y-120357619D01*
X102156428Y-120389523D01*
X102227857Y-120421428D01*
X104706428Y-122367619D02*
X104706428Y-122144285D01*
X105099285Y-122048571D02*
X105099285Y-122367619D01*
X104349285Y-122367619D01*
X104349285Y-122048571D01*
X104349285Y-121474285D02*
X104349285Y-121601904D01*
X104385000Y-121665714D01*
X104420714Y-121697619D01*
X104527857Y-121761428D01*
X104670714Y-121793333D01*
X104956428Y-121793333D01*
X105027857Y-121761428D01*
X105063571Y-121729523D01*
X105099285Y-121665714D01*
X105099285Y-121538095D01*
X105063571Y-121474285D01*
X105027857Y-121442380D01*
X104956428Y-121410476D01*
X104777857Y-121410476D01*
X104706428Y-121442380D01*
X104670714Y-121474285D01*
X104635000Y-121538095D01*
X104635000Y-121665714D01*
X104670714Y-121729523D01*
X104706428Y-121761428D01*
X104777857Y-121793333D01*
X104313571Y-120644761D02*
X105277857Y-121219047D01*
X104349285Y-120485238D02*
X104349285Y-120038571D01*
X105099285Y-120325714D01*
X107749285Y-131222619D02*
X107749285Y-131605476D01*
X107749285Y-131414047D02*
X106999285Y-131414047D01*
X107106428Y-131477857D01*
X107177857Y-131541666D01*
X107213571Y-131605476D01*
X106999285Y-130648333D02*
X106999285Y-130775952D01*
X107035000Y-130839761D01*
X107070714Y-130871666D01*
X107177857Y-130935476D01*
X107320714Y-130967380D01*
X107606428Y-130967380D01*
X107677857Y-130935476D01*
X107713571Y-130903571D01*
X107749285Y-130839761D01*
X107749285Y-130712142D01*
X107713571Y-130648333D01*
X107677857Y-130616428D01*
X107606428Y-130584523D01*
X107427857Y-130584523D01*
X107356428Y-130616428D01*
X107320714Y-130648333D01*
X107285000Y-130712142D01*
X107285000Y-130839761D01*
X107320714Y-130903571D01*
X107356428Y-130935476D01*
X107427857Y-130967380D01*
X106963571Y-129818809D02*
X107927857Y-130393095D01*
X107356428Y-129372142D02*
X107392142Y-129276428D01*
X107427857Y-129244523D01*
X107499285Y-129212619D01*
X107606428Y-129212619D01*
X107677857Y-129244523D01*
X107713571Y-129276428D01*
X107749285Y-129340238D01*
X107749285Y-129595476D01*
X106999285Y-129595476D01*
X106999285Y-129372142D01*
X107035000Y-129308333D01*
X107070714Y-129276428D01*
X107142142Y-129244523D01*
X107213571Y-129244523D01*
X107285000Y-129276428D01*
X107320714Y-129308333D01*
X107356428Y-129372142D01*
X107356428Y-129595476D01*
X107070714Y-128957380D02*
X107035000Y-128925476D01*
X106999285Y-128861666D01*
X106999285Y-128702142D01*
X107035000Y-128638333D01*
X107070714Y-128606428D01*
X107142142Y-128574523D01*
X107213571Y-128574523D01*
X107320714Y-128606428D01*
X107749285Y-128989285D01*
X107749285Y-128574523D01*
X110199285Y-131222619D02*
X110199285Y-131605476D01*
X110199285Y-131414047D02*
X109449285Y-131414047D01*
X109556428Y-131477857D01*
X109627857Y-131541666D01*
X109663571Y-131605476D01*
X109449285Y-130807857D02*
X109449285Y-130744047D01*
X109485000Y-130680238D01*
X109520714Y-130648333D01*
X109592142Y-130616428D01*
X109735000Y-130584523D01*
X109913571Y-130584523D01*
X110056428Y-130616428D01*
X110127857Y-130648333D01*
X110163571Y-130680238D01*
X110199285Y-130744047D01*
X110199285Y-130807857D01*
X110163571Y-130871666D01*
X110127857Y-130903571D01*
X110056428Y-130935476D01*
X109913571Y-130967380D01*
X109735000Y-130967380D01*
X109592142Y-130935476D01*
X109520714Y-130903571D01*
X109485000Y-130871666D01*
X109449285Y-130807857D01*
X109413571Y-129818809D02*
X110377857Y-130393095D01*
X109806428Y-129372142D02*
X109842142Y-129276428D01*
X109877857Y-129244523D01*
X109949285Y-129212619D01*
X110056428Y-129212619D01*
X110127857Y-129244523D01*
X110163571Y-129276428D01*
X110199285Y-129340238D01*
X110199285Y-129595476D01*
X109449285Y-129595476D01*
X109449285Y-129372142D01*
X109485000Y-129308333D01*
X109520714Y-129276428D01*
X109592142Y-129244523D01*
X109663571Y-129244523D01*
X109735000Y-129276428D01*
X109770714Y-129308333D01*
X109806428Y-129372142D01*
X109806428Y-129595476D01*
X109449285Y-128638333D02*
X109449285Y-128765952D01*
X109485000Y-128829761D01*
X109520714Y-128861666D01*
X109627857Y-128925476D01*
X109770714Y-128957380D01*
X110056428Y-128957380D01*
X110127857Y-128925476D01*
X110163571Y-128893571D01*
X110199285Y-128829761D01*
X110199285Y-128702142D01*
X110163571Y-128638333D01*
X110127857Y-128606428D01*
X110056428Y-128574523D01*
X109877857Y-128574523D01*
X109806428Y-128606428D01*
X109770714Y-128638333D01*
X109735000Y-128702142D01*
X109735000Y-128829761D01*
X109770714Y-128893571D01*
X109806428Y-128925476D01*
X109877857Y-128957380D01*
X105149285Y-131067619D02*
X105149285Y-131450476D01*
X105149285Y-131259047D02*
X104399285Y-131259047D01*
X104506428Y-131322857D01*
X104577857Y-131386666D01*
X104613571Y-131450476D01*
X104649285Y-130493333D02*
X105149285Y-130493333D01*
X104363571Y-130652857D02*
X104899285Y-130812380D01*
X104899285Y-130397619D01*
X104363571Y-129663809D02*
X105327857Y-130238095D01*
X104756428Y-129217142D02*
X104792142Y-129121428D01*
X104827857Y-129089523D01*
X104899285Y-129057619D01*
X105006428Y-129057619D01*
X105077857Y-129089523D01*
X105113571Y-129121428D01*
X105149285Y-129185238D01*
X105149285Y-129440476D01*
X104399285Y-129440476D01*
X104399285Y-129217142D01*
X104435000Y-129153333D01*
X104470714Y-129121428D01*
X104542142Y-129089523D01*
X104613571Y-129089523D01*
X104685000Y-129121428D01*
X104720714Y-129153333D01*
X104756428Y-129217142D01*
X104756428Y-129440476D01*
X104399285Y-128834285D02*
X104399285Y-128419523D01*
X104685000Y-128642857D01*
X104685000Y-128547142D01*
X104720714Y-128483333D01*
X104756428Y-128451428D01*
X104827857Y-128419523D01*
X105006428Y-128419523D01*
X105077857Y-128451428D01*
X105113571Y-128483333D01*
X105149285Y-128547142D01*
X105149285Y-128738571D01*
X105113571Y-128802380D01*
X105077857Y-128834285D01*
X102599285Y-131067619D02*
X102599285Y-131450476D01*
X102599285Y-131259047D02*
X101849285Y-131259047D01*
X101956428Y-131322857D01*
X102027857Y-131386666D01*
X102063571Y-131450476D01*
X101849285Y-130461428D02*
X101849285Y-130780476D01*
X102206428Y-130812380D01*
X102170714Y-130780476D01*
X102135000Y-130716666D01*
X102135000Y-130557142D01*
X102170714Y-130493333D01*
X102206428Y-130461428D01*
X102277857Y-130429523D01*
X102456428Y-130429523D01*
X102527857Y-130461428D01*
X102563571Y-130493333D01*
X102599285Y-130557142D01*
X102599285Y-130716666D01*
X102563571Y-130780476D01*
X102527857Y-130812380D01*
X101813571Y-129663809D02*
X102777857Y-130238095D01*
X102206428Y-129217142D02*
X102242142Y-129121428D01*
X102277857Y-129089523D01*
X102349285Y-129057619D01*
X102456428Y-129057619D01*
X102527857Y-129089523D01*
X102563571Y-129121428D01*
X102599285Y-129185238D01*
X102599285Y-129440476D01*
X101849285Y-129440476D01*
X101849285Y-129217142D01*
X101885000Y-129153333D01*
X101920714Y-129121428D01*
X101992142Y-129089523D01*
X102063571Y-129089523D01*
X102135000Y-129121428D01*
X102170714Y-129153333D01*
X102206428Y-129217142D01*
X102206428Y-129440476D01*
X102599285Y-128419523D02*
X102599285Y-128802380D01*
X102599285Y-128610952D02*
X101849285Y-128610952D01*
X101956428Y-128674761D01*
X102027857Y-128738571D01*
X102063571Y-128802380D01*
X99835000Y-131370714D02*
X99835000Y-131051666D01*
X100049285Y-131434523D02*
X99299285Y-131211190D01*
X100049285Y-130987857D01*
X99299285Y-130636904D02*
X99299285Y-130573095D01*
X99335000Y-130509285D01*
X99370714Y-130477380D01*
X99442142Y-130445476D01*
X99585000Y-130413571D01*
X99763571Y-130413571D01*
X99906428Y-130445476D01*
X99977857Y-130477380D01*
X100013571Y-130509285D01*
X100049285Y-130573095D01*
X100049285Y-130636904D01*
X100013571Y-130700714D01*
X99977857Y-130732619D01*
X99906428Y-130764523D01*
X99763571Y-130796428D01*
X99585000Y-130796428D01*
X99442142Y-130764523D01*
X99370714Y-130732619D01*
X99335000Y-130700714D01*
X99299285Y-130636904D01*
X99263571Y-129647857D02*
X100227857Y-130222142D01*
X99656428Y-129201190D02*
X99656428Y-129424523D01*
X100049285Y-129424523D02*
X99299285Y-129424523D01*
X99299285Y-129105476D01*
X99299285Y-128914047D02*
X99299285Y-128467380D01*
X100049285Y-128754523D01*
X97285000Y-131370714D02*
X97285000Y-131051666D01*
X97499285Y-131434523D02*
X96749285Y-131211190D01*
X97499285Y-130987857D01*
X97499285Y-130413571D02*
X97499285Y-130796428D01*
X97499285Y-130605000D02*
X96749285Y-130605000D01*
X96856428Y-130668809D01*
X96927857Y-130732619D01*
X96963571Y-130796428D01*
X96713571Y-129647857D02*
X97677857Y-130222142D01*
X97106428Y-129201190D02*
X97106428Y-129424523D01*
X97499285Y-129424523D02*
X96749285Y-129424523D01*
X96749285Y-129105476D01*
X96749285Y-128563095D02*
X96749285Y-128690714D01*
X96785000Y-128754523D01*
X96820714Y-128786428D01*
X96927857Y-128850238D01*
X97070714Y-128882142D01*
X97356428Y-128882142D01*
X97427857Y-128850238D01*
X97463571Y-128818333D01*
X97499285Y-128754523D01*
X97499285Y-128626904D01*
X97463571Y-128563095D01*
X97427857Y-128531190D01*
X97356428Y-128499285D01*
X97177857Y-128499285D01*
X97106428Y-128531190D01*
X97070714Y-128563095D01*
X97035000Y-128626904D01*
X97035000Y-128754523D01*
X97070714Y-128818333D01*
X97106428Y-128850238D01*
X97177857Y-128882142D01*
X94785000Y-131370714D02*
X94785000Y-131051666D01*
X94999285Y-131434523D02*
X94249285Y-131211190D01*
X94999285Y-130987857D01*
X94320714Y-130796428D02*
X94285000Y-130764523D01*
X94249285Y-130700714D01*
X94249285Y-130541190D01*
X94285000Y-130477380D01*
X94320714Y-130445476D01*
X94392142Y-130413571D01*
X94463571Y-130413571D01*
X94570714Y-130445476D01*
X94999285Y-130828333D01*
X94999285Y-130413571D01*
X94213571Y-129647857D02*
X95177857Y-130222142D01*
X94606428Y-129201190D02*
X94606428Y-129424523D01*
X94999285Y-129424523D02*
X94249285Y-129424523D01*
X94249285Y-129105476D01*
X94249285Y-128531190D02*
X94249285Y-128850238D01*
X94606428Y-128882142D01*
X94570714Y-128850238D01*
X94535000Y-128786428D01*
X94535000Y-128626904D01*
X94570714Y-128563095D01*
X94606428Y-128531190D01*
X94677857Y-128499285D01*
X94856428Y-128499285D01*
X94927857Y-128531190D01*
X94963571Y-128563095D01*
X94999285Y-128626904D01*
X94999285Y-128786428D01*
X94963571Y-128850238D01*
X94927857Y-128882142D01*
X92285000Y-131370714D02*
X92285000Y-131051666D01*
X92499285Y-131434523D02*
X91749285Y-131211190D01*
X92499285Y-130987857D01*
X91749285Y-130828333D02*
X91749285Y-130413571D01*
X92035000Y-130636904D01*
X92035000Y-130541190D01*
X92070714Y-130477380D01*
X92106428Y-130445476D01*
X92177857Y-130413571D01*
X92356428Y-130413571D01*
X92427857Y-130445476D01*
X92463571Y-130477380D01*
X92499285Y-130541190D01*
X92499285Y-130732619D01*
X92463571Y-130796428D01*
X92427857Y-130828333D01*
X91713571Y-129647857D02*
X92677857Y-130222142D01*
X92106428Y-129201190D02*
X92106428Y-129424523D01*
X92499285Y-129424523D02*
X91749285Y-129424523D01*
X91749285Y-129105476D01*
X91999285Y-128563095D02*
X92499285Y-128563095D01*
X91713571Y-128722619D02*
X92249285Y-128882142D01*
X92249285Y-128467380D01*
X89049285Y-131478333D02*
X89799285Y-131255000D01*
X89049285Y-131031666D01*
X89727857Y-130425476D02*
X89763571Y-130457380D01*
X89799285Y-130553095D01*
X89799285Y-130616904D01*
X89763571Y-130712619D01*
X89692142Y-130776428D01*
X89620714Y-130808333D01*
X89477857Y-130840238D01*
X89370714Y-130840238D01*
X89227857Y-130808333D01*
X89156428Y-130776428D01*
X89085000Y-130712619D01*
X89049285Y-130616904D01*
X89049285Y-130553095D01*
X89085000Y-130457380D01*
X89120714Y-130425476D01*
X89727857Y-129755476D02*
X89763571Y-129787380D01*
X89799285Y-129883095D01*
X89799285Y-129946904D01*
X89763571Y-130042619D01*
X89692142Y-130106428D01*
X89620714Y-130138333D01*
X89477857Y-130170238D01*
X89370714Y-130170238D01*
X89227857Y-130138333D01*
X89156428Y-130106428D01*
X89085000Y-130042619D01*
X89049285Y-129946904D01*
X89049285Y-129883095D01*
X89085000Y-129787380D01*
X89120714Y-129755476D01*
X87349285Y-130951904D02*
X86992142Y-131175238D01*
X87349285Y-131334761D02*
X86599285Y-131334761D01*
X86599285Y-131079523D01*
X86635000Y-131015714D01*
X86670714Y-130983809D01*
X86742142Y-130951904D01*
X86849285Y-130951904D01*
X86920714Y-130983809D01*
X86956428Y-131015714D01*
X86992142Y-131079523D01*
X86992142Y-131334761D01*
X87313571Y-130696666D02*
X87349285Y-130600952D01*
X87349285Y-130441428D01*
X87313571Y-130377619D01*
X87277857Y-130345714D01*
X87206428Y-130313809D01*
X87135000Y-130313809D01*
X87063571Y-130345714D01*
X87027857Y-130377619D01*
X86992142Y-130441428D01*
X86956428Y-130569047D01*
X86920714Y-130632857D01*
X86885000Y-130664761D01*
X86813571Y-130696666D01*
X86742142Y-130696666D01*
X86670714Y-130664761D01*
X86635000Y-130632857D01*
X86599285Y-130569047D01*
X86599285Y-130409523D01*
X86635000Y-130313809D01*
X86599285Y-130122380D02*
X86599285Y-129739523D01*
X87349285Y-129930952D02*
X86599285Y-129930952D01*
X84085000Y-131095476D02*
X84049285Y-131159285D01*
X84049285Y-131255000D01*
X84085000Y-131350714D01*
X84156428Y-131414523D01*
X84227857Y-131446428D01*
X84370714Y-131478333D01*
X84477857Y-131478333D01*
X84620714Y-131446428D01*
X84692142Y-131414523D01*
X84763571Y-131350714D01*
X84799285Y-131255000D01*
X84799285Y-131191190D01*
X84763571Y-131095476D01*
X84727857Y-131063571D01*
X84477857Y-131063571D01*
X84477857Y-131191190D01*
X84799285Y-130776428D02*
X84049285Y-130776428D01*
X84799285Y-130393571D01*
X84049285Y-130393571D01*
X84799285Y-130074523D02*
X84049285Y-130074523D01*
X84049285Y-129915000D01*
X84085000Y-129819285D01*
X84156428Y-129755476D01*
X84227857Y-129723571D01*
X84370714Y-129691666D01*
X84477857Y-129691666D01*
X84620714Y-129723571D01*
X84692142Y-129755476D01*
X84763571Y-129819285D01*
X84799285Y-129915000D01*
X84799285Y-130074523D01*
X82249285Y-131047619D02*
X81892142Y-131270952D01*
X82249285Y-131430476D02*
X81499285Y-131430476D01*
X81499285Y-131175238D01*
X81535000Y-131111428D01*
X81570714Y-131079523D01*
X81642142Y-131047619D01*
X81749285Y-131047619D01*
X81820714Y-131079523D01*
X81856428Y-131111428D01*
X81892142Y-131175238D01*
X81892142Y-131430476D01*
X82035000Y-130792380D02*
X82035000Y-130473333D01*
X82249285Y-130856190D02*
X81499285Y-130632857D01*
X82249285Y-130409523D01*
X81499285Y-130250000D02*
X82249285Y-130090476D01*
X81713571Y-129962857D01*
X82249285Y-129835238D01*
X81499285Y-129675714D01*
D11*
%TO.C,OL1*%
X114862380Y-135042380D02*
X114862380Y-134851904D01*
X114910000Y-134756666D01*
X115005238Y-134661428D01*
X115195714Y-134613809D01*
X115529047Y-134613809D01*
X115719523Y-134661428D01*
X115814761Y-134756666D01*
X115862380Y-134851904D01*
X115862380Y-135042380D01*
X115814761Y-135137619D01*
X115719523Y-135232857D01*
X115529047Y-135280476D01*
X115195714Y-135280476D01*
X115005238Y-135232857D01*
X114910000Y-135137619D01*
X114862380Y-135042380D01*
X115862380Y-133709047D02*
X115862380Y-134185238D01*
X114862380Y-134185238D01*
X115338571Y-133375714D02*
X115338571Y-133042380D01*
X115862380Y-132899523D02*
X115862380Y-133375714D01*
X114862380Y-133375714D01*
X114862380Y-132899523D01*
X115862380Y-132470952D02*
X114862380Y-132470952D01*
X114862380Y-132232857D01*
X114910000Y-132090000D01*
X115005238Y-131994761D01*
X115100476Y-131947142D01*
X115290952Y-131899523D01*
X115433809Y-131899523D01*
X115624285Y-131947142D01*
X115719523Y-131994761D01*
X115814761Y-132090000D01*
X115862380Y-132232857D01*
X115862380Y-132470952D01*
%TO.C,SW1*%
X80457619Y-138042380D02*
X80124285Y-137566190D01*
X79886190Y-138042380D02*
X79886190Y-137042380D01*
X80267142Y-137042380D01*
X80362380Y-137090000D01*
X80410000Y-137137619D01*
X80457619Y-137232857D01*
X80457619Y-137375714D01*
X80410000Y-137470952D01*
X80362380Y-137518571D01*
X80267142Y-137566190D01*
X79886190Y-137566190D01*
X80886190Y-137518571D02*
X81219523Y-137518571D01*
X81362380Y-138042380D02*
X80886190Y-138042380D01*
X80886190Y-137042380D01*
X81362380Y-137042380D01*
X81743333Y-137994761D02*
X81886190Y-138042380D01*
X82124285Y-138042380D01*
X82219523Y-137994761D01*
X82267142Y-137947142D01*
X82314761Y-137851904D01*
X82314761Y-137756666D01*
X82267142Y-137661428D01*
X82219523Y-137613809D01*
X82124285Y-137566190D01*
X81933809Y-137518571D01*
X81838571Y-137470952D01*
X81790952Y-137423333D01*
X81743333Y-137328095D01*
X81743333Y-137232857D01*
X81790952Y-137137619D01*
X81838571Y-137090000D01*
X81933809Y-137042380D01*
X82171904Y-137042380D01*
X82314761Y-137090000D01*
X82743333Y-137518571D02*
X83076666Y-137518571D01*
X83219523Y-138042380D02*
X82743333Y-138042380D01*
X82743333Y-137042380D01*
X83219523Y-137042380D01*
X83505238Y-137042380D02*
X84076666Y-137042380D01*
X83790952Y-138042380D02*
X83790952Y-137042380D01*
%TD*%
M02*
