%TF.GenerationSoftware,KiCad,Pcbnew,(5.1.9-0-10_14)*%
%TF.CreationDate,2021-05-28T20:21:16+09:00*%
%TF.ProjectId,quali5,7175616c-6935-42e6-9b69-6361645f7063,rev?*%
%TF.SameCoordinates,Original*%
%TF.FileFunction,Copper,L2,Bot*%
%TF.FilePolarity,Positive*%
%FSLAX46Y46*%
G04 Gerber Fmt 4.6, Leading zero omitted, Abs format (unit mm)*
G04 Created by KiCad (PCBNEW (5.1.9-0-10_14)) date 2021-05-28 20:21:16*
%MOMM*%
%LPD*%
G01*
G04 APERTURE LIST*
%TA.AperFunction,ComponentPad*%
%ADD10C,1.524000*%
%TD*%
%TA.AperFunction,ComponentPad*%
%ADD11O,1.778000X1.397000*%
%TD*%
%TA.AperFunction,ComponentPad*%
%ADD12R,1.778000X1.397000*%
%TD*%
%TA.AperFunction,SMDPad,CuDef*%
%ADD13C,0.100000*%
%TD*%
%TA.AperFunction,ComponentPad*%
%ADD14O,2.200000X1.500000*%
%TD*%
%TA.AperFunction,SMDPad,CuDef*%
%ADD15R,2.600000X2.600000*%
%TD*%
%TA.AperFunction,ComponentPad*%
%ADD16C,0.100000*%
%TD*%
%TA.AperFunction,ComponentPad*%
%ADD17C,1.397000*%
%TD*%
%TA.AperFunction,ComponentPad*%
%ADD18C,2.000000*%
%TD*%
%TA.AperFunction,Conductor*%
%ADD19C,0.250000*%
%TD*%
%TA.AperFunction,Conductor*%
%ADD20C,0.500000*%
%TD*%
%TA.AperFunction,Conductor*%
%ADD21C,0.254000*%
%TD*%
%TA.AperFunction,Conductor*%
%ADD22C,0.100000*%
%TD*%
G04 APERTURE END LIST*
D10*
%TO.P,U1,1*%
%TO.N,N/C*%
X81932000Y-117978600D03*
%TO.P,U1,2*%
X84472000Y-117978600D03*
%TO.P,U1,3*%
%TO.N,GND*%
X87012000Y-117978600D03*
%TO.P,U1,4*%
X89552000Y-117978600D03*
%TO.P,U1,5*%
%TO.N,SDA*%
X92092000Y-117978600D03*
%TO.P,U1,6*%
%TO.N,SCL*%
X94632000Y-117978600D03*
%TO.P,U1,7*%
%TO.N,N/C*%
X97172000Y-117978600D03*
%TO.P,U1,8*%
X99712000Y-117978600D03*
%TO.P,U1,9*%
%TO.N,row0*%
X102252000Y-117978600D03*
%TO.P,U1,10*%
%TO.N,row1*%
X104792000Y-117978600D03*
%TO.P,U1,11*%
%TO.N,row2*%
X107332000Y-117978600D03*
%TO.P,U1,12*%
%TO.N,row3*%
X109872000Y-117978600D03*
%TO.P,U1,13*%
%TO.N,col1*%
X109872000Y-133198600D03*
%TO.P,U1,14*%
%TO.N,col0*%
X107332000Y-133198600D03*
%TO.P,U1,15*%
%TO.N,N/C*%
X104792000Y-133198600D03*
%TO.P,U1,16*%
X102252000Y-133198600D03*
%TO.P,U1,17*%
X99712000Y-133198600D03*
%TO.P,U1,18*%
X97172000Y-133198600D03*
%TO.P,U1,19*%
X94632000Y-133198600D03*
%TO.P,U1,20*%
X92092000Y-133198600D03*
%TO.P,U1,21*%
%TO.N,VCC*%
X89552000Y-133198600D03*
%TO.P,U1,22*%
%TO.N,RST*%
X87012000Y-133198600D03*
%TO.P,U1,23*%
%TO.N,GND*%
X84472000Y-133198600D03*
%TO.P,U1,24*%
%TO.N,N/C*%
X81932000Y-133198600D03*
%TD*%
D11*
%TO.P,D3,2*%
%TO.N,Net-(D3-Pad2)*%
X129540000Y-104060000D03*
D12*
%TO.P,D3,1*%
%TO.N,row2*%
X135540000Y-104060000D03*
%TD*%
%TA.AperFunction,SMDPad,CuDef*%
D13*
%TO.P,SW2,2*%
%TO.N,Net-(D1-Pad2)*%
G36*
X86451764Y-102153145D02*
G01*
X85477786Y-99742467D01*
X87888464Y-98768489D01*
X88862442Y-101179167D01*
X86451764Y-102153145D01*
G37*
%TD.AperFunction*%
%TA.AperFunction,SMDPad,CuDef*%
%TO.P,SW2,1*%
%TO.N,col0*%
G36*
X98031232Y-99847513D02*
G01*
X97057254Y-97436835D01*
X99467932Y-96462857D01*
X100441910Y-98873535D01*
X98031232Y-99847513D01*
G37*
%TD.AperFunction*%
%TO.P,SW2,*%
%TO.N,*%
%TA.AperFunction,ComponentPad*%
G36*
G01*
X88147261Y-111822053D02*
X88147261Y-111822053D01*
G75*
G02*
X88561694Y-110845710I695388J280955D01*
G01*
X89210722Y-110583486D01*
G75*
G02*
X90187065Y-110997919I280955J-695388D01*
G01*
X90187065Y-110997919D01*
G75*
G02*
X89772632Y-111974262I-695388J-280955D01*
G01*
X89123604Y-112236486D01*
G75*
G02*
X88147261Y-111822053I-280955J695388D01*
G01*
G37*
%TD.AperFunction*%
%TD*%
%TA.AperFunction,SMDPad,CuDef*%
%TO.P,SW6,2*%
%TO.N,Net-(D5-Pad2)*%
G36*
X148904887Y-121963689D02*
G01*
X149221747Y-119383069D01*
X151802367Y-119699929D01*
X151485507Y-122280549D01*
X148904887Y-121963689D01*
G37*
%TD.AperFunction*%
%TA.AperFunction,SMDPad,CuDef*%
%TO.P,SW6,1*%
%TO.N,col1*%
G36*
X160150310Y-125560975D02*
G01*
X160467170Y-122980355D01*
X163047790Y-123297215D01*
X162730930Y-125877835D01*
X160150310Y-125560975D01*
G37*
%TD.AperFunction*%
%TO.P,SW6,*%
%TO.N,*%
%TA.AperFunction,ComponentPad*%
G36*
G01*
X145700221Y-131242300D02*
X145700221Y-131242300D01*
G75*
G02*
X146536033Y-130589292I744410J-91402D01*
G01*
X147230815Y-130674600D01*
G75*
G02*
X147883823Y-131510412I-91402J-744410D01*
G01*
X147883823Y-131510412D01*
G75*
G02*
X147048011Y-132163420I-744410J91402D01*
G01*
X146353229Y-132078112D01*
G75*
G02*
X145700221Y-131242300I91402J744410D01*
G01*
G37*
%TD.AperFunction*%
%TD*%
D14*
%TO.P,SW3,*%
%TO.N,*%
X107940000Y-100170000D03*
D15*
%TO.P,SW3,1*%
%TO.N,col0*%
X121790000Y-91470000D03*
%TO.P,SW3,2*%
%TO.N,Net-(D2-Pad2)*%
X110190000Y-89270000D03*
%TD*%
%TA.AperFunction,ComponentPad*%
D16*
%TO.P,D1,1*%
%TO.N,row0*%
G36*
X99054156Y-110845517D02*
G01*
X99577481Y-112140793D01*
X97928948Y-112806843D01*
X97405623Y-111511567D01*
X99054156Y-110845517D01*
G37*
%TD.AperFunction*%
%TO.P,D1,2*%
%TO.N,Net-(D1-Pad2)*%
%TA.AperFunction,ComponentPad*%
G36*
G01*
X93752715Y-113740794D02*
X93752715Y-113740794D01*
G75*
G02*
X93366740Y-114650095I-647638J-261663D01*
G01*
X93013482Y-114792821D01*
G75*
G02*
X92104181Y-114406846I-261663J647638D01*
G01*
X92104181Y-114406846D01*
G75*
G02*
X92490156Y-113497545I647638J261663D01*
G01*
X92843414Y-113354819D01*
G75*
G02*
X93752715Y-113740794I261663J-647638D01*
G01*
G37*
%TD.AperFunction*%
%TD*%
D11*
%TO.P,D2,2*%
%TO.N,Net-(D2-Pad2)*%
X109680000Y-104060000D03*
D12*
%TO.P,D2,1*%
%TO.N,row1*%
X115680000Y-104060000D03*
%TD*%
%TA.AperFunction,ComponentPad*%
D16*
%TO.P,D4,1*%
%TO.N,row3*%
G36*
X155972775Y-108786264D02*
G01*
X155802524Y-110172851D01*
X154037777Y-109956168D01*
X154208028Y-108569581D01*
X155972775Y-108786264D01*
G37*
%TD.AperFunction*%
%TO.P,D4,2*%
%TO.N,Net-(D4-Pad2)*%
%TA.AperFunction,ComponentPad*%
G36*
G01*
X149932373Y-108748342D02*
X149932373Y-108748342D01*
G75*
G02*
X149153954Y-109356509I-693293J85126D01*
G01*
X148775794Y-109310077D01*
G75*
G02*
X148167627Y-108531658I85126J693293D01*
G01*
X148167627Y-108531658D01*
G75*
G02*
X148946046Y-107923491I693293J-85126D01*
G01*
X149324206Y-107969923D01*
G75*
G02*
X149932373Y-108748342I-85126J-693293D01*
G01*
G37*
%TD.AperFunction*%
%TD*%
%TA.AperFunction,ComponentPad*%
%TO.P,D5,1*%
%TO.N,row3*%
G36*
X155535137Y-135370656D02*
G01*
X155364886Y-136757243D01*
X153600139Y-136540560D01*
X153770390Y-135153973D01*
X155535137Y-135370656D01*
G37*
%TD.AperFunction*%
%TO.P,D5,2*%
%TO.N,Net-(D5-Pad2)*%
%TA.AperFunction,ComponentPad*%
G36*
G01*
X149494735Y-135332734D02*
X149494735Y-135332734D01*
G75*
G02*
X148716316Y-135940901I-693293J85126D01*
G01*
X148338156Y-135894469D01*
G75*
G02*
X147729989Y-135116050I85126J693293D01*
G01*
X147729989Y-135116050D01*
G75*
G02*
X148508408Y-134507883I693293J-85126D01*
G01*
X148886568Y-134554315D01*
G75*
G02*
X149494735Y-135332734I-85126J-693293D01*
G01*
G37*
%TD.AperFunction*%
%TD*%
D17*
%TO.P,OL1,1*%
%TO.N,SDA*%
X113210000Y-137090000D03*
%TO.P,OL1,2*%
%TO.N,SCL*%
X113210000Y-134550000D03*
%TO.P,OL1,3*%
%TO.N,VCC*%
X113210000Y-132010000D03*
%TO.P,OL1,4*%
%TO.N,GND*%
X113210000Y-129470000D03*
%TD*%
D18*
%TO.P,SW1,1*%
%TO.N,RST*%
X85160000Y-137590000D03*
%TO.P,SW1,2*%
%TO.N,GND*%
X78660000Y-137590000D03*
%TD*%
D15*
%TO.P,SW4,2*%
%TO.N,Net-(D3-Pad2)*%
X129240000Y-89270000D03*
%TO.P,SW4,1*%
%TO.N,col0*%
X140840000Y-91470000D03*
D14*
%TO.P,SW4,*%
%TO.N,*%
X126990000Y-100170000D03*
%TD*%
%TO.P,SW5,*%
%TO.N,*%
%TA.AperFunction,ComponentPad*%
G36*
G01*
X146140178Y-103874408D02*
X146140178Y-103874408D01*
G75*
G02*
X147014296Y-103273644I737441J-136677D01*
G01*
X147702574Y-103401208D01*
G75*
G02*
X148303338Y-104275326I-136677J-737441D01*
G01*
X148303338Y-104275326D01*
G75*
G02*
X147429220Y-104876090I-737441J136677D01*
G01*
X146740942Y-104748526D01*
G75*
G02*
X146140178Y-103874408I136677J737441D01*
G01*
G37*
%TD.AperFunction*%
%TA.AperFunction,SMDPad,CuDef*%
D13*
%TO.P,SW5,1*%
%TO.N,col0*%
G36*
X160910149Y-99085837D02*
G01*
X161383962Y-96529374D01*
X163940425Y-97003187D01*
X163466612Y-99559650D01*
X160910149Y-99085837D01*
G37*
%TD.AperFunction*%
%TA.AperFunction,SMDPad,CuDef*%
%TO.P,SW5,2*%
%TO.N,Net-(D4-Pad2)*%
G36*
X149905310Y-94808744D02*
G01*
X150379123Y-92252281D01*
X152935586Y-92726094D01*
X152461773Y-95282557D01*
X149905310Y-94808744D01*
G37*
%TD.AperFunction*%
%TD*%
D19*
%TO.N,Net-(D1-Pad2)*%
X92928448Y-112993621D02*
X92928448Y-114073820D01*
X87310000Y-100390000D02*
X92928448Y-112993621D01*
%TO.N,row0*%
X98491552Y-111826180D02*
X99910000Y-113244628D01*
X102252000Y-115586628D02*
X98491552Y-111826180D01*
X102252000Y-117978600D02*
X102252000Y-115586628D01*
%TO.N,row1*%
X104792000Y-114948000D02*
X115680000Y-104060000D01*
X104792000Y-117978600D02*
X104792000Y-114948000D01*
%TO.N,Net-(D2-Pad2)*%
X110190000Y-89390000D02*
X109680000Y-104060000D01*
X110190000Y-89270000D02*
X110190000Y-89390000D01*
%TO.N,Net-(D3-Pad2)*%
X129540000Y-89570000D02*
X129240000Y-89270000D01*
X129540000Y-104060000D02*
X129540000Y-89570000D01*
%TO.N,Net-(D4-Pad2)*%
X151420448Y-93767419D02*
X149050000Y-108640000D01*
%TO.N,Net-(D5-Pad2)*%
X148612362Y-135224392D02*
X150353627Y-120831809D01*
%TO.N,SDA*%
X114870010Y-135129990D02*
X114870010Y-128129990D01*
X112910000Y-137090000D02*
X114870010Y-135129990D01*
X114870010Y-128129990D02*
X106410000Y-119669980D01*
X106410000Y-119669980D02*
X98989980Y-119669980D01*
X98309001Y-118989001D02*
X98309001Y-116989001D01*
X98989980Y-119669980D02*
X98309001Y-118989001D01*
X93229001Y-116841599D02*
X92092000Y-117978600D01*
X98161599Y-116841599D02*
X93229001Y-116841599D01*
X98309001Y-116989001D02*
X98161599Y-116841599D01*
%TO.N,SCL*%
X112910000Y-134550000D02*
X114370000Y-133090000D01*
X114370000Y-133090000D02*
X114370000Y-128630000D01*
X114370000Y-128630000D02*
X106330000Y-120590000D01*
X97243400Y-120590000D02*
X94632000Y-117978600D01*
X106330000Y-120590000D02*
X97243400Y-120590000D01*
D20*
%TO.N,VCC*%
X112211501Y-131311501D02*
X112910000Y-132010000D01*
X91439099Y-131311501D02*
X112211501Y-131311501D01*
X89552000Y-133198600D02*
X91439099Y-131311501D01*
%TO.N,GND*%
X78660000Y-137590000D02*
X78660000Y-132340000D01*
X78660000Y-132340000D02*
X81530000Y-129470000D01*
X88200600Y-129470000D02*
X88790000Y-129470000D01*
X84472000Y-133198600D02*
X88200600Y-129470000D01*
X81530000Y-129470000D02*
X88790000Y-129470000D01*
X98503400Y-129470000D02*
X98530000Y-129470000D01*
X98530000Y-129470000D02*
X112910000Y-129470000D01*
X88790000Y-129470000D02*
X98530000Y-129470000D01*
X89552000Y-120448000D02*
X89516700Y-120483300D01*
X89552000Y-117978600D02*
X89552000Y-120448000D01*
X89516700Y-120483300D02*
X98503400Y-129470000D01*
X87012000Y-117978600D02*
X89516700Y-120483300D01*
D19*
%TO.N,RST*%
X85160000Y-137590000D02*
X86910000Y-135840000D01*
X86910000Y-133300600D02*
X87012000Y-133198600D01*
X86910000Y-135840000D02*
X86910000Y-133300600D01*
%TO.N,col0*%
X98749582Y-87250418D02*
X99910000Y-86090000D01*
X98749582Y-98155185D02*
X98749582Y-87250418D01*
X162425287Y-90605287D02*
X161910000Y-90090000D01*
X157910000Y-86090000D02*
X161910000Y-90090000D01*
X140910000Y-86090000D02*
X157910000Y-86090000D01*
X140840000Y-86160000D02*
X140910000Y-86090000D01*
X121790000Y-86210000D02*
X121910000Y-86090000D01*
X121790000Y-91470000D02*
X121790000Y-86210000D01*
X121910000Y-86090000D02*
X140910000Y-86090000D01*
X99910000Y-86090000D02*
X121910000Y-86090000D01*
X162425287Y-98044512D02*
X162425287Y-90605287D01*
X140840000Y-91470000D02*
X140840000Y-86160000D01*
X165109980Y-100729205D02*
X162425287Y-98044512D01*
X165109980Y-131390020D02*
X165109980Y-100729205D01*
X107332000Y-133198600D02*
X107332000Y-137012000D01*
X157160000Y-139340000D02*
X165109980Y-131390020D01*
X109660000Y-139340000D02*
X157160000Y-139340000D01*
X107332000Y-137012000D02*
X109660000Y-139340000D01*
%TO.N,col1*%
X109872000Y-137052000D02*
X109872000Y-133198600D01*
X111660000Y-138840000D02*
X156910000Y-138840000D01*
X111660000Y-138840000D02*
X109872000Y-137052000D01*
X161410000Y-124618145D02*
X161599050Y-124429095D01*
X161410000Y-134340000D02*
X161410000Y-124618145D01*
X156910000Y-138840000D02*
X161410000Y-134340000D01*
%TO.N,row2*%
X126510000Y-113090000D02*
X135540000Y-104060000D01*
X112220600Y-113090000D02*
X107332000Y-117978600D01*
X112410000Y-113090000D02*
X112220600Y-113090000D01*
X112410000Y-113090000D02*
X126510000Y-113090000D01*
%TO.N,row3*%
X137910000Y-115590000D02*
X143410000Y-121090000D01*
X112260600Y-115590000D02*
X109872000Y-117978600D01*
X112410000Y-115590000D02*
X112260600Y-115590000D01*
X112410000Y-115590000D02*
X137910000Y-115590000D01*
X143410000Y-136090000D02*
X143410000Y-121090000D01*
X152933246Y-137590000D02*
X154567638Y-135955608D01*
X144910000Y-137590000D02*
X152933246Y-137590000D01*
X144910000Y-137590000D02*
X143410000Y-136090000D01*
X143410000Y-120966492D02*
X143410000Y-121090000D01*
X155005276Y-109371216D02*
X143410000Y-120966492D01*
%TD*%
D21*
%TO.N,GND*%
X98238580Y-86686619D02*
X98209582Y-86710417D01*
X98185784Y-86739415D01*
X98185783Y-86739416D01*
X98114608Y-86826142D01*
X98044036Y-86958172D01*
X98024713Y-87021875D01*
X98000580Y-87101432D01*
X97992746Y-87180967D01*
X97985906Y-87250418D01*
X97989583Y-87287750D01*
X97989582Y-96371967D01*
X96818228Y-96845225D01*
X96707403Y-96903224D01*
X96610023Y-96981730D01*
X96529830Y-97077725D01*
X96469906Y-97187521D01*
X96432552Y-97306897D01*
X96424208Y-97384651D01*
X96312631Y-97338434D01*
X95900154Y-97256387D01*
X95479596Y-97256387D01*
X95067119Y-97338434D01*
X94678573Y-97499375D01*
X94328892Y-97733024D01*
X94031512Y-98030404D01*
X93797863Y-98380085D01*
X93636922Y-98768631D01*
X93554875Y-99181108D01*
X93554875Y-99601666D01*
X93636922Y-100014143D01*
X93797863Y-100402689D01*
X94031512Y-100752370D01*
X94328892Y-101049750D01*
X94678573Y-101283399D01*
X95067119Y-101444340D01*
X95479596Y-101526387D01*
X95900154Y-101526387D01*
X96312631Y-101444340D01*
X96701177Y-101283399D01*
X97050858Y-101049750D01*
X97348238Y-100752370D01*
X97581887Y-100402689D01*
X97613624Y-100326069D01*
X97672122Y-100374937D01*
X97781918Y-100434861D01*
X97901294Y-100472215D01*
X98025664Y-100485561D01*
X98150248Y-100474387D01*
X98270258Y-100439123D01*
X98936360Y-100170000D01*
X106198299Y-100170000D01*
X106225040Y-100441507D01*
X106304236Y-100702581D01*
X106432843Y-100943188D01*
X106605919Y-101154081D01*
X106816812Y-101327157D01*
X107057419Y-101455764D01*
X107318493Y-101534960D01*
X107521963Y-101555000D01*
X108358037Y-101555000D01*
X108561507Y-101534960D01*
X108822581Y-101455764D01*
X109013627Y-101353648D01*
X108962311Y-102829750D01*
X108745063Y-102945871D01*
X108542011Y-103112511D01*
X108375371Y-103315563D01*
X108251546Y-103547223D01*
X108175295Y-103798588D01*
X108149548Y-104060000D01*
X108175295Y-104321412D01*
X108251546Y-104572777D01*
X108375371Y-104804437D01*
X108542011Y-105007489D01*
X108745063Y-105174129D01*
X108976723Y-105297954D01*
X109228088Y-105374205D01*
X109423992Y-105393500D01*
X109936008Y-105393500D01*
X110131912Y-105374205D01*
X110383277Y-105297954D01*
X110614937Y-105174129D01*
X110817989Y-105007489D01*
X110984629Y-104804437D01*
X111108454Y-104572777D01*
X111184705Y-104321412D01*
X111210452Y-104060000D01*
X111184705Y-103798588D01*
X111108454Y-103547223D01*
X110984629Y-103315563D01*
X110817989Y-103112511D01*
X110614937Y-102945871D01*
X110481668Y-102874637D01*
X110575694Y-100170000D01*
X125248299Y-100170000D01*
X125275040Y-100441507D01*
X125354236Y-100702581D01*
X125482843Y-100943188D01*
X125655919Y-101154081D01*
X125866812Y-101327157D01*
X126107419Y-101455764D01*
X126368493Y-101534960D01*
X126571963Y-101555000D01*
X127408037Y-101555000D01*
X127611507Y-101534960D01*
X127872581Y-101455764D01*
X128113188Y-101327157D01*
X128324081Y-101154081D01*
X128497157Y-100943188D01*
X128625764Y-100702581D01*
X128704960Y-100441507D01*
X128731701Y-100170000D01*
X128704960Y-99898493D01*
X128625764Y-99637419D01*
X128497157Y-99396812D01*
X128324081Y-99185919D01*
X128113188Y-99012843D01*
X127872581Y-98884236D01*
X127611507Y-98805040D01*
X127408037Y-98785000D01*
X126571963Y-98785000D01*
X126368493Y-98805040D01*
X126107419Y-98884236D01*
X125866812Y-99012843D01*
X125655919Y-99185919D01*
X125482843Y-99396812D01*
X125354236Y-99637419D01*
X125275040Y-99898493D01*
X125248299Y-100170000D01*
X110575694Y-100170000D01*
X110698970Y-96624007D01*
X110711799Y-96654979D01*
X111054886Y-97168446D01*
X111491554Y-97605114D01*
X112005021Y-97948201D01*
X112575554Y-98184524D01*
X113181229Y-98305000D01*
X113798771Y-98305000D01*
X114404446Y-98184524D01*
X114974979Y-97948201D01*
X115488446Y-97605114D01*
X115925114Y-97168446D01*
X116268201Y-96654979D01*
X116504524Y-96084446D01*
X116625000Y-95478771D01*
X116625000Y-95013891D01*
X117405000Y-95013891D01*
X117405000Y-95326109D01*
X117465911Y-95632327D01*
X117585391Y-95920779D01*
X117758850Y-96180379D01*
X117979621Y-96401150D01*
X118239221Y-96574609D01*
X118527673Y-96694089D01*
X118833891Y-96755000D01*
X119146109Y-96755000D01*
X119452327Y-96694089D01*
X119740779Y-96574609D01*
X120000379Y-96401150D01*
X120221150Y-96180379D01*
X120394609Y-95920779D01*
X120514089Y-95632327D01*
X120575000Y-95326109D01*
X120575000Y-95013891D01*
X125455000Y-95013891D01*
X125455000Y-95326109D01*
X125515911Y-95632327D01*
X125635391Y-95920779D01*
X125808850Y-96180379D01*
X126029621Y-96401150D01*
X126289221Y-96574609D01*
X126577673Y-96694089D01*
X126883891Y-96755000D01*
X127196109Y-96755000D01*
X127502327Y-96694089D01*
X127790779Y-96574609D01*
X128050379Y-96401150D01*
X128271150Y-96180379D01*
X128444609Y-95920779D01*
X128564089Y-95632327D01*
X128625000Y-95326109D01*
X128625000Y-95013891D01*
X128564089Y-94707673D01*
X128444609Y-94419221D01*
X128271150Y-94159621D01*
X128050379Y-93938850D01*
X127790779Y-93765391D01*
X127502327Y-93645911D01*
X127196109Y-93585000D01*
X126883891Y-93585000D01*
X126577673Y-93645911D01*
X126289221Y-93765391D01*
X126029621Y-93938850D01*
X125808850Y-94159621D01*
X125635391Y-94419221D01*
X125515911Y-94707673D01*
X125455000Y-95013891D01*
X120575000Y-95013891D01*
X120514089Y-94707673D01*
X120394609Y-94419221D01*
X120221150Y-94159621D01*
X120000379Y-93938850D01*
X119740779Y-93765391D01*
X119452327Y-93645911D01*
X119146109Y-93585000D01*
X118833891Y-93585000D01*
X118527673Y-93645911D01*
X118239221Y-93765391D01*
X117979621Y-93938850D01*
X117758850Y-94159621D01*
X117585391Y-94419221D01*
X117465911Y-94707673D01*
X117405000Y-95013891D01*
X116625000Y-95013891D01*
X116625000Y-94861229D01*
X116504524Y-94255554D01*
X116268201Y-93685021D01*
X115925114Y-93171554D01*
X115488446Y-92734886D01*
X114974979Y-92391799D01*
X114404446Y-92155476D01*
X113798771Y-92035000D01*
X113181229Y-92035000D01*
X112575554Y-92155476D01*
X112005021Y-92391799D01*
X111491554Y-92734886D01*
X111054886Y-93171554D01*
X110806047Y-93543969D01*
X110887254Y-91208072D01*
X111490000Y-91208072D01*
X111614482Y-91195812D01*
X111734180Y-91159502D01*
X111844494Y-91100537D01*
X111941185Y-91021185D01*
X112020537Y-90924494D01*
X112056976Y-90856322D01*
X112129017Y-90928363D01*
X112478698Y-91162012D01*
X112867244Y-91322953D01*
X113279721Y-91405000D01*
X113700279Y-91405000D01*
X114112756Y-91322953D01*
X114501302Y-91162012D01*
X114850983Y-90928363D01*
X115148363Y-90630983D01*
X115382012Y-90281302D01*
X115542953Y-89892756D01*
X115625000Y-89480279D01*
X115625000Y-89059721D01*
X115542953Y-88647244D01*
X115382012Y-88258698D01*
X115148363Y-87909017D01*
X114850983Y-87611637D01*
X114501302Y-87377988D01*
X114112756Y-87217047D01*
X113700279Y-87135000D01*
X113279721Y-87135000D01*
X112867244Y-87217047D01*
X112478698Y-87377988D01*
X112129017Y-87611637D01*
X112056976Y-87683678D01*
X112020537Y-87615506D01*
X111941185Y-87518815D01*
X111844494Y-87439463D01*
X111734180Y-87380498D01*
X111614482Y-87344188D01*
X111490000Y-87331928D01*
X108890000Y-87331928D01*
X108765518Y-87344188D01*
X108645820Y-87380498D01*
X108535506Y-87439463D01*
X108438815Y-87518815D01*
X108359463Y-87615506D01*
X108300498Y-87725820D01*
X108264188Y-87845518D01*
X108251928Y-87970000D01*
X108251928Y-90570000D01*
X108264188Y-90694482D01*
X108300498Y-90814180D01*
X108359463Y-90924494D01*
X108438815Y-91021185D01*
X108535506Y-91100537D01*
X108645820Y-91159502D01*
X108765518Y-91195812D01*
X108890000Y-91208072D01*
X109366336Y-91208072D01*
X109261620Y-94220189D01*
X109221150Y-94159621D01*
X109000379Y-93938850D01*
X108740779Y-93765391D01*
X108452327Y-93645911D01*
X108146109Y-93585000D01*
X107833891Y-93585000D01*
X107527673Y-93645911D01*
X107239221Y-93765391D01*
X106979621Y-93938850D01*
X106758850Y-94159621D01*
X106585391Y-94419221D01*
X106465911Y-94707673D01*
X106405000Y-95013891D01*
X106405000Y-95326109D01*
X106465911Y-95632327D01*
X106585391Y-95920779D01*
X106758850Y-96180379D01*
X106979621Y-96401150D01*
X107239221Y-96574609D01*
X107527673Y-96694089D01*
X107833891Y-96755000D01*
X108146109Y-96755000D01*
X108452327Y-96694089D01*
X108740779Y-96574609D01*
X109000379Y-96401150D01*
X109192478Y-96209051D01*
X109094122Y-99038230D01*
X109063188Y-99012843D01*
X108822581Y-98884236D01*
X108561507Y-98805040D01*
X108358037Y-98785000D01*
X107521963Y-98785000D01*
X107318493Y-98805040D01*
X107057419Y-98884236D01*
X106816812Y-99012843D01*
X106605919Y-99185919D01*
X106432843Y-99396812D01*
X106304236Y-99637419D01*
X106225040Y-99898493D01*
X106198299Y-100170000D01*
X98936360Y-100170000D01*
X100680936Y-99465145D01*
X100791761Y-99407146D01*
X100889141Y-99328640D01*
X100969334Y-99232645D01*
X101029258Y-99122849D01*
X101066612Y-99003473D01*
X101079958Y-98879103D01*
X101068784Y-98754519D01*
X101033520Y-98634509D01*
X100059542Y-96223831D01*
X100001543Y-96113006D01*
X99923037Y-96015626D01*
X99827042Y-95935433D01*
X99717246Y-95875509D01*
X99597870Y-95838155D01*
X99509582Y-95828681D01*
X99509582Y-87565219D01*
X100224802Y-86850000D01*
X121030001Y-86850000D01*
X121030000Y-89531928D01*
X120490000Y-89531928D01*
X120365518Y-89544188D01*
X120245820Y-89580498D01*
X120135506Y-89639463D01*
X120038815Y-89718815D01*
X119959463Y-89815506D01*
X119923024Y-89883678D01*
X119850983Y-89811637D01*
X119501302Y-89577988D01*
X119112756Y-89417047D01*
X118700279Y-89335000D01*
X118279721Y-89335000D01*
X117867244Y-89417047D01*
X117478698Y-89577988D01*
X117129017Y-89811637D01*
X116831637Y-90109017D01*
X116597988Y-90458698D01*
X116437047Y-90847244D01*
X116355000Y-91259721D01*
X116355000Y-91680279D01*
X116437047Y-92092756D01*
X116597988Y-92481302D01*
X116831637Y-92830983D01*
X117129017Y-93128363D01*
X117478698Y-93362012D01*
X117867244Y-93522953D01*
X118279721Y-93605000D01*
X118700279Y-93605000D01*
X119112756Y-93522953D01*
X119501302Y-93362012D01*
X119850983Y-93128363D01*
X119923024Y-93056322D01*
X119959463Y-93124494D01*
X120038815Y-93221185D01*
X120135506Y-93300537D01*
X120245820Y-93359502D01*
X120365518Y-93395812D01*
X120490000Y-93408072D01*
X123090000Y-93408072D01*
X123214482Y-93395812D01*
X123334180Y-93359502D01*
X123444494Y-93300537D01*
X123541185Y-93221185D01*
X123620537Y-93124494D01*
X123679502Y-93014180D01*
X123715812Y-92894482D01*
X123728072Y-92770000D01*
X123728072Y-90170000D01*
X123715812Y-90045518D01*
X123679502Y-89925820D01*
X123620537Y-89815506D01*
X123541185Y-89718815D01*
X123444494Y-89639463D01*
X123334180Y-89580498D01*
X123214482Y-89544188D01*
X123090000Y-89531928D01*
X122550000Y-89531928D01*
X122550000Y-87970000D01*
X127301928Y-87970000D01*
X127301928Y-90570000D01*
X127314188Y-90694482D01*
X127350498Y-90814180D01*
X127409463Y-90924494D01*
X127488815Y-91021185D01*
X127585506Y-91100537D01*
X127695820Y-91159502D01*
X127815518Y-91195812D01*
X127940000Y-91208072D01*
X128780001Y-91208072D01*
X128780000Y-102852365D01*
X128605063Y-102945871D01*
X128402011Y-103112511D01*
X128235371Y-103315563D01*
X128111546Y-103547223D01*
X128035295Y-103798588D01*
X128009548Y-104060000D01*
X128035295Y-104321412D01*
X128111546Y-104572777D01*
X128235371Y-104804437D01*
X128402011Y-105007489D01*
X128605063Y-105174129D01*
X128836723Y-105297954D01*
X129088088Y-105374205D01*
X129283992Y-105393500D01*
X129796008Y-105393500D01*
X129991912Y-105374205D01*
X130243277Y-105297954D01*
X130474937Y-105174129D01*
X130677989Y-105007489D01*
X130844629Y-104804437D01*
X130968454Y-104572777D01*
X131044705Y-104321412D01*
X131070452Y-104060000D01*
X131044705Y-103798588D01*
X130968454Y-103547223D01*
X130844629Y-103315563D01*
X130677989Y-103112511D01*
X130474937Y-102945871D01*
X130300000Y-102852365D01*
X130300000Y-99011596D01*
X146597098Y-99011596D01*
X146597098Y-99323814D01*
X146658009Y-99630032D01*
X146777489Y-99918484D01*
X146950948Y-100178084D01*
X147171719Y-100398855D01*
X147431319Y-100572314D01*
X147719771Y-100691794D01*
X148025989Y-100752705D01*
X148338207Y-100752705D01*
X148644425Y-100691794D01*
X148932877Y-100572314D01*
X149192477Y-100398855D01*
X149413248Y-100178084D01*
X149586707Y-99918484D01*
X149706187Y-99630032D01*
X149757830Y-99370409D01*
X148489058Y-107330888D01*
X148257810Y-107420236D01*
X148035963Y-107560889D01*
X147845820Y-107742119D01*
X147694685Y-107956962D01*
X147588369Y-108197160D01*
X147530956Y-108453486D01*
X147524653Y-108716086D01*
X147569702Y-108974870D01*
X147664372Y-109219894D01*
X147805025Y-109441741D01*
X147986255Y-109631884D01*
X148201098Y-109783019D01*
X148441296Y-109889335D01*
X148633389Y-109932361D01*
X149141587Y-109994759D01*
X149338383Y-109999483D01*
X149597167Y-109954434D01*
X149842190Y-109859764D01*
X150064037Y-109719111D01*
X150254180Y-109537881D01*
X150405315Y-109323038D01*
X150511631Y-109082840D01*
X150569044Y-108826514D01*
X150575347Y-108563914D01*
X150530298Y-108305130D01*
X150435628Y-108060106D01*
X150294976Y-107838259D01*
X150113745Y-107648116D01*
X149991400Y-107562050D01*
X150909569Y-101801303D01*
X151154886Y-102168446D01*
X151591554Y-102605114D01*
X152105021Y-102948201D01*
X152675554Y-103184524D01*
X153281229Y-103305000D01*
X153898771Y-103305000D01*
X154504446Y-103184524D01*
X155074979Y-102948201D01*
X155588446Y-102605114D01*
X156025114Y-102168446D01*
X156368201Y-101654979D01*
X156604524Y-101084446D01*
X156618101Y-101016186D01*
X157412902Y-101016186D01*
X157412902Y-101328404D01*
X157473813Y-101634622D01*
X157593293Y-101923074D01*
X157766752Y-102182674D01*
X157987523Y-102403445D01*
X158247123Y-102576904D01*
X158535575Y-102696384D01*
X158841793Y-102757295D01*
X159154011Y-102757295D01*
X159460229Y-102696384D01*
X159748681Y-102576904D01*
X160008281Y-102403445D01*
X160229052Y-102182674D01*
X160402511Y-101923074D01*
X160521991Y-101634622D01*
X160582902Y-101328404D01*
X160582902Y-101016186D01*
X160521991Y-100709968D01*
X160402511Y-100421516D01*
X160229052Y-100161916D01*
X160008281Y-99941145D01*
X159748681Y-99767686D01*
X159460229Y-99648206D01*
X159154011Y-99587295D01*
X158841793Y-99587295D01*
X158535575Y-99648206D01*
X158247123Y-99767686D01*
X157987523Y-99941145D01*
X157766752Y-100161916D01*
X157593293Y-100421516D01*
X157473813Y-100709968D01*
X157412902Y-101016186D01*
X156618101Y-101016186D01*
X156725000Y-100478771D01*
X156725000Y-99861229D01*
X156604524Y-99255554D01*
X156368201Y-98685021D01*
X156025114Y-98171554D01*
X155588446Y-97734886D01*
X155074979Y-97391799D01*
X154504446Y-97155476D01*
X153898771Y-97035000D01*
X153281229Y-97035000D01*
X152675554Y-97155476D01*
X152105021Y-97391799D01*
X151591554Y-97734886D01*
X151551270Y-97775170D01*
X151862815Y-95820485D01*
X152345493Y-95909944D01*
X152470125Y-95920574D01*
X152594435Y-95906686D01*
X152713648Y-95868812D01*
X152823181Y-95808409D01*
X152918825Y-95727798D01*
X152966029Y-95668720D01*
X153006827Y-95729779D01*
X153304207Y-96027159D01*
X153653888Y-96260808D01*
X154042434Y-96421749D01*
X154454911Y-96503796D01*
X154875469Y-96503796D01*
X155287946Y-96421749D01*
X155676492Y-96260808D01*
X156026173Y-96027159D01*
X156323553Y-95729779D01*
X156557202Y-95380098D01*
X156718143Y-94991552D01*
X156800190Y-94579075D01*
X156800190Y-94158517D01*
X156718143Y-93746040D01*
X156557202Y-93357494D01*
X156323553Y-93007813D01*
X156026173Y-92710433D01*
X155676492Y-92476784D01*
X155287946Y-92315843D01*
X154875469Y-92233796D01*
X154454911Y-92233796D01*
X154042434Y-92315843D01*
X153653888Y-92476784D01*
X153545636Y-92549116D01*
X153521841Y-92474219D01*
X153461438Y-92364686D01*
X153380827Y-92269042D01*
X153283105Y-92190962D01*
X153172028Y-92133447D01*
X153051866Y-92098707D01*
X150495403Y-91624894D01*
X150370771Y-91614264D01*
X150246461Y-91628152D01*
X150127248Y-91666026D01*
X150017715Y-91726429D01*
X149922071Y-91807040D01*
X149843991Y-91904762D01*
X149786476Y-92015839D01*
X149751736Y-92136001D01*
X149277923Y-94692464D01*
X149267293Y-94817096D01*
X149281181Y-94941406D01*
X149319055Y-95060619D01*
X149379458Y-95170152D01*
X149460069Y-95265796D01*
X149557791Y-95343876D01*
X149668868Y-95401391D01*
X149789030Y-95436131D01*
X150367793Y-95543398D01*
X149767098Y-99312258D01*
X149767098Y-99011596D01*
X149706187Y-98705378D01*
X149586707Y-98416926D01*
X149413248Y-98157326D01*
X149192477Y-97936555D01*
X148932877Y-97763096D01*
X148644425Y-97643616D01*
X148338207Y-97582705D01*
X148025989Y-97582705D01*
X147719771Y-97643616D01*
X147431319Y-97763096D01*
X147171719Y-97936555D01*
X146950948Y-98157326D01*
X146777489Y-98416926D01*
X146658009Y-98705378D01*
X146597098Y-99011596D01*
X130300000Y-99011596D01*
X130300000Y-97363560D01*
X130541554Y-97605114D01*
X131055021Y-97948201D01*
X131625554Y-98184524D01*
X132231229Y-98305000D01*
X132848771Y-98305000D01*
X133454446Y-98184524D01*
X134024979Y-97948201D01*
X134538446Y-97605114D01*
X134975114Y-97168446D01*
X135318201Y-96654979D01*
X135554524Y-96084446D01*
X135675000Y-95478771D01*
X135675000Y-95013891D01*
X136455000Y-95013891D01*
X136455000Y-95326109D01*
X136515911Y-95632327D01*
X136635391Y-95920779D01*
X136808850Y-96180379D01*
X137029621Y-96401150D01*
X137289221Y-96574609D01*
X137577673Y-96694089D01*
X137883891Y-96755000D01*
X138196109Y-96755000D01*
X138502327Y-96694089D01*
X138790779Y-96574609D01*
X139050379Y-96401150D01*
X139271150Y-96180379D01*
X139444609Y-95920779D01*
X139564089Y-95632327D01*
X139625000Y-95326109D01*
X139625000Y-95013891D01*
X139564089Y-94707673D01*
X139444609Y-94419221D01*
X139271150Y-94159621D01*
X139050379Y-93938850D01*
X138790779Y-93765391D01*
X138502327Y-93645911D01*
X138196109Y-93585000D01*
X137883891Y-93585000D01*
X137577673Y-93645911D01*
X137289221Y-93765391D01*
X137029621Y-93938850D01*
X136808850Y-94159621D01*
X136635391Y-94419221D01*
X136515911Y-94707673D01*
X136455000Y-95013891D01*
X135675000Y-95013891D01*
X135675000Y-94861229D01*
X135554524Y-94255554D01*
X135318201Y-93685021D01*
X134975114Y-93171554D01*
X134538446Y-92734886D01*
X134024979Y-92391799D01*
X133454446Y-92155476D01*
X132848771Y-92035000D01*
X132231229Y-92035000D01*
X131625554Y-92155476D01*
X131055021Y-92391799D01*
X130541554Y-92734886D01*
X130300000Y-92976440D01*
X130300000Y-91208072D01*
X130540000Y-91208072D01*
X130664482Y-91195812D01*
X130784180Y-91159502D01*
X130894494Y-91100537D01*
X130991185Y-91021185D01*
X131070537Y-90924494D01*
X131106976Y-90856322D01*
X131179017Y-90928363D01*
X131528698Y-91162012D01*
X131917244Y-91322953D01*
X132329721Y-91405000D01*
X132750279Y-91405000D01*
X133162756Y-91322953D01*
X133551302Y-91162012D01*
X133900983Y-90928363D01*
X134198363Y-90630983D01*
X134432012Y-90281302D01*
X134592953Y-89892756D01*
X134675000Y-89480279D01*
X134675000Y-89059721D01*
X134592953Y-88647244D01*
X134432012Y-88258698D01*
X134198363Y-87909017D01*
X133900983Y-87611637D01*
X133551302Y-87377988D01*
X133162756Y-87217047D01*
X132750279Y-87135000D01*
X132329721Y-87135000D01*
X131917244Y-87217047D01*
X131528698Y-87377988D01*
X131179017Y-87611637D01*
X131106976Y-87683678D01*
X131070537Y-87615506D01*
X130991185Y-87518815D01*
X130894494Y-87439463D01*
X130784180Y-87380498D01*
X130664482Y-87344188D01*
X130540000Y-87331928D01*
X127940000Y-87331928D01*
X127815518Y-87344188D01*
X127695820Y-87380498D01*
X127585506Y-87439463D01*
X127488815Y-87518815D01*
X127409463Y-87615506D01*
X127350498Y-87725820D01*
X127314188Y-87845518D01*
X127301928Y-87970000D01*
X122550000Y-87970000D01*
X122550000Y-86850000D01*
X140080001Y-86850000D01*
X140080000Y-89531928D01*
X139540000Y-89531928D01*
X139415518Y-89544188D01*
X139295820Y-89580498D01*
X139185506Y-89639463D01*
X139088815Y-89718815D01*
X139009463Y-89815506D01*
X138973024Y-89883678D01*
X138900983Y-89811637D01*
X138551302Y-89577988D01*
X138162756Y-89417047D01*
X137750279Y-89335000D01*
X137329721Y-89335000D01*
X136917244Y-89417047D01*
X136528698Y-89577988D01*
X136179017Y-89811637D01*
X135881637Y-90109017D01*
X135647988Y-90458698D01*
X135487047Y-90847244D01*
X135405000Y-91259721D01*
X135405000Y-91680279D01*
X135487047Y-92092756D01*
X135647988Y-92481302D01*
X135881637Y-92830983D01*
X136179017Y-93128363D01*
X136528698Y-93362012D01*
X136917244Y-93522953D01*
X137329721Y-93605000D01*
X137750279Y-93605000D01*
X138162756Y-93522953D01*
X138551302Y-93362012D01*
X138900983Y-93128363D01*
X138973024Y-93056322D01*
X139009463Y-93124494D01*
X139088815Y-93221185D01*
X139185506Y-93300537D01*
X139295820Y-93359502D01*
X139415518Y-93395812D01*
X139540000Y-93408072D01*
X142140000Y-93408072D01*
X142264482Y-93395812D01*
X142384180Y-93359502D01*
X142494494Y-93300537D01*
X142591185Y-93221185D01*
X142670537Y-93124494D01*
X142729502Y-93014180D01*
X142765812Y-92894482D01*
X142778072Y-92770000D01*
X142778072Y-90170000D01*
X142765812Y-90045518D01*
X142729502Y-89925820D01*
X142670537Y-89815506D01*
X142591185Y-89718815D01*
X142494494Y-89639463D01*
X142384180Y-89580498D01*
X142264482Y-89544188D01*
X142140000Y-89531928D01*
X141600000Y-89531928D01*
X141600000Y-86850000D01*
X157595199Y-86850000D01*
X161398997Y-90653799D01*
X161399002Y-90653803D01*
X161665288Y-90920090D01*
X161665287Y-95932576D01*
X161500242Y-95901987D01*
X161375610Y-95891357D01*
X161251300Y-95905245D01*
X161132087Y-95943119D01*
X161022554Y-96003522D01*
X160926910Y-96084133D01*
X160879707Y-96143210D01*
X160838909Y-96082151D01*
X160541529Y-95784771D01*
X160191848Y-95551122D01*
X159803302Y-95390181D01*
X159390825Y-95308134D01*
X158970267Y-95308134D01*
X158557790Y-95390181D01*
X158169244Y-95551122D01*
X157819563Y-95784771D01*
X157522183Y-96082151D01*
X157288534Y-96431832D01*
X157127593Y-96820378D01*
X157045546Y-97232855D01*
X157045546Y-97653413D01*
X157127593Y-98065890D01*
X157288534Y-98454436D01*
X157522183Y-98804117D01*
X157819563Y-99101497D01*
X158169244Y-99335146D01*
X158557790Y-99496087D01*
X158970267Y-99578134D01*
X159390825Y-99578134D01*
X159803302Y-99496087D01*
X160191848Y-99335146D01*
X160300099Y-99262815D01*
X160323894Y-99337712D01*
X160384297Y-99447245D01*
X160464908Y-99542889D01*
X160562630Y-99620969D01*
X160673707Y-99678484D01*
X160793869Y-99713224D01*
X163350332Y-100187037D01*
X163474964Y-100197667D01*
X163500759Y-100194785D01*
X164349981Y-101044008D01*
X164349980Y-131075218D01*
X162170000Y-133255198D01*
X162170000Y-126451825D01*
X162653169Y-126511151D01*
X162778217Y-126514152D01*
X162901447Y-126492701D01*
X163018125Y-126447620D01*
X163123766Y-126380643D01*
X163214311Y-126294343D01*
X163286280Y-126192037D01*
X163336906Y-126077656D01*
X163364246Y-125955596D01*
X163681106Y-123374976D01*
X163684107Y-123249928D01*
X163662656Y-123126698D01*
X163617575Y-123010020D01*
X163550598Y-122904379D01*
X163464298Y-122813834D01*
X163361992Y-122741865D01*
X163247611Y-122691239D01*
X163125551Y-122663899D01*
X160544931Y-122347039D01*
X160419883Y-122344038D01*
X160296653Y-122365489D01*
X160179975Y-122410570D01*
X160074334Y-122477547D01*
X159983789Y-122563847D01*
X159940893Y-122624826D01*
X159684630Y-122368563D01*
X159334949Y-122134914D01*
X158946403Y-121973973D01*
X158533926Y-121891926D01*
X158113368Y-121891926D01*
X157700891Y-121973973D01*
X157312345Y-122134914D01*
X156962664Y-122368563D01*
X156665284Y-122665943D01*
X156431635Y-123015624D01*
X156270694Y-123404170D01*
X156188647Y-123816647D01*
X156188647Y-124237205D01*
X156270694Y-124649682D01*
X156431635Y-125038228D01*
X156665284Y-125387909D01*
X156962664Y-125685289D01*
X157312345Y-125918938D01*
X157700891Y-126079879D01*
X158113368Y-126161926D01*
X158533926Y-126161926D01*
X158946403Y-126079879D01*
X159334949Y-125918938D01*
X159551867Y-125773998D01*
X159580525Y-125848170D01*
X159647502Y-125953811D01*
X159733802Y-126044356D01*
X159836108Y-126116325D01*
X159950489Y-126166951D01*
X160072549Y-126194291D01*
X160650001Y-126265193D01*
X160650000Y-134025198D01*
X156595199Y-138080000D01*
X153518047Y-138080000D01*
X154325554Y-137272493D01*
X155287125Y-137390559D01*
X155412173Y-137393560D01*
X155535404Y-137372109D01*
X155652081Y-137327028D01*
X155757723Y-137260050D01*
X155848267Y-137173751D01*
X155920236Y-137071444D01*
X155970862Y-136957064D01*
X155998202Y-136835004D01*
X156168453Y-135448417D01*
X156171454Y-135323369D01*
X156150003Y-135200138D01*
X156104922Y-135083461D01*
X156037944Y-134977819D01*
X155951645Y-134887275D01*
X155849338Y-134815306D01*
X155734958Y-134764680D01*
X155612898Y-134737340D01*
X153848151Y-134520657D01*
X153723103Y-134517656D01*
X153599872Y-134539107D01*
X153483195Y-134584188D01*
X153377553Y-134651166D01*
X153287009Y-134737465D01*
X153215040Y-134839772D01*
X153164414Y-134954152D01*
X153137074Y-135076212D01*
X152966823Y-136462799D01*
X152966360Y-136482084D01*
X152618445Y-136830000D01*
X145224802Y-136830000D01*
X144170000Y-135775199D01*
X144170000Y-131436839D01*
X145056757Y-131436839D01*
X145103546Y-131705618D01*
X145201872Y-131960105D01*
X145347957Y-132190519D01*
X145536186Y-132388006D01*
X145759326Y-132544977D01*
X146008802Y-132655399D01*
X146208314Y-132700086D01*
X147038155Y-132801978D01*
X147242550Y-132806884D01*
X147511330Y-132760095D01*
X147765817Y-132661769D01*
X147996230Y-132515684D01*
X148193717Y-132327456D01*
X148198046Y-132321302D01*
X148002935Y-133934014D01*
X147820172Y-134004628D01*
X147598325Y-134145281D01*
X147408182Y-134326511D01*
X147257047Y-134541354D01*
X147150731Y-134781552D01*
X147093318Y-135037878D01*
X147087015Y-135300478D01*
X147132064Y-135559262D01*
X147226734Y-135804286D01*
X147367387Y-136026133D01*
X147548617Y-136216276D01*
X147763460Y-136367411D01*
X148003658Y-136473727D01*
X148195751Y-136516753D01*
X148703949Y-136579151D01*
X148900745Y-136583875D01*
X149159529Y-136538826D01*
X149404552Y-136444156D01*
X149626399Y-136303503D01*
X149816542Y-136122273D01*
X149967677Y-135907430D01*
X150073993Y-135667232D01*
X150131406Y-135410906D01*
X150137709Y-135148306D01*
X150092660Y-134889522D01*
X149997990Y-134644498D01*
X149857338Y-134422651D01*
X149676107Y-134232508D01*
X149511882Y-134116981D01*
X150174619Y-128639065D01*
X150474886Y-129088446D01*
X150911554Y-129525114D01*
X151425021Y-129868201D01*
X151995554Y-130104524D01*
X152601229Y-130225000D01*
X153218771Y-130225000D01*
X153824446Y-130104524D01*
X154394979Y-129868201D01*
X154908446Y-129525114D01*
X155345114Y-129088446D01*
X155688201Y-128574979D01*
X155924524Y-128004446D01*
X156004143Y-127604172D01*
X156784004Y-127604172D01*
X156784004Y-127916390D01*
X156844915Y-128222608D01*
X156964395Y-128511060D01*
X157137854Y-128770660D01*
X157358625Y-128991431D01*
X157618225Y-129164890D01*
X157906677Y-129284370D01*
X158212895Y-129345281D01*
X158525113Y-129345281D01*
X158831331Y-129284370D01*
X159119783Y-129164890D01*
X159379383Y-128991431D01*
X159600154Y-128770660D01*
X159773613Y-128511060D01*
X159893093Y-128222608D01*
X159954004Y-127916390D01*
X159954004Y-127604172D01*
X159893093Y-127297954D01*
X159773613Y-127009502D01*
X159600154Y-126749902D01*
X159379383Y-126529131D01*
X159119783Y-126355672D01*
X158831331Y-126236192D01*
X158525113Y-126175281D01*
X158212895Y-126175281D01*
X157906677Y-126236192D01*
X157618225Y-126355672D01*
X157358625Y-126529131D01*
X157137854Y-126749902D01*
X156964395Y-127009502D01*
X156844915Y-127297954D01*
X156784004Y-127604172D01*
X156004143Y-127604172D01*
X156045000Y-127398771D01*
X156045000Y-126781229D01*
X155924524Y-126175554D01*
X155688201Y-125605021D01*
X155345114Y-125091554D01*
X154908446Y-124654886D01*
X154394979Y-124311799D01*
X153824446Y-124075476D01*
X153218771Y-123955000D01*
X152601229Y-123955000D01*
X151995554Y-124075476D01*
X151425021Y-124311799D01*
X150911554Y-124654886D01*
X150621554Y-124944886D01*
X150875185Y-122848475D01*
X151407746Y-122913865D01*
X151532794Y-122916866D01*
X151656024Y-122895415D01*
X151772702Y-122850334D01*
X151878343Y-122783357D01*
X151968888Y-122697057D01*
X152011784Y-122636079D01*
X152268046Y-122892341D01*
X152617727Y-123125990D01*
X153006273Y-123286931D01*
X153418750Y-123368978D01*
X153839308Y-123368978D01*
X154251785Y-123286931D01*
X154640331Y-123125990D01*
X154990012Y-122892341D01*
X155287392Y-122594961D01*
X155521041Y-122245280D01*
X155681982Y-121856734D01*
X155764029Y-121444257D01*
X155764029Y-121023699D01*
X155681982Y-120611222D01*
X155521041Y-120222676D01*
X155287392Y-119872995D01*
X154990012Y-119575615D01*
X154640331Y-119341966D01*
X154251785Y-119181025D01*
X153839308Y-119098978D01*
X153418750Y-119098978D01*
X153006273Y-119181025D01*
X152617727Y-119341966D01*
X152400810Y-119486905D01*
X152372152Y-119412734D01*
X152305175Y-119307093D01*
X152218875Y-119216548D01*
X152116569Y-119144579D01*
X152002188Y-119093953D01*
X151880128Y-119066613D01*
X149299508Y-118749753D01*
X149174460Y-118746752D01*
X149051230Y-118768203D01*
X148934552Y-118813284D01*
X148828911Y-118880261D01*
X148738366Y-118966561D01*
X148666397Y-119068867D01*
X148615771Y-119183248D01*
X148588431Y-119305308D01*
X148271571Y-121885928D01*
X148268570Y-122010976D01*
X148290021Y-122134206D01*
X148335102Y-122250884D01*
X148402079Y-122356525D01*
X148488379Y-122447070D01*
X148590685Y-122519039D01*
X148705066Y-122569665D01*
X148827126Y-122597005D01*
X149366512Y-122663233D01*
X148969581Y-125944105D01*
X148855605Y-125668940D01*
X148682146Y-125409340D01*
X148461375Y-125188569D01*
X148201775Y-125015110D01*
X147913323Y-124895630D01*
X147607105Y-124834719D01*
X147294887Y-124834719D01*
X146988669Y-124895630D01*
X146700217Y-125015110D01*
X146440617Y-125188569D01*
X146219846Y-125409340D01*
X146046387Y-125668940D01*
X145926907Y-125957392D01*
X145865996Y-126263610D01*
X145865996Y-126575828D01*
X145926907Y-126882046D01*
X146046387Y-127170498D01*
X146219846Y-127430098D01*
X146440617Y-127650869D01*
X146700217Y-127824328D01*
X146988669Y-127943808D01*
X147294887Y-128004719D01*
X147607105Y-128004719D01*
X147913323Y-127943808D01*
X148201775Y-127824328D01*
X148461375Y-127650869D01*
X148682146Y-127430098D01*
X148813603Y-127233358D01*
X148382797Y-130794225D01*
X148382172Y-130792607D01*
X148236087Y-130562193D01*
X148047859Y-130364706D01*
X147824718Y-130207735D01*
X147575242Y-130097313D01*
X147375731Y-130052626D01*
X146545889Y-129950734D01*
X146341494Y-129945828D01*
X146072715Y-129992617D01*
X145818228Y-130090943D01*
X145587814Y-130237028D01*
X145390327Y-130425257D01*
X145233356Y-130648397D01*
X145122934Y-130897873D01*
X145063304Y-131164098D01*
X145056757Y-131436839D01*
X144170000Y-131436839D01*
X144170000Y-121281293D01*
X154763193Y-110688101D01*
X155724763Y-110806167D01*
X155849811Y-110809168D01*
X155973042Y-110787717D01*
X156089719Y-110742636D01*
X156195361Y-110675658D01*
X156285905Y-110589359D01*
X156357874Y-110487052D01*
X156408500Y-110372672D01*
X156435840Y-110250612D01*
X156606091Y-108864025D01*
X156609092Y-108738977D01*
X156587641Y-108615746D01*
X156542560Y-108499069D01*
X156475582Y-108393427D01*
X156389283Y-108302883D01*
X156286976Y-108230914D01*
X156172596Y-108180288D01*
X156050536Y-108152948D01*
X154285789Y-107936265D01*
X154160741Y-107933264D01*
X154037510Y-107954715D01*
X153920833Y-107999796D01*
X153815191Y-108066774D01*
X153724647Y-108153073D01*
X153652678Y-108255380D01*
X153602052Y-108369760D01*
X153574712Y-108491820D01*
X153404461Y-109878407D01*
X153403998Y-109897692D01*
X143348246Y-119953445D01*
X138473804Y-115079003D01*
X138450001Y-115049999D01*
X138334276Y-114955026D01*
X138202247Y-114884454D01*
X138058986Y-114840997D01*
X137947333Y-114830000D01*
X137947322Y-114830000D01*
X137910000Y-114826324D01*
X137872678Y-114830000D01*
X112297933Y-114830000D01*
X112260600Y-114826323D01*
X112223267Y-114830000D01*
X112111614Y-114840997D01*
X111968353Y-114884454D01*
X111836324Y-114955026D01*
X111720599Y-115049999D01*
X111696801Y-115078997D01*
X110163570Y-116612228D01*
X110009592Y-116581600D01*
X109803802Y-116581600D01*
X112535403Y-113850000D01*
X126472678Y-113850000D01*
X126510000Y-113853676D01*
X126547322Y-113850000D01*
X126547333Y-113850000D01*
X126658986Y-113839003D01*
X126802247Y-113795546D01*
X126934276Y-113724974D01*
X127050001Y-113630001D01*
X127073804Y-113600997D01*
X135278231Y-105396572D01*
X136429000Y-105396572D01*
X136553482Y-105384312D01*
X136673180Y-105348002D01*
X136783494Y-105289037D01*
X136880185Y-105209685D01*
X136959537Y-105112994D01*
X137018502Y-105002680D01*
X137054812Y-104882982D01*
X137067072Y-104758500D01*
X137067072Y-104029302D01*
X145486038Y-104029302D01*
X145516331Y-104300437D01*
X145598937Y-104560452D01*
X145730683Y-104799354D01*
X145906505Y-105007964D01*
X146119646Y-105178264D01*
X146361916Y-105303710D01*
X146558327Y-105360494D01*
X147380399Y-105512855D01*
X147584114Y-105530230D01*
X147855249Y-105499937D01*
X148115263Y-105417330D01*
X148354165Y-105285585D01*
X148562775Y-105109763D01*
X148733076Y-104896622D01*
X148858522Y-104654352D01*
X148934293Y-104392264D01*
X148957478Y-104120430D01*
X148927185Y-103849297D01*
X148844578Y-103589282D01*
X148712832Y-103350380D01*
X148537011Y-103141770D01*
X148323870Y-102971470D01*
X148081599Y-102846023D01*
X147885189Y-102789240D01*
X147063115Y-102636878D01*
X146859402Y-102619504D01*
X146588267Y-102649797D01*
X146328252Y-102732403D01*
X146089350Y-102864149D01*
X145880740Y-103039971D01*
X145710440Y-103253112D01*
X145584994Y-103495382D01*
X145509222Y-103757470D01*
X145486038Y-104029302D01*
X137067072Y-104029302D01*
X137067072Y-103361500D01*
X137054812Y-103237018D01*
X137018502Y-103117320D01*
X136959537Y-103007006D01*
X136880185Y-102910315D01*
X136783494Y-102830963D01*
X136673180Y-102771998D01*
X136553482Y-102735688D01*
X136429000Y-102723428D01*
X134651000Y-102723428D01*
X134526518Y-102735688D01*
X134406820Y-102771998D01*
X134296506Y-102830963D01*
X134199815Y-102910315D01*
X134120463Y-103007006D01*
X134061498Y-103117320D01*
X134025188Y-103237018D01*
X134012928Y-103361500D01*
X134012928Y-104512269D01*
X126195199Y-112330000D01*
X112257922Y-112330000D01*
X112220599Y-112326324D01*
X112183276Y-112330000D01*
X112183267Y-112330000D01*
X112071614Y-112340997D01*
X111928353Y-112384454D01*
X111796324Y-112455026D01*
X111796322Y-112455027D01*
X111796323Y-112455027D01*
X111709596Y-112526201D01*
X111709592Y-112526205D01*
X111680599Y-112549999D01*
X111656805Y-112578992D01*
X107623570Y-116612228D01*
X107469592Y-116581600D01*
X107194408Y-116581600D01*
X106924510Y-116635286D01*
X106670273Y-116740595D01*
X106441465Y-116893480D01*
X106246880Y-117088065D01*
X106093995Y-117316873D01*
X106062000Y-117394115D01*
X106030005Y-117316873D01*
X105877120Y-117088065D01*
X105682535Y-116893480D01*
X105552000Y-116806259D01*
X105552000Y-115262801D01*
X115418230Y-105396572D01*
X116569000Y-105396572D01*
X116693482Y-105384312D01*
X116813180Y-105348002D01*
X116923494Y-105289037D01*
X117020185Y-105209685D01*
X117099537Y-105112994D01*
X117158502Y-105002680D01*
X117194812Y-104882982D01*
X117207072Y-104758500D01*
X117207072Y-103361500D01*
X117194812Y-103237018D01*
X117158502Y-103117320D01*
X117099537Y-103007006D01*
X117020185Y-102910315D01*
X116923494Y-102830963D01*
X116813180Y-102771998D01*
X116693482Y-102735688D01*
X116569000Y-102723428D01*
X114791000Y-102723428D01*
X114666518Y-102735688D01*
X114546820Y-102771998D01*
X114436506Y-102830963D01*
X114339815Y-102910315D01*
X114260463Y-103007006D01*
X114201498Y-103117320D01*
X114165188Y-103237018D01*
X114152928Y-103361500D01*
X114152928Y-104512270D01*
X104280998Y-114384201D01*
X104252000Y-114407999D01*
X104228202Y-114436997D01*
X104228201Y-114436998D01*
X104157026Y-114523724D01*
X104086454Y-114655754D01*
X104042998Y-114799015D01*
X104028324Y-114948000D01*
X104032001Y-114985332D01*
X104032000Y-116806259D01*
X103901465Y-116893480D01*
X103706880Y-117088065D01*
X103553995Y-117316873D01*
X103522000Y-117394115D01*
X103490005Y-117316873D01*
X103337120Y-117088065D01*
X103142535Y-116893480D01*
X103012000Y-116806259D01*
X103012000Y-115623961D01*
X103015677Y-115586628D01*
X103001003Y-115437642D01*
X102957546Y-115294381D01*
X102886974Y-115162352D01*
X102815799Y-115075625D01*
X102792001Y-115046627D01*
X102763003Y-115022829D01*
X100473806Y-112733633D01*
X100473799Y-112733624D01*
X100152631Y-112412457D01*
X100164829Y-112390108D01*
X100202182Y-112270731D01*
X100215529Y-112146361D01*
X100204355Y-112021777D01*
X100169091Y-111901767D01*
X99645766Y-110606491D01*
X99587767Y-110495667D01*
X99509261Y-110398287D01*
X99413266Y-110318093D01*
X99303471Y-110258169D01*
X99184094Y-110220816D01*
X99059724Y-110207469D01*
X98935140Y-110218643D01*
X98815130Y-110253907D01*
X97166597Y-110919957D01*
X97055773Y-110977956D01*
X96958393Y-111056462D01*
X96878199Y-111152457D01*
X96818275Y-111262252D01*
X96780922Y-111381629D01*
X96767575Y-111505999D01*
X96778749Y-111630583D01*
X96814013Y-111750593D01*
X97337338Y-113045869D01*
X97395337Y-113156693D01*
X97473843Y-113254073D01*
X97569838Y-113334267D01*
X97679633Y-113394191D01*
X97799010Y-113431544D01*
X97923380Y-113444891D01*
X98047964Y-113433717D01*
X98167974Y-113398453D01*
X98752756Y-113162186D01*
X99398996Y-113808427D01*
X99399005Y-113808434D01*
X101492001Y-115901431D01*
X101492000Y-116806259D01*
X101361465Y-116893480D01*
X101166880Y-117088065D01*
X101013995Y-117316873D01*
X100982000Y-117394115D01*
X100950005Y-117316873D01*
X100797120Y-117088065D01*
X100602535Y-116893480D01*
X100373727Y-116740595D01*
X100119490Y-116635286D01*
X99849592Y-116581600D01*
X99574408Y-116581600D01*
X99304510Y-116635286D01*
X99050273Y-116740595D01*
X99031625Y-116753055D01*
X99014547Y-116696754D01*
X98943975Y-116564725D01*
X98849002Y-116449000D01*
X98819998Y-116425197D01*
X98725403Y-116330602D01*
X98701600Y-116301598D01*
X98585875Y-116206625D01*
X98453846Y-116136053D01*
X98310585Y-116092596D01*
X98198932Y-116081599D01*
X98198921Y-116081599D01*
X98161599Y-116077923D01*
X98124277Y-116081599D01*
X93266323Y-116081599D01*
X93229000Y-116077923D01*
X93191677Y-116081599D01*
X93191668Y-116081599D01*
X93080015Y-116092596D01*
X92936754Y-116136053D01*
X92804725Y-116206625D01*
X92689000Y-116301598D01*
X92665202Y-116330596D01*
X92383570Y-116612228D01*
X92229592Y-116581600D01*
X91954408Y-116581600D01*
X91684510Y-116635286D01*
X91430273Y-116740595D01*
X91201465Y-116893480D01*
X91006880Y-117088065D01*
X90853995Y-117316873D01*
X90824308Y-117388543D01*
X90819636Y-117375577D01*
X90757656Y-117259620D01*
X90517565Y-117192640D01*
X89731605Y-117978600D01*
X90517565Y-118764560D01*
X90757656Y-118697580D01*
X90821485Y-118561840D01*
X90853995Y-118640327D01*
X91006880Y-118869135D01*
X91201465Y-119063720D01*
X91430273Y-119216605D01*
X91684510Y-119321914D01*
X91954408Y-119375600D01*
X92229592Y-119375600D01*
X92499490Y-119321914D01*
X92753727Y-119216605D01*
X92982535Y-119063720D01*
X93177120Y-118869135D01*
X93330005Y-118640327D01*
X93362000Y-118563085D01*
X93393995Y-118640327D01*
X93546880Y-118869135D01*
X93741465Y-119063720D01*
X93970273Y-119216605D01*
X94224510Y-119321914D01*
X94494408Y-119375600D01*
X94769592Y-119375600D01*
X94923570Y-119344972D01*
X96679600Y-121101002D01*
X96703399Y-121130001D01*
X96819124Y-121224974D01*
X96951153Y-121295546D01*
X97094414Y-121339003D01*
X97206067Y-121350000D01*
X97206076Y-121350000D01*
X97243399Y-121353676D01*
X97280722Y-121350000D01*
X106015199Y-121350000D01*
X112847822Y-128182624D01*
X112629158Y-128262486D01*
X112528686Y-128316188D01*
X112469408Y-128549803D01*
X113210000Y-129290395D01*
X113224143Y-129276253D01*
X113403748Y-129455858D01*
X113389605Y-129470000D01*
X113403748Y-129484143D01*
X113224143Y-129663748D01*
X113210000Y-129649605D01*
X112469408Y-130390197D01*
X112489948Y-130471145D01*
X112384991Y-130439306D01*
X112254978Y-130426501D01*
X112254970Y-130426501D01*
X112211501Y-130422220D01*
X112168032Y-130426501D01*
X91482568Y-130426501D01*
X91439099Y-130422220D01*
X91395630Y-130426501D01*
X91395622Y-130426501D01*
X91280405Y-130437849D01*
X91265608Y-130439306D01*
X91215002Y-130454658D01*
X91098786Y-130489912D01*
X90945040Y-130572090D01*
X90945038Y-130572091D01*
X90945039Y-130572091D01*
X90844052Y-130654969D01*
X90844050Y-130654971D01*
X90810282Y-130682684D01*
X90782569Y-130716452D01*
X89696123Y-131802899D01*
X89689592Y-131801600D01*
X89414408Y-131801600D01*
X89144510Y-131855286D01*
X88890273Y-131960595D01*
X88661465Y-132113480D01*
X88466880Y-132308065D01*
X88313995Y-132536873D01*
X88282000Y-132614115D01*
X88250005Y-132536873D01*
X88097120Y-132308065D01*
X87902535Y-132113480D01*
X87673727Y-131960595D01*
X87419490Y-131855286D01*
X87149592Y-131801600D01*
X86874408Y-131801600D01*
X86604510Y-131855286D01*
X86350273Y-131960595D01*
X86121465Y-132113480D01*
X85926880Y-132308065D01*
X85773995Y-132536873D01*
X85744308Y-132608543D01*
X85739636Y-132595577D01*
X85677656Y-132479620D01*
X85437565Y-132412640D01*
X84651605Y-133198600D01*
X85437565Y-133984560D01*
X85677656Y-133917580D01*
X85741485Y-133781840D01*
X85773995Y-133860327D01*
X85926880Y-134089135D01*
X86121465Y-134283720D01*
X86150001Y-134302787D01*
X86150000Y-135525198D01*
X85651375Y-136023823D01*
X85636912Y-136017832D01*
X85321033Y-135955000D01*
X84998967Y-135955000D01*
X84683088Y-136017832D01*
X84385537Y-136141082D01*
X84117748Y-136320013D01*
X83890013Y-136547748D01*
X83711082Y-136815537D01*
X83587832Y-137113088D01*
X83525000Y-137428967D01*
X83525000Y-137751033D01*
X83587832Y-138066912D01*
X83711082Y-138364463D01*
X83890013Y-138632252D01*
X84117748Y-138859987D01*
X84385537Y-139038918D01*
X84683088Y-139162168D01*
X84998967Y-139225000D01*
X85321033Y-139225000D01*
X85636912Y-139162168D01*
X85934463Y-139038918D01*
X86202252Y-138859987D01*
X86429987Y-138632252D01*
X86608918Y-138364463D01*
X86732168Y-138066912D01*
X86795000Y-137751033D01*
X86795000Y-137428967D01*
X86732168Y-137113088D01*
X86726177Y-137098625D01*
X87421004Y-136403798D01*
X87450001Y-136380001D01*
X87544974Y-136264276D01*
X87615546Y-136132247D01*
X87659003Y-135988986D01*
X87670000Y-135877333D01*
X87670000Y-135877325D01*
X87673676Y-135840000D01*
X87670000Y-135802675D01*
X87670000Y-134438149D01*
X87673727Y-134436605D01*
X87902535Y-134283720D01*
X88097120Y-134089135D01*
X88250005Y-133860327D01*
X88282000Y-133783085D01*
X88313995Y-133860327D01*
X88466880Y-134089135D01*
X88661465Y-134283720D01*
X88890273Y-134436605D01*
X89144510Y-134541914D01*
X89414408Y-134595600D01*
X89689592Y-134595600D01*
X89959490Y-134541914D01*
X90213727Y-134436605D01*
X90442535Y-134283720D01*
X90637120Y-134089135D01*
X90790005Y-133860327D01*
X90822000Y-133783085D01*
X90853995Y-133860327D01*
X91006880Y-134089135D01*
X91201465Y-134283720D01*
X91430273Y-134436605D01*
X91684510Y-134541914D01*
X91954408Y-134595600D01*
X92229592Y-134595600D01*
X92499490Y-134541914D01*
X92753727Y-134436605D01*
X92982535Y-134283720D01*
X93177120Y-134089135D01*
X93330005Y-133860327D01*
X93362000Y-133783085D01*
X93393995Y-133860327D01*
X93546880Y-134089135D01*
X93741465Y-134283720D01*
X93970273Y-134436605D01*
X94224510Y-134541914D01*
X94494408Y-134595600D01*
X94769592Y-134595600D01*
X95039490Y-134541914D01*
X95293727Y-134436605D01*
X95522535Y-134283720D01*
X95717120Y-134089135D01*
X95870005Y-133860327D01*
X95902000Y-133783085D01*
X95933995Y-133860327D01*
X96086880Y-134089135D01*
X96281465Y-134283720D01*
X96510273Y-134436605D01*
X96764510Y-134541914D01*
X97034408Y-134595600D01*
X97309592Y-134595600D01*
X97579490Y-134541914D01*
X97833727Y-134436605D01*
X98062535Y-134283720D01*
X98257120Y-134089135D01*
X98410005Y-133860327D01*
X98442000Y-133783085D01*
X98473995Y-133860327D01*
X98626880Y-134089135D01*
X98821465Y-134283720D01*
X99050273Y-134436605D01*
X99304510Y-134541914D01*
X99574408Y-134595600D01*
X99849592Y-134595600D01*
X100119490Y-134541914D01*
X100373727Y-134436605D01*
X100602535Y-134283720D01*
X100797120Y-134089135D01*
X100950005Y-133860327D01*
X100982000Y-133783085D01*
X101013995Y-133860327D01*
X101166880Y-134089135D01*
X101361465Y-134283720D01*
X101590273Y-134436605D01*
X101844510Y-134541914D01*
X102114408Y-134595600D01*
X102389592Y-134595600D01*
X102659490Y-134541914D01*
X102913727Y-134436605D01*
X103142535Y-134283720D01*
X103337120Y-134089135D01*
X103490005Y-133860327D01*
X103522000Y-133783085D01*
X103553995Y-133860327D01*
X103706880Y-134089135D01*
X103901465Y-134283720D01*
X104130273Y-134436605D01*
X104384510Y-134541914D01*
X104654408Y-134595600D01*
X104929592Y-134595600D01*
X105199490Y-134541914D01*
X105453727Y-134436605D01*
X105682535Y-134283720D01*
X105877120Y-134089135D01*
X106030005Y-133860327D01*
X106062000Y-133783085D01*
X106093995Y-133860327D01*
X106246880Y-134089135D01*
X106441465Y-134283720D01*
X106572000Y-134370941D01*
X106572001Y-136974668D01*
X106568324Y-137012000D01*
X106572001Y-137049333D01*
X106582998Y-137160986D01*
X106586870Y-137173751D01*
X106626454Y-137304246D01*
X106697026Y-137436276D01*
X106744536Y-137494166D01*
X106792000Y-137552001D01*
X106820998Y-137575799D01*
X108675198Y-139430000D01*
X79692278Y-139430000D01*
X79254666Y-139387092D01*
X78864768Y-139269375D01*
X78779317Y-139223939D01*
X79041675Y-139187961D01*
X79346088Y-139082795D01*
X79520044Y-138989814D01*
X79615808Y-138725413D01*
X78660000Y-137769605D01*
X78645858Y-137783748D01*
X78466253Y-137604143D01*
X78480395Y-137590000D01*
X78839605Y-137590000D01*
X79795413Y-138545808D01*
X80059814Y-138450044D01*
X80200704Y-138160429D01*
X80282384Y-137848892D01*
X80301718Y-137527405D01*
X80257961Y-137208325D01*
X80152795Y-136903912D01*
X80059814Y-136729956D01*
X79795413Y-136634192D01*
X78839605Y-137590000D01*
X78480395Y-137590000D01*
X78466253Y-137575858D01*
X78645858Y-137396253D01*
X78660000Y-137410395D01*
X79615808Y-136454587D01*
X79520044Y-136190186D01*
X79230429Y-136049296D01*
X78918892Y-135967616D01*
X78597405Y-135948282D01*
X78278325Y-135992039D01*
X77973912Y-136097205D01*
X77799956Y-136190186D01*
X77704193Y-136454585D01*
X77588525Y-136338917D01*
X77570225Y-136357217D01*
X77570980Y-133061008D01*
X80535000Y-133061008D01*
X80535000Y-133336192D01*
X80588686Y-133606090D01*
X80693995Y-133860327D01*
X80846880Y-134089135D01*
X81041465Y-134283720D01*
X81270273Y-134436605D01*
X81524510Y-134541914D01*
X81794408Y-134595600D01*
X82069592Y-134595600D01*
X82339490Y-134541914D01*
X82593727Y-134436605D01*
X82822535Y-134283720D01*
X82942090Y-134164165D01*
X83686040Y-134164165D01*
X83753020Y-134404256D01*
X84002048Y-134521356D01*
X84269135Y-134587623D01*
X84544017Y-134600510D01*
X84816133Y-134559522D01*
X85075023Y-134466236D01*
X85190980Y-134404256D01*
X85257960Y-134164165D01*
X84472000Y-133378205D01*
X83686040Y-134164165D01*
X82942090Y-134164165D01*
X83017120Y-134089135D01*
X83170005Y-133860327D01*
X83199692Y-133788657D01*
X83204364Y-133801623D01*
X83266344Y-133917580D01*
X83506435Y-133984560D01*
X84292395Y-133198600D01*
X83506435Y-132412640D01*
X83266344Y-132479620D01*
X83202515Y-132615360D01*
X83170005Y-132536873D01*
X83017120Y-132308065D01*
X82942090Y-132233035D01*
X83686040Y-132233035D01*
X84472000Y-133018995D01*
X85257960Y-132233035D01*
X85190980Y-131992944D01*
X84941952Y-131875844D01*
X84674865Y-131809577D01*
X84399983Y-131796690D01*
X84127867Y-131837678D01*
X83868977Y-131930964D01*
X83753020Y-131992944D01*
X83686040Y-132233035D01*
X82942090Y-132233035D01*
X82822535Y-132113480D01*
X82593727Y-131960595D01*
X82339490Y-131855286D01*
X82069592Y-131801600D01*
X81794408Y-131801600D01*
X81524510Y-131855286D01*
X81270273Y-131960595D01*
X81041465Y-132113480D01*
X80846880Y-132308065D01*
X80693995Y-132536873D01*
X80588686Y-132791110D01*
X80535000Y-133061008D01*
X77570980Y-133061008D01*
X77571786Y-129544533D01*
X111872124Y-129544533D01*
X111912371Y-129804107D01*
X112002486Y-130050842D01*
X112056188Y-130151314D01*
X112289803Y-130210592D01*
X113030395Y-129470000D01*
X112289803Y-128729408D01*
X112056188Y-128788686D01*
X111945441Y-129026875D01*
X111883289Y-129282093D01*
X111872124Y-129544533D01*
X77571786Y-129544533D01*
X77574470Y-117841008D01*
X80535000Y-117841008D01*
X80535000Y-118116192D01*
X80588686Y-118386090D01*
X80693995Y-118640327D01*
X80846880Y-118869135D01*
X81041465Y-119063720D01*
X81270273Y-119216605D01*
X81524510Y-119321914D01*
X81794408Y-119375600D01*
X82069592Y-119375600D01*
X82339490Y-119321914D01*
X82593727Y-119216605D01*
X82822535Y-119063720D01*
X83017120Y-118869135D01*
X83170005Y-118640327D01*
X83202000Y-118563085D01*
X83233995Y-118640327D01*
X83386880Y-118869135D01*
X83581465Y-119063720D01*
X83810273Y-119216605D01*
X84064510Y-119321914D01*
X84334408Y-119375600D01*
X84609592Y-119375600D01*
X84879490Y-119321914D01*
X85133727Y-119216605D01*
X85362535Y-119063720D01*
X85482090Y-118944165D01*
X86226040Y-118944165D01*
X86293020Y-119184256D01*
X86542048Y-119301356D01*
X86809135Y-119367623D01*
X87084017Y-119380510D01*
X87356133Y-119339522D01*
X87615023Y-119246236D01*
X87730980Y-119184256D01*
X87797960Y-118944165D01*
X88766040Y-118944165D01*
X88833020Y-119184256D01*
X89082048Y-119301356D01*
X89349135Y-119367623D01*
X89624017Y-119380510D01*
X89896133Y-119339522D01*
X90155023Y-119246236D01*
X90270980Y-119184256D01*
X90337960Y-118944165D01*
X89552000Y-118158205D01*
X88766040Y-118944165D01*
X87797960Y-118944165D01*
X87012000Y-118158205D01*
X86226040Y-118944165D01*
X85482090Y-118944165D01*
X85557120Y-118869135D01*
X85710005Y-118640327D01*
X85739692Y-118568657D01*
X85744364Y-118581623D01*
X85806344Y-118697580D01*
X86046435Y-118764560D01*
X86832395Y-117978600D01*
X87191605Y-117978600D01*
X87977565Y-118764560D01*
X88217656Y-118697580D01*
X88279079Y-118566956D01*
X88284364Y-118581623D01*
X88346344Y-118697580D01*
X88586435Y-118764560D01*
X89372395Y-117978600D01*
X88586435Y-117192640D01*
X88346344Y-117259620D01*
X88284921Y-117390244D01*
X88279636Y-117375577D01*
X88217656Y-117259620D01*
X87977565Y-117192640D01*
X87191605Y-117978600D01*
X86832395Y-117978600D01*
X86046435Y-117192640D01*
X85806344Y-117259620D01*
X85742515Y-117395360D01*
X85710005Y-117316873D01*
X85557120Y-117088065D01*
X85482090Y-117013035D01*
X86226040Y-117013035D01*
X87012000Y-117798995D01*
X87797960Y-117013035D01*
X88766040Y-117013035D01*
X89552000Y-117798995D01*
X90337960Y-117013035D01*
X90270980Y-116772944D01*
X90021952Y-116655844D01*
X89754865Y-116589577D01*
X89479983Y-116576690D01*
X89207867Y-116617678D01*
X88948977Y-116710964D01*
X88833020Y-116772944D01*
X88766040Y-117013035D01*
X87797960Y-117013035D01*
X87730980Y-116772944D01*
X87481952Y-116655844D01*
X87214865Y-116589577D01*
X86939983Y-116576690D01*
X86667867Y-116617678D01*
X86408977Y-116710964D01*
X86293020Y-116772944D01*
X86226040Y-117013035D01*
X85482090Y-117013035D01*
X85362535Y-116893480D01*
X85133727Y-116740595D01*
X84879490Y-116635286D01*
X84609592Y-116581600D01*
X84334408Y-116581600D01*
X84064510Y-116635286D01*
X83810273Y-116740595D01*
X83581465Y-116893480D01*
X83386880Y-117088065D01*
X83233995Y-117316873D01*
X83202000Y-117394115D01*
X83170005Y-117316873D01*
X83017120Y-117088065D01*
X82822535Y-116893480D01*
X82593727Y-116740595D01*
X82339490Y-116635286D01*
X82069592Y-116581600D01*
X81794408Y-116581600D01*
X81524510Y-116635286D01*
X81270273Y-116740595D01*
X81041465Y-116893480D01*
X80846880Y-117088065D01*
X80693995Y-117316873D01*
X80588686Y-117571110D01*
X80535000Y-117841008D01*
X77574470Y-117841008D01*
X77575327Y-114108782D01*
X77746750Y-114365334D01*
X78134666Y-114753250D01*
X78590808Y-115058035D01*
X79097646Y-115267974D01*
X79635701Y-115375000D01*
X80184299Y-115375000D01*
X80722354Y-115267974D01*
X81229192Y-115058035D01*
X81685334Y-114753250D01*
X82073250Y-114365334D01*
X82378035Y-113909192D01*
X82587974Y-113402354D01*
X82695000Y-112864299D01*
X82695000Y-112315701D01*
X82587974Y-111777646D01*
X82484963Y-111528953D01*
X87451002Y-111528953D01*
X87475372Y-111800683D01*
X87552287Y-112062437D01*
X87678789Y-112304157D01*
X87850018Y-112516553D01*
X88059393Y-112691463D01*
X88298868Y-112822165D01*
X88559240Y-112903636D01*
X88830504Y-112932745D01*
X89102234Y-112908375D01*
X89298395Y-112850734D01*
X90073589Y-112537536D01*
X90254736Y-112442734D01*
X90467132Y-112271505D01*
X90642042Y-112062130D01*
X90772743Y-111822655D01*
X90854215Y-111562283D01*
X90883324Y-111291020D01*
X90858954Y-111019289D01*
X90782039Y-110757535D01*
X90655537Y-110515815D01*
X90484308Y-110303419D01*
X90274933Y-110128509D01*
X90035458Y-109997808D01*
X89775086Y-109916336D01*
X89503822Y-109887227D01*
X89232091Y-109911597D01*
X89035930Y-109969238D01*
X88260737Y-110282436D01*
X88079590Y-110377238D01*
X87867194Y-110548467D01*
X87692284Y-110757842D01*
X87561582Y-110997317D01*
X87480111Y-111257689D01*
X87451002Y-111528953D01*
X82484963Y-111528953D01*
X82378035Y-111270808D01*
X82073250Y-110814666D01*
X81685334Y-110426750D01*
X81229192Y-110121965D01*
X80722354Y-109912026D01*
X80184299Y-109805000D01*
X79635701Y-109805000D01*
X79097646Y-109912026D01*
X78590808Y-110121965D01*
X78134666Y-110426750D01*
X77746750Y-110814666D01*
X77576024Y-111070176D01*
X77577048Y-106599227D01*
X85755489Y-106599227D01*
X85755489Y-106911445D01*
X85816400Y-107217663D01*
X85935880Y-107506115D01*
X86109339Y-107765715D01*
X86330110Y-107986486D01*
X86589710Y-108159945D01*
X86878162Y-108279425D01*
X87184380Y-108340336D01*
X87496598Y-108340336D01*
X87802816Y-108279425D01*
X88091268Y-108159945D01*
X88350868Y-107986486D01*
X88571639Y-107765715D01*
X88745098Y-107506115D01*
X88864578Y-107217663D01*
X88925489Y-106911445D01*
X88925489Y-106599227D01*
X88864578Y-106293009D01*
X88745098Y-106004557D01*
X88571639Y-105744957D01*
X88350868Y-105524186D01*
X88091268Y-105350727D01*
X87802816Y-105231247D01*
X87496598Y-105170336D01*
X87184380Y-105170336D01*
X86878162Y-105231247D01*
X86589710Y-105350727D01*
X86330110Y-105524186D01*
X86109339Y-105744957D01*
X85935880Y-106004557D01*
X85816400Y-106293009D01*
X85755489Y-106599227D01*
X77577048Y-106599227D01*
X77578622Y-99736899D01*
X84839738Y-99736899D01*
X84850912Y-99861483D01*
X84886176Y-99981493D01*
X85860154Y-102392171D01*
X85918153Y-102502996D01*
X85996659Y-102600376D01*
X86092654Y-102680569D01*
X86202450Y-102740493D01*
X86321826Y-102777847D01*
X86446196Y-102791193D01*
X86570780Y-102780019D01*
X86690790Y-102744755D01*
X87399895Y-102458258D01*
X92092566Y-112985123D01*
X92017131Y-113024601D01*
X91812634Y-113189463D01*
X91644229Y-113391053D01*
X91518387Y-113621624D01*
X91439946Y-113872315D01*
X91411919Y-114133492D01*
X91435383Y-114395117D01*
X91509438Y-114647139D01*
X91631237Y-114879871D01*
X91796099Y-115084368D01*
X91997689Y-115252773D01*
X92228260Y-115378615D01*
X92478951Y-115457056D01*
X92740128Y-115485083D01*
X93001753Y-115461619D01*
X93190620Y-115406121D01*
X93665354Y-115214316D01*
X93839765Y-115123039D01*
X94044262Y-114958177D01*
X94212667Y-114756587D01*
X94338509Y-114526016D01*
X94416950Y-114275325D01*
X94444977Y-114014149D01*
X94421512Y-113752523D01*
X94347458Y-113500501D01*
X94225658Y-113267769D01*
X94060796Y-113063272D01*
X93859206Y-112894867D01*
X93660460Y-112786394D01*
X93652793Y-112763347D01*
X93633994Y-112701374D01*
X93611524Y-112659336D01*
X91377692Y-107648277D01*
X91525554Y-107709524D01*
X92131229Y-107830000D01*
X92748771Y-107830000D01*
X93354446Y-107709524D01*
X93924979Y-107473201D01*
X94438446Y-107130114D01*
X94875114Y-106693446D01*
X95218201Y-106179979D01*
X95454524Y-105609446D01*
X95575000Y-105003771D01*
X95575000Y-104386229D01*
X95454524Y-103780554D01*
X95218201Y-103210021D01*
X94875114Y-102696554D01*
X94657115Y-102478555D01*
X95954511Y-102478555D01*
X95954511Y-102790773D01*
X96015422Y-103096991D01*
X96134902Y-103385443D01*
X96308361Y-103645043D01*
X96529132Y-103865814D01*
X96788732Y-104039273D01*
X97077184Y-104158753D01*
X97383402Y-104219664D01*
X97695620Y-104219664D01*
X98001838Y-104158753D01*
X98290290Y-104039273D01*
X98549890Y-103865814D01*
X98770661Y-103645043D01*
X98944120Y-103385443D01*
X99063600Y-103096991D01*
X99124511Y-102790773D01*
X99124511Y-102478555D01*
X99063600Y-102172337D01*
X98944120Y-101883885D01*
X98770661Y-101624285D01*
X98549890Y-101403514D01*
X98290290Y-101230055D01*
X98001838Y-101110575D01*
X97695620Y-101049664D01*
X97383402Y-101049664D01*
X97077184Y-101110575D01*
X96788732Y-101230055D01*
X96529132Y-101403514D01*
X96308361Y-101624285D01*
X96134902Y-101883885D01*
X96015422Y-102172337D01*
X95954511Y-102478555D01*
X94657115Y-102478555D01*
X94438446Y-102259886D01*
X93924979Y-101916799D01*
X93354446Y-101680476D01*
X92748771Y-101560000D01*
X92131229Y-101560000D01*
X91525554Y-101680476D01*
X90955021Y-101916799D01*
X90441554Y-102259886D01*
X90004886Y-102696554D01*
X89661799Y-103210021D01*
X89535321Y-103515366D01*
X88810095Y-101888499D01*
X89101468Y-101770777D01*
X89212293Y-101712778D01*
X89309673Y-101634272D01*
X89389866Y-101538277D01*
X89449790Y-101428481D01*
X89487144Y-101309105D01*
X89495488Y-101231351D01*
X89607065Y-101277568D01*
X90019542Y-101359615D01*
X90440100Y-101359615D01*
X90852577Y-101277568D01*
X91241123Y-101116627D01*
X91590804Y-100882978D01*
X91888184Y-100585598D01*
X92121833Y-100235917D01*
X92282774Y-99847371D01*
X92364821Y-99434894D01*
X92364821Y-99014336D01*
X92282774Y-98601859D01*
X92121833Y-98213313D01*
X91888184Y-97863632D01*
X91590804Y-97566252D01*
X91241123Y-97332603D01*
X90852577Y-97171662D01*
X90440100Y-97089615D01*
X90019542Y-97089615D01*
X89607065Y-97171662D01*
X89218519Y-97332603D01*
X88868838Y-97566252D01*
X88571458Y-97863632D01*
X88337809Y-98213313D01*
X88306072Y-98289933D01*
X88247574Y-98241065D01*
X88137778Y-98181141D01*
X88018402Y-98143787D01*
X87894032Y-98130441D01*
X87769448Y-98141615D01*
X87649438Y-98176879D01*
X85238760Y-99150857D01*
X85127935Y-99208856D01*
X85030555Y-99287362D01*
X84950362Y-99383357D01*
X84890438Y-99493153D01*
X84853084Y-99612529D01*
X84839738Y-99736899D01*
X77578622Y-99736899D01*
X77580943Y-89617187D01*
X77746750Y-89865334D01*
X78134666Y-90253250D01*
X78590808Y-90558035D01*
X79097646Y-90767974D01*
X79635701Y-90875000D01*
X80184299Y-90875000D01*
X80722354Y-90767974D01*
X81229192Y-90558035D01*
X81685334Y-90253250D01*
X82073250Y-89865334D01*
X82378035Y-89409192D01*
X82587974Y-88902354D01*
X82695000Y-88364299D01*
X82695000Y-87815701D01*
X82587974Y-87277646D01*
X82378035Y-86770808D01*
X82073250Y-86314666D01*
X81685334Y-85926750D01*
X81420810Y-85750000D01*
X99175198Y-85750000D01*
X98238580Y-86686619D01*
%TA.AperFunction,Conductor*%
D22*
G36*
X98238580Y-86686619D02*
G01*
X98209582Y-86710417D01*
X98185784Y-86739415D01*
X98185783Y-86739416D01*
X98114608Y-86826142D01*
X98044036Y-86958172D01*
X98024713Y-87021875D01*
X98000580Y-87101432D01*
X97992746Y-87180967D01*
X97985906Y-87250418D01*
X97989583Y-87287750D01*
X97989582Y-96371967D01*
X96818228Y-96845225D01*
X96707403Y-96903224D01*
X96610023Y-96981730D01*
X96529830Y-97077725D01*
X96469906Y-97187521D01*
X96432552Y-97306897D01*
X96424208Y-97384651D01*
X96312631Y-97338434D01*
X95900154Y-97256387D01*
X95479596Y-97256387D01*
X95067119Y-97338434D01*
X94678573Y-97499375D01*
X94328892Y-97733024D01*
X94031512Y-98030404D01*
X93797863Y-98380085D01*
X93636922Y-98768631D01*
X93554875Y-99181108D01*
X93554875Y-99601666D01*
X93636922Y-100014143D01*
X93797863Y-100402689D01*
X94031512Y-100752370D01*
X94328892Y-101049750D01*
X94678573Y-101283399D01*
X95067119Y-101444340D01*
X95479596Y-101526387D01*
X95900154Y-101526387D01*
X96312631Y-101444340D01*
X96701177Y-101283399D01*
X97050858Y-101049750D01*
X97348238Y-100752370D01*
X97581887Y-100402689D01*
X97613624Y-100326069D01*
X97672122Y-100374937D01*
X97781918Y-100434861D01*
X97901294Y-100472215D01*
X98025664Y-100485561D01*
X98150248Y-100474387D01*
X98270258Y-100439123D01*
X98936360Y-100170000D01*
X106198299Y-100170000D01*
X106225040Y-100441507D01*
X106304236Y-100702581D01*
X106432843Y-100943188D01*
X106605919Y-101154081D01*
X106816812Y-101327157D01*
X107057419Y-101455764D01*
X107318493Y-101534960D01*
X107521963Y-101555000D01*
X108358037Y-101555000D01*
X108561507Y-101534960D01*
X108822581Y-101455764D01*
X109013627Y-101353648D01*
X108962311Y-102829750D01*
X108745063Y-102945871D01*
X108542011Y-103112511D01*
X108375371Y-103315563D01*
X108251546Y-103547223D01*
X108175295Y-103798588D01*
X108149548Y-104060000D01*
X108175295Y-104321412D01*
X108251546Y-104572777D01*
X108375371Y-104804437D01*
X108542011Y-105007489D01*
X108745063Y-105174129D01*
X108976723Y-105297954D01*
X109228088Y-105374205D01*
X109423992Y-105393500D01*
X109936008Y-105393500D01*
X110131912Y-105374205D01*
X110383277Y-105297954D01*
X110614937Y-105174129D01*
X110817989Y-105007489D01*
X110984629Y-104804437D01*
X111108454Y-104572777D01*
X111184705Y-104321412D01*
X111210452Y-104060000D01*
X111184705Y-103798588D01*
X111108454Y-103547223D01*
X110984629Y-103315563D01*
X110817989Y-103112511D01*
X110614937Y-102945871D01*
X110481668Y-102874637D01*
X110575694Y-100170000D01*
X125248299Y-100170000D01*
X125275040Y-100441507D01*
X125354236Y-100702581D01*
X125482843Y-100943188D01*
X125655919Y-101154081D01*
X125866812Y-101327157D01*
X126107419Y-101455764D01*
X126368493Y-101534960D01*
X126571963Y-101555000D01*
X127408037Y-101555000D01*
X127611507Y-101534960D01*
X127872581Y-101455764D01*
X128113188Y-101327157D01*
X128324081Y-101154081D01*
X128497157Y-100943188D01*
X128625764Y-100702581D01*
X128704960Y-100441507D01*
X128731701Y-100170000D01*
X128704960Y-99898493D01*
X128625764Y-99637419D01*
X128497157Y-99396812D01*
X128324081Y-99185919D01*
X128113188Y-99012843D01*
X127872581Y-98884236D01*
X127611507Y-98805040D01*
X127408037Y-98785000D01*
X126571963Y-98785000D01*
X126368493Y-98805040D01*
X126107419Y-98884236D01*
X125866812Y-99012843D01*
X125655919Y-99185919D01*
X125482843Y-99396812D01*
X125354236Y-99637419D01*
X125275040Y-99898493D01*
X125248299Y-100170000D01*
X110575694Y-100170000D01*
X110698970Y-96624007D01*
X110711799Y-96654979D01*
X111054886Y-97168446D01*
X111491554Y-97605114D01*
X112005021Y-97948201D01*
X112575554Y-98184524D01*
X113181229Y-98305000D01*
X113798771Y-98305000D01*
X114404446Y-98184524D01*
X114974979Y-97948201D01*
X115488446Y-97605114D01*
X115925114Y-97168446D01*
X116268201Y-96654979D01*
X116504524Y-96084446D01*
X116625000Y-95478771D01*
X116625000Y-95013891D01*
X117405000Y-95013891D01*
X117405000Y-95326109D01*
X117465911Y-95632327D01*
X117585391Y-95920779D01*
X117758850Y-96180379D01*
X117979621Y-96401150D01*
X118239221Y-96574609D01*
X118527673Y-96694089D01*
X118833891Y-96755000D01*
X119146109Y-96755000D01*
X119452327Y-96694089D01*
X119740779Y-96574609D01*
X120000379Y-96401150D01*
X120221150Y-96180379D01*
X120394609Y-95920779D01*
X120514089Y-95632327D01*
X120575000Y-95326109D01*
X120575000Y-95013891D01*
X125455000Y-95013891D01*
X125455000Y-95326109D01*
X125515911Y-95632327D01*
X125635391Y-95920779D01*
X125808850Y-96180379D01*
X126029621Y-96401150D01*
X126289221Y-96574609D01*
X126577673Y-96694089D01*
X126883891Y-96755000D01*
X127196109Y-96755000D01*
X127502327Y-96694089D01*
X127790779Y-96574609D01*
X128050379Y-96401150D01*
X128271150Y-96180379D01*
X128444609Y-95920779D01*
X128564089Y-95632327D01*
X128625000Y-95326109D01*
X128625000Y-95013891D01*
X128564089Y-94707673D01*
X128444609Y-94419221D01*
X128271150Y-94159621D01*
X128050379Y-93938850D01*
X127790779Y-93765391D01*
X127502327Y-93645911D01*
X127196109Y-93585000D01*
X126883891Y-93585000D01*
X126577673Y-93645911D01*
X126289221Y-93765391D01*
X126029621Y-93938850D01*
X125808850Y-94159621D01*
X125635391Y-94419221D01*
X125515911Y-94707673D01*
X125455000Y-95013891D01*
X120575000Y-95013891D01*
X120514089Y-94707673D01*
X120394609Y-94419221D01*
X120221150Y-94159621D01*
X120000379Y-93938850D01*
X119740779Y-93765391D01*
X119452327Y-93645911D01*
X119146109Y-93585000D01*
X118833891Y-93585000D01*
X118527673Y-93645911D01*
X118239221Y-93765391D01*
X117979621Y-93938850D01*
X117758850Y-94159621D01*
X117585391Y-94419221D01*
X117465911Y-94707673D01*
X117405000Y-95013891D01*
X116625000Y-95013891D01*
X116625000Y-94861229D01*
X116504524Y-94255554D01*
X116268201Y-93685021D01*
X115925114Y-93171554D01*
X115488446Y-92734886D01*
X114974979Y-92391799D01*
X114404446Y-92155476D01*
X113798771Y-92035000D01*
X113181229Y-92035000D01*
X112575554Y-92155476D01*
X112005021Y-92391799D01*
X111491554Y-92734886D01*
X111054886Y-93171554D01*
X110806047Y-93543969D01*
X110887254Y-91208072D01*
X111490000Y-91208072D01*
X111614482Y-91195812D01*
X111734180Y-91159502D01*
X111844494Y-91100537D01*
X111941185Y-91021185D01*
X112020537Y-90924494D01*
X112056976Y-90856322D01*
X112129017Y-90928363D01*
X112478698Y-91162012D01*
X112867244Y-91322953D01*
X113279721Y-91405000D01*
X113700279Y-91405000D01*
X114112756Y-91322953D01*
X114501302Y-91162012D01*
X114850983Y-90928363D01*
X115148363Y-90630983D01*
X115382012Y-90281302D01*
X115542953Y-89892756D01*
X115625000Y-89480279D01*
X115625000Y-89059721D01*
X115542953Y-88647244D01*
X115382012Y-88258698D01*
X115148363Y-87909017D01*
X114850983Y-87611637D01*
X114501302Y-87377988D01*
X114112756Y-87217047D01*
X113700279Y-87135000D01*
X113279721Y-87135000D01*
X112867244Y-87217047D01*
X112478698Y-87377988D01*
X112129017Y-87611637D01*
X112056976Y-87683678D01*
X112020537Y-87615506D01*
X111941185Y-87518815D01*
X111844494Y-87439463D01*
X111734180Y-87380498D01*
X111614482Y-87344188D01*
X111490000Y-87331928D01*
X108890000Y-87331928D01*
X108765518Y-87344188D01*
X108645820Y-87380498D01*
X108535506Y-87439463D01*
X108438815Y-87518815D01*
X108359463Y-87615506D01*
X108300498Y-87725820D01*
X108264188Y-87845518D01*
X108251928Y-87970000D01*
X108251928Y-90570000D01*
X108264188Y-90694482D01*
X108300498Y-90814180D01*
X108359463Y-90924494D01*
X108438815Y-91021185D01*
X108535506Y-91100537D01*
X108645820Y-91159502D01*
X108765518Y-91195812D01*
X108890000Y-91208072D01*
X109366336Y-91208072D01*
X109261620Y-94220189D01*
X109221150Y-94159621D01*
X109000379Y-93938850D01*
X108740779Y-93765391D01*
X108452327Y-93645911D01*
X108146109Y-93585000D01*
X107833891Y-93585000D01*
X107527673Y-93645911D01*
X107239221Y-93765391D01*
X106979621Y-93938850D01*
X106758850Y-94159621D01*
X106585391Y-94419221D01*
X106465911Y-94707673D01*
X106405000Y-95013891D01*
X106405000Y-95326109D01*
X106465911Y-95632327D01*
X106585391Y-95920779D01*
X106758850Y-96180379D01*
X106979621Y-96401150D01*
X107239221Y-96574609D01*
X107527673Y-96694089D01*
X107833891Y-96755000D01*
X108146109Y-96755000D01*
X108452327Y-96694089D01*
X108740779Y-96574609D01*
X109000379Y-96401150D01*
X109192478Y-96209051D01*
X109094122Y-99038230D01*
X109063188Y-99012843D01*
X108822581Y-98884236D01*
X108561507Y-98805040D01*
X108358037Y-98785000D01*
X107521963Y-98785000D01*
X107318493Y-98805040D01*
X107057419Y-98884236D01*
X106816812Y-99012843D01*
X106605919Y-99185919D01*
X106432843Y-99396812D01*
X106304236Y-99637419D01*
X106225040Y-99898493D01*
X106198299Y-100170000D01*
X98936360Y-100170000D01*
X100680936Y-99465145D01*
X100791761Y-99407146D01*
X100889141Y-99328640D01*
X100969334Y-99232645D01*
X101029258Y-99122849D01*
X101066612Y-99003473D01*
X101079958Y-98879103D01*
X101068784Y-98754519D01*
X101033520Y-98634509D01*
X100059542Y-96223831D01*
X100001543Y-96113006D01*
X99923037Y-96015626D01*
X99827042Y-95935433D01*
X99717246Y-95875509D01*
X99597870Y-95838155D01*
X99509582Y-95828681D01*
X99509582Y-87565219D01*
X100224802Y-86850000D01*
X121030001Y-86850000D01*
X121030000Y-89531928D01*
X120490000Y-89531928D01*
X120365518Y-89544188D01*
X120245820Y-89580498D01*
X120135506Y-89639463D01*
X120038815Y-89718815D01*
X119959463Y-89815506D01*
X119923024Y-89883678D01*
X119850983Y-89811637D01*
X119501302Y-89577988D01*
X119112756Y-89417047D01*
X118700279Y-89335000D01*
X118279721Y-89335000D01*
X117867244Y-89417047D01*
X117478698Y-89577988D01*
X117129017Y-89811637D01*
X116831637Y-90109017D01*
X116597988Y-90458698D01*
X116437047Y-90847244D01*
X116355000Y-91259721D01*
X116355000Y-91680279D01*
X116437047Y-92092756D01*
X116597988Y-92481302D01*
X116831637Y-92830983D01*
X117129017Y-93128363D01*
X117478698Y-93362012D01*
X117867244Y-93522953D01*
X118279721Y-93605000D01*
X118700279Y-93605000D01*
X119112756Y-93522953D01*
X119501302Y-93362012D01*
X119850983Y-93128363D01*
X119923024Y-93056322D01*
X119959463Y-93124494D01*
X120038815Y-93221185D01*
X120135506Y-93300537D01*
X120245820Y-93359502D01*
X120365518Y-93395812D01*
X120490000Y-93408072D01*
X123090000Y-93408072D01*
X123214482Y-93395812D01*
X123334180Y-93359502D01*
X123444494Y-93300537D01*
X123541185Y-93221185D01*
X123620537Y-93124494D01*
X123679502Y-93014180D01*
X123715812Y-92894482D01*
X123728072Y-92770000D01*
X123728072Y-90170000D01*
X123715812Y-90045518D01*
X123679502Y-89925820D01*
X123620537Y-89815506D01*
X123541185Y-89718815D01*
X123444494Y-89639463D01*
X123334180Y-89580498D01*
X123214482Y-89544188D01*
X123090000Y-89531928D01*
X122550000Y-89531928D01*
X122550000Y-87970000D01*
X127301928Y-87970000D01*
X127301928Y-90570000D01*
X127314188Y-90694482D01*
X127350498Y-90814180D01*
X127409463Y-90924494D01*
X127488815Y-91021185D01*
X127585506Y-91100537D01*
X127695820Y-91159502D01*
X127815518Y-91195812D01*
X127940000Y-91208072D01*
X128780001Y-91208072D01*
X128780000Y-102852365D01*
X128605063Y-102945871D01*
X128402011Y-103112511D01*
X128235371Y-103315563D01*
X128111546Y-103547223D01*
X128035295Y-103798588D01*
X128009548Y-104060000D01*
X128035295Y-104321412D01*
X128111546Y-104572777D01*
X128235371Y-104804437D01*
X128402011Y-105007489D01*
X128605063Y-105174129D01*
X128836723Y-105297954D01*
X129088088Y-105374205D01*
X129283992Y-105393500D01*
X129796008Y-105393500D01*
X129991912Y-105374205D01*
X130243277Y-105297954D01*
X130474937Y-105174129D01*
X130677989Y-105007489D01*
X130844629Y-104804437D01*
X130968454Y-104572777D01*
X131044705Y-104321412D01*
X131070452Y-104060000D01*
X131044705Y-103798588D01*
X130968454Y-103547223D01*
X130844629Y-103315563D01*
X130677989Y-103112511D01*
X130474937Y-102945871D01*
X130300000Y-102852365D01*
X130300000Y-99011596D01*
X146597098Y-99011596D01*
X146597098Y-99323814D01*
X146658009Y-99630032D01*
X146777489Y-99918484D01*
X146950948Y-100178084D01*
X147171719Y-100398855D01*
X147431319Y-100572314D01*
X147719771Y-100691794D01*
X148025989Y-100752705D01*
X148338207Y-100752705D01*
X148644425Y-100691794D01*
X148932877Y-100572314D01*
X149192477Y-100398855D01*
X149413248Y-100178084D01*
X149586707Y-99918484D01*
X149706187Y-99630032D01*
X149757830Y-99370409D01*
X148489058Y-107330888D01*
X148257810Y-107420236D01*
X148035963Y-107560889D01*
X147845820Y-107742119D01*
X147694685Y-107956962D01*
X147588369Y-108197160D01*
X147530956Y-108453486D01*
X147524653Y-108716086D01*
X147569702Y-108974870D01*
X147664372Y-109219894D01*
X147805025Y-109441741D01*
X147986255Y-109631884D01*
X148201098Y-109783019D01*
X148441296Y-109889335D01*
X148633389Y-109932361D01*
X149141587Y-109994759D01*
X149338383Y-109999483D01*
X149597167Y-109954434D01*
X149842190Y-109859764D01*
X150064037Y-109719111D01*
X150254180Y-109537881D01*
X150405315Y-109323038D01*
X150511631Y-109082840D01*
X150569044Y-108826514D01*
X150575347Y-108563914D01*
X150530298Y-108305130D01*
X150435628Y-108060106D01*
X150294976Y-107838259D01*
X150113745Y-107648116D01*
X149991400Y-107562050D01*
X150909569Y-101801303D01*
X151154886Y-102168446D01*
X151591554Y-102605114D01*
X152105021Y-102948201D01*
X152675554Y-103184524D01*
X153281229Y-103305000D01*
X153898771Y-103305000D01*
X154504446Y-103184524D01*
X155074979Y-102948201D01*
X155588446Y-102605114D01*
X156025114Y-102168446D01*
X156368201Y-101654979D01*
X156604524Y-101084446D01*
X156618101Y-101016186D01*
X157412902Y-101016186D01*
X157412902Y-101328404D01*
X157473813Y-101634622D01*
X157593293Y-101923074D01*
X157766752Y-102182674D01*
X157987523Y-102403445D01*
X158247123Y-102576904D01*
X158535575Y-102696384D01*
X158841793Y-102757295D01*
X159154011Y-102757295D01*
X159460229Y-102696384D01*
X159748681Y-102576904D01*
X160008281Y-102403445D01*
X160229052Y-102182674D01*
X160402511Y-101923074D01*
X160521991Y-101634622D01*
X160582902Y-101328404D01*
X160582902Y-101016186D01*
X160521991Y-100709968D01*
X160402511Y-100421516D01*
X160229052Y-100161916D01*
X160008281Y-99941145D01*
X159748681Y-99767686D01*
X159460229Y-99648206D01*
X159154011Y-99587295D01*
X158841793Y-99587295D01*
X158535575Y-99648206D01*
X158247123Y-99767686D01*
X157987523Y-99941145D01*
X157766752Y-100161916D01*
X157593293Y-100421516D01*
X157473813Y-100709968D01*
X157412902Y-101016186D01*
X156618101Y-101016186D01*
X156725000Y-100478771D01*
X156725000Y-99861229D01*
X156604524Y-99255554D01*
X156368201Y-98685021D01*
X156025114Y-98171554D01*
X155588446Y-97734886D01*
X155074979Y-97391799D01*
X154504446Y-97155476D01*
X153898771Y-97035000D01*
X153281229Y-97035000D01*
X152675554Y-97155476D01*
X152105021Y-97391799D01*
X151591554Y-97734886D01*
X151551270Y-97775170D01*
X151862815Y-95820485D01*
X152345493Y-95909944D01*
X152470125Y-95920574D01*
X152594435Y-95906686D01*
X152713648Y-95868812D01*
X152823181Y-95808409D01*
X152918825Y-95727798D01*
X152966029Y-95668720D01*
X153006827Y-95729779D01*
X153304207Y-96027159D01*
X153653888Y-96260808D01*
X154042434Y-96421749D01*
X154454911Y-96503796D01*
X154875469Y-96503796D01*
X155287946Y-96421749D01*
X155676492Y-96260808D01*
X156026173Y-96027159D01*
X156323553Y-95729779D01*
X156557202Y-95380098D01*
X156718143Y-94991552D01*
X156800190Y-94579075D01*
X156800190Y-94158517D01*
X156718143Y-93746040D01*
X156557202Y-93357494D01*
X156323553Y-93007813D01*
X156026173Y-92710433D01*
X155676492Y-92476784D01*
X155287946Y-92315843D01*
X154875469Y-92233796D01*
X154454911Y-92233796D01*
X154042434Y-92315843D01*
X153653888Y-92476784D01*
X153545636Y-92549116D01*
X153521841Y-92474219D01*
X153461438Y-92364686D01*
X153380827Y-92269042D01*
X153283105Y-92190962D01*
X153172028Y-92133447D01*
X153051866Y-92098707D01*
X150495403Y-91624894D01*
X150370771Y-91614264D01*
X150246461Y-91628152D01*
X150127248Y-91666026D01*
X150017715Y-91726429D01*
X149922071Y-91807040D01*
X149843991Y-91904762D01*
X149786476Y-92015839D01*
X149751736Y-92136001D01*
X149277923Y-94692464D01*
X149267293Y-94817096D01*
X149281181Y-94941406D01*
X149319055Y-95060619D01*
X149379458Y-95170152D01*
X149460069Y-95265796D01*
X149557791Y-95343876D01*
X149668868Y-95401391D01*
X149789030Y-95436131D01*
X150367793Y-95543398D01*
X149767098Y-99312258D01*
X149767098Y-99011596D01*
X149706187Y-98705378D01*
X149586707Y-98416926D01*
X149413248Y-98157326D01*
X149192477Y-97936555D01*
X148932877Y-97763096D01*
X148644425Y-97643616D01*
X148338207Y-97582705D01*
X148025989Y-97582705D01*
X147719771Y-97643616D01*
X147431319Y-97763096D01*
X147171719Y-97936555D01*
X146950948Y-98157326D01*
X146777489Y-98416926D01*
X146658009Y-98705378D01*
X146597098Y-99011596D01*
X130300000Y-99011596D01*
X130300000Y-97363560D01*
X130541554Y-97605114D01*
X131055021Y-97948201D01*
X131625554Y-98184524D01*
X132231229Y-98305000D01*
X132848771Y-98305000D01*
X133454446Y-98184524D01*
X134024979Y-97948201D01*
X134538446Y-97605114D01*
X134975114Y-97168446D01*
X135318201Y-96654979D01*
X135554524Y-96084446D01*
X135675000Y-95478771D01*
X135675000Y-95013891D01*
X136455000Y-95013891D01*
X136455000Y-95326109D01*
X136515911Y-95632327D01*
X136635391Y-95920779D01*
X136808850Y-96180379D01*
X137029621Y-96401150D01*
X137289221Y-96574609D01*
X137577673Y-96694089D01*
X137883891Y-96755000D01*
X138196109Y-96755000D01*
X138502327Y-96694089D01*
X138790779Y-96574609D01*
X139050379Y-96401150D01*
X139271150Y-96180379D01*
X139444609Y-95920779D01*
X139564089Y-95632327D01*
X139625000Y-95326109D01*
X139625000Y-95013891D01*
X139564089Y-94707673D01*
X139444609Y-94419221D01*
X139271150Y-94159621D01*
X139050379Y-93938850D01*
X138790779Y-93765391D01*
X138502327Y-93645911D01*
X138196109Y-93585000D01*
X137883891Y-93585000D01*
X137577673Y-93645911D01*
X137289221Y-93765391D01*
X137029621Y-93938850D01*
X136808850Y-94159621D01*
X136635391Y-94419221D01*
X136515911Y-94707673D01*
X136455000Y-95013891D01*
X135675000Y-95013891D01*
X135675000Y-94861229D01*
X135554524Y-94255554D01*
X135318201Y-93685021D01*
X134975114Y-93171554D01*
X134538446Y-92734886D01*
X134024979Y-92391799D01*
X133454446Y-92155476D01*
X132848771Y-92035000D01*
X132231229Y-92035000D01*
X131625554Y-92155476D01*
X131055021Y-92391799D01*
X130541554Y-92734886D01*
X130300000Y-92976440D01*
X130300000Y-91208072D01*
X130540000Y-91208072D01*
X130664482Y-91195812D01*
X130784180Y-91159502D01*
X130894494Y-91100537D01*
X130991185Y-91021185D01*
X131070537Y-90924494D01*
X131106976Y-90856322D01*
X131179017Y-90928363D01*
X131528698Y-91162012D01*
X131917244Y-91322953D01*
X132329721Y-91405000D01*
X132750279Y-91405000D01*
X133162756Y-91322953D01*
X133551302Y-91162012D01*
X133900983Y-90928363D01*
X134198363Y-90630983D01*
X134432012Y-90281302D01*
X134592953Y-89892756D01*
X134675000Y-89480279D01*
X134675000Y-89059721D01*
X134592953Y-88647244D01*
X134432012Y-88258698D01*
X134198363Y-87909017D01*
X133900983Y-87611637D01*
X133551302Y-87377988D01*
X133162756Y-87217047D01*
X132750279Y-87135000D01*
X132329721Y-87135000D01*
X131917244Y-87217047D01*
X131528698Y-87377988D01*
X131179017Y-87611637D01*
X131106976Y-87683678D01*
X131070537Y-87615506D01*
X130991185Y-87518815D01*
X130894494Y-87439463D01*
X130784180Y-87380498D01*
X130664482Y-87344188D01*
X130540000Y-87331928D01*
X127940000Y-87331928D01*
X127815518Y-87344188D01*
X127695820Y-87380498D01*
X127585506Y-87439463D01*
X127488815Y-87518815D01*
X127409463Y-87615506D01*
X127350498Y-87725820D01*
X127314188Y-87845518D01*
X127301928Y-87970000D01*
X122550000Y-87970000D01*
X122550000Y-86850000D01*
X140080001Y-86850000D01*
X140080000Y-89531928D01*
X139540000Y-89531928D01*
X139415518Y-89544188D01*
X139295820Y-89580498D01*
X139185506Y-89639463D01*
X139088815Y-89718815D01*
X139009463Y-89815506D01*
X138973024Y-89883678D01*
X138900983Y-89811637D01*
X138551302Y-89577988D01*
X138162756Y-89417047D01*
X137750279Y-89335000D01*
X137329721Y-89335000D01*
X136917244Y-89417047D01*
X136528698Y-89577988D01*
X136179017Y-89811637D01*
X135881637Y-90109017D01*
X135647988Y-90458698D01*
X135487047Y-90847244D01*
X135405000Y-91259721D01*
X135405000Y-91680279D01*
X135487047Y-92092756D01*
X135647988Y-92481302D01*
X135881637Y-92830983D01*
X136179017Y-93128363D01*
X136528698Y-93362012D01*
X136917244Y-93522953D01*
X137329721Y-93605000D01*
X137750279Y-93605000D01*
X138162756Y-93522953D01*
X138551302Y-93362012D01*
X138900983Y-93128363D01*
X138973024Y-93056322D01*
X139009463Y-93124494D01*
X139088815Y-93221185D01*
X139185506Y-93300537D01*
X139295820Y-93359502D01*
X139415518Y-93395812D01*
X139540000Y-93408072D01*
X142140000Y-93408072D01*
X142264482Y-93395812D01*
X142384180Y-93359502D01*
X142494494Y-93300537D01*
X142591185Y-93221185D01*
X142670537Y-93124494D01*
X142729502Y-93014180D01*
X142765812Y-92894482D01*
X142778072Y-92770000D01*
X142778072Y-90170000D01*
X142765812Y-90045518D01*
X142729502Y-89925820D01*
X142670537Y-89815506D01*
X142591185Y-89718815D01*
X142494494Y-89639463D01*
X142384180Y-89580498D01*
X142264482Y-89544188D01*
X142140000Y-89531928D01*
X141600000Y-89531928D01*
X141600000Y-86850000D01*
X157595199Y-86850000D01*
X161398997Y-90653799D01*
X161399002Y-90653803D01*
X161665288Y-90920090D01*
X161665287Y-95932576D01*
X161500242Y-95901987D01*
X161375610Y-95891357D01*
X161251300Y-95905245D01*
X161132087Y-95943119D01*
X161022554Y-96003522D01*
X160926910Y-96084133D01*
X160879707Y-96143210D01*
X160838909Y-96082151D01*
X160541529Y-95784771D01*
X160191848Y-95551122D01*
X159803302Y-95390181D01*
X159390825Y-95308134D01*
X158970267Y-95308134D01*
X158557790Y-95390181D01*
X158169244Y-95551122D01*
X157819563Y-95784771D01*
X157522183Y-96082151D01*
X157288534Y-96431832D01*
X157127593Y-96820378D01*
X157045546Y-97232855D01*
X157045546Y-97653413D01*
X157127593Y-98065890D01*
X157288534Y-98454436D01*
X157522183Y-98804117D01*
X157819563Y-99101497D01*
X158169244Y-99335146D01*
X158557790Y-99496087D01*
X158970267Y-99578134D01*
X159390825Y-99578134D01*
X159803302Y-99496087D01*
X160191848Y-99335146D01*
X160300099Y-99262815D01*
X160323894Y-99337712D01*
X160384297Y-99447245D01*
X160464908Y-99542889D01*
X160562630Y-99620969D01*
X160673707Y-99678484D01*
X160793869Y-99713224D01*
X163350332Y-100187037D01*
X163474964Y-100197667D01*
X163500759Y-100194785D01*
X164349981Y-101044008D01*
X164349980Y-131075218D01*
X162170000Y-133255198D01*
X162170000Y-126451825D01*
X162653169Y-126511151D01*
X162778217Y-126514152D01*
X162901447Y-126492701D01*
X163018125Y-126447620D01*
X163123766Y-126380643D01*
X163214311Y-126294343D01*
X163286280Y-126192037D01*
X163336906Y-126077656D01*
X163364246Y-125955596D01*
X163681106Y-123374976D01*
X163684107Y-123249928D01*
X163662656Y-123126698D01*
X163617575Y-123010020D01*
X163550598Y-122904379D01*
X163464298Y-122813834D01*
X163361992Y-122741865D01*
X163247611Y-122691239D01*
X163125551Y-122663899D01*
X160544931Y-122347039D01*
X160419883Y-122344038D01*
X160296653Y-122365489D01*
X160179975Y-122410570D01*
X160074334Y-122477547D01*
X159983789Y-122563847D01*
X159940893Y-122624826D01*
X159684630Y-122368563D01*
X159334949Y-122134914D01*
X158946403Y-121973973D01*
X158533926Y-121891926D01*
X158113368Y-121891926D01*
X157700891Y-121973973D01*
X157312345Y-122134914D01*
X156962664Y-122368563D01*
X156665284Y-122665943D01*
X156431635Y-123015624D01*
X156270694Y-123404170D01*
X156188647Y-123816647D01*
X156188647Y-124237205D01*
X156270694Y-124649682D01*
X156431635Y-125038228D01*
X156665284Y-125387909D01*
X156962664Y-125685289D01*
X157312345Y-125918938D01*
X157700891Y-126079879D01*
X158113368Y-126161926D01*
X158533926Y-126161926D01*
X158946403Y-126079879D01*
X159334949Y-125918938D01*
X159551867Y-125773998D01*
X159580525Y-125848170D01*
X159647502Y-125953811D01*
X159733802Y-126044356D01*
X159836108Y-126116325D01*
X159950489Y-126166951D01*
X160072549Y-126194291D01*
X160650001Y-126265193D01*
X160650000Y-134025198D01*
X156595199Y-138080000D01*
X153518047Y-138080000D01*
X154325554Y-137272493D01*
X155287125Y-137390559D01*
X155412173Y-137393560D01*
X155535404Y-137372109D01*
X155652081Y-137327028D01*
X155757723Y-137260050D01*
X155848267Y-137173751D01*
X155920236Y-137071444D01*
X155970862Y-136957064D01*
X155998202Y-136835004D01*
X156168453Y-135448417D01*
X156171454Y-135323369D01*
X156150003Y-135200138D01*
X156104922Y-135083461D01*
X156037944Y-134977819D01*
X155951645Y-134887275D01*
X155849338Y-134815306D01*
X155734958Y-134764680D01*
X155612898Y-134737340D01*
X153848151Y-134520657D01*
X153723103Y-134517656D01*
X153599872Y-134539107D01*
X153483195Y-134584188D01*
X153377553Y-134651166D01*
X153287009Y-134737465D01*
X153215040Y-134839772D01*
X153164414Y-134954152D01*
X153137074Y-135076212D01*
X152966823Y-136462799D01*
X152966360Y-136482084D01*
X152618445Y-136830000D01*
X145224802Y-136830000D01*
X144170000Y-135775199D01*
X144170000Y-131436839D01*
X145056757Y-131436839D01*
X145103546Y-131705618D01*
X145201872Y-131960105D01*
X145347957Y-132190519D01*
X145536186Y-132388006D01*
X145759326Y-132544977D01*
X146008802Y-132655399D01*
X146208314Y-132700086D01*
X147038155Y-132801978D01*
X147242550Y-132806884D01*
X147511330Y-132760095D01*
X147765817Y-132661769D01*
X147996230Y-132515684D01*
X148193717Y-132327456D01*
X148198046Y-132321302D01*
X148002935Y-133934014D01*
X147820172Y-134004628D01*
X147598325Y-134145281D01*
X147408182Y-134326511D01*
X147257047Y-134541354D01*
X147150731Y-134781552D01*
X147093318Y-135037878D01*
X147087015Y-135300478D01*
X147132064Y-135559262D01*
X147226734Y-135804286D01*
X147367387Y-136026133D01*
X147548617Y-136216276D01*
X147763460Y-136367411D01*
X148003658Y-136473727D01*
X148195751Y-136516753D01*
X148703949Y-136579151D01*
X148900745Y-136583875D01*
X149159529Y-136538826D01*
X149404552Y-136444156D01*
X149626399Y-136303503D01*
X149816542Y-136122273D01*
X149967677Y-135907430D01*
X150073993Y-135667232D01*
X150131406Y-135410906D01*
X150137709Y-135148306D01*
X150092660Y-134889522D01*
X149997990Y-134644498D01*
X149857338Y-134422651D01*
X149676107Y-134232508D01*
X149511882Y-134116981D01*
X150174619Y-128639065D01*
X150474886Y-129088446D01*
X150911554Y-129525114D01*
X151425021Y-129868201D01*
X151995554Y-130104524D01*
X152601229Y-130225000D01*
X153218771Y-130225000D01*
X153824446Y-130104524D01*
X154394979Y-129868201D01*
X154908446Y-129525114D01*
X155345114Y-129088446D01*
X155688201Y-128574979D01*
X155924524Y-128004446D01*
X156004143Y-127604172D01*
X156784004Y-127604172D01*
X156784004Y-127916390D01*
X156844915Y-128222608D01*
X156964395Y-128511060D01*
X157137854Y-128770660D01*
X157358625Y-128991431D01*
X157618225Y-129164890D01*
X157906677Y-129284370D01*
X158212895Y-129345281D01*
X158525113Y-129345281D01*
X158831331Y-129284370D01*
X159119783Y-129164890D01*
X159379383Y-128991431D01*
X159600154Y-128770660D01*
X159773613Y-128511060D01*
X159893093Y-128222608D01*
X159954004Y-127916390D01*
X159954004Y-127604172D01*
X159893093Y-127297954D01*
X159773613Y-127009502D01*
X159600154Y-126749902D01*
X159379383Y-126529131D01*
X159119783Y-126355672D01*
X158831331Y-126236192D01*
X158525113Y-126175281D01*
X158212895Y-126175281D01*
X157906677Y-126236192D01*
X157618225Y-126355672D01*
X157358625Y-126529131D01*
X157137854Y-126749902D01*
X156964395Y-127009502D01*
X156844915Y-127297954D01*
X156784004Y-127604172D01*
X156004143Y-127604172D01*
X156045000Y-127398771D01*
X156045000Y-126781229D01*
X155924524Y-126175554D01*
X155688201Y-125605021D01*
X155345114Y-125091554D01*
X154908446Y-124654886D01*
X154394979Y-124311799D01*
X153824446Y-124075476D01*
X153218771Y-123955000D01*
X152601229Y-123955000D01*
X151995554Y-124075476D01*
X151425021Y-124311799D01*
X150911554Y-124654886D01*
X150621554Y-124944886D01*
X150875185Y-122848475D01*
X151407746Y-122913865D01*
X151532794Y-122916866D01*
X151656024Y-122895415D01*
X151772702Y-122850334D01*
X151878343Y-122783357D01*
X151968888Y-122697057D01*
X152011784Y-122636079D01*
X152268046Y-122892341D01*
X152617727Y-123125990D01*
X153006273Y-123286931D01*
X153418750Y-123368978D01*
X153839308Y-123368978D01*
X154251785Y-123286931D01*
X154640331Y-123125990D01*
X154990012Y-122892341D01*
X155287392Y-122594961D01*
X155521041Y-122245280D01*
X155681982Y-121856734D01*
X155764029Y-121444257D01*
X155764029Y-121023699D01*
X155681982Y-120611222D01*
X155521041Y-120222676D01*
X155287392Y-119872995D01*
X154990012Y-119575615D01*
X154640331Y-119341966D01*
X154251785Y-119181025D01*
X153839308Y-119098978D01*
X153418750Y-119098978D01*
X153006273Y-119181025D01*
X152617727Y-119341966D01*
X152400810Y-119486905D01*
X152372152Y-119412734D01*
X152305175Y-119307093D01*
X152218875Y-119216548D01*
X152116569Y-119144579D01*
X152002188Y-119093953D01*
X151880128Y-119066613D01*
X149299508Y-118749753D01*
X149174460Y-118746752D01*
X149051230Y-118768203D01*
X148934552Y-118813284D01*
X148828911Y-118880261D01*
X148738366Y-118966561D01*
X148666397Y-119068867D01*
X148615771Y-119183248D01*
X148588431Y-119305308D01*
X148271571Y-121885928D01*
X148268570Y-122010976D01*
X148290021Y-122134206D01*
X148335102Y-122250884D01*
X148402079Y-122356525D01*
X148488379Y-122447070D01*
X148590685Y-122519039D01*
X148705066Y-122569665D01*
X148827126Y-122597005D01*
X149366512Y-122663233D01*
X148969581Y-125944105D01*
X148855605Y-125668940D01*
X148682146Y-125409340D01*
X148461375Y-125188569D01*
X148201775Y-125015110D01*
X147913323Y-124895630D01*
X147607105Y-124834719D01*
X147294887Y-124834719D01*
X146988669Y-124895630D01*
X146700217Y-125015110D01*
X146440617Y-125188569D01*
X146219846Y-125409340D01*
X146046387Y-125668940D01*
X145926907Y-125957392D01*
X145865996Y-126263610D01*
X145865996Y-126575828D01*
X145926907Y-126882046D01*
X146046387Y-127170498D01*
X146219846Y-127430098D01*
X146440617Y-127650869D01*
X146700217Y-127824328D01*
X146988669Y-127943808D01*
X147294887Y-128004719D01*
X147607105Y-128004719D01*
X147913323Y-127943808D01*
X148201775Y-127824328D01*
X148461375Y-127650869D01*
X148682146Y-127430098D01*
X148813603Y-127233358D01*
X148382797Y-130794225D01*
X148382172Y-130792607D01*
X148236087Y-130562193D01*
X148047859Y-130364706D01*
X147824718Y-130207735D01*
X147575242Y-130097313D01*
X147375731Y-130052626D01*
X146545889Y-129950734D01*
X146341494Y-129945828D01*
X146072715Y-129992617D01*
X145818228Y-130090943D01*
X145587814Y-130237028D01*
X145390327Y-130425257D01*
X145233356Y-130648397D01*
X145122934Y-130897873D01*
X145063304Y-131164098D01*
X145056757Y-131436839D01*
X144170000Y-131436839D01*
X144170000Y-121281293D01*
X154763193Y-110688101D01*
X155724763Y-110806167D01*
X155849811Y-110809168D01*
X155973042Y-110787717D01*
X156089719Y-110742636D01*
X156195361Y-110675658D01*
X156285905Y-110589359D01*
X156357874Y-110487052D01*
X156408500Y-110372672D01*
X156435840Y-110250612D01*
X156606091Y-108864025D01*
X156609092Y-108738977D01*
X156587641Y-108615746D01*
X156542560Y-108499069D01*
X156475582Y-108393427D01*
X156389283Y-108302883D01*
X156286976Y-108230914D01*
X156172596Y-108180288D01*
X156050536Y-108152948D01*
X154285789Y-107936265D01*
X154160741Y-107933264D01*
X154037510Y-107954715D01*
X153920833Y-107999796D01*
X153815191Y-108066774D01*
X153724647Y-108153073D01*
X153652678Y-108255380D01*
X153602052Y-108369760D01*
X153574712Y-108491820D01*
X153404461Y-109878407D01*
X153403998Y-109897692D01*
X143348246Y-119953445D01*
X138473804Y-115079003D01*
X138450001Y-115049999D01*
X138334276Y-114955026D01*
X138202247Y-114884454D01*
X138058986Y-114840997D01*
X137947333Y-114830000D01*
X137947322Y-114830000D01*
X137910000Y-114826324D01*
X137872678Y-114830000D01*
X112297933Y-114830000D01*
X112260600Y-114826323D01*
X112223267Y-114830000D01*
X112111614Y-114840997D01*
X111968353Y-114884454D01*
X111836324Y-114955026D01*
X111720599Y-115049999D01*
X111696801Y-115078997D01*
X110163570Y-116612228D01*
X110009592Y-116581600D01*
X109803802Y-116581600D01*
X112535403Y-113850000D01*
X126472678Y-113850000D01*
X126510000Y-113853676D01*
X126547322Y-113850000D01*
X126547333Y-113850000D01*
X126658986Y-113839003D01*
X126802247Y-113795546D01*
X126934276Y-113724974D01*
X127050001Y-113630001D01*
X127073804Y-113600997D01*
X135278231Y-105396572D01*
X136429000Y-105396572D01*
X136553482Y-105384312D01*
X136673180Y-105348002D01*
X136783494Y-105289037D01*
X136880185Y-105209685D01*
X136959537Y-105112994D01*
X137018502Y-105002680D01*
X137054812Y-104882982D01*
X137067072Y-104758500D01*
X137067072Y-104029302D01*
X145486038Y-104029302D01*
X145516331Y-104300437D01*
X145598937Y-104560452D01*
X145730683Y-104799354D01*
X145906505Y-105007964D01*
X146119646Y-105178264D01*
X146361916Y-105303710D01*
X146558327Y-105360494D01*
X147380399Y-105512855D01*
X147584114Y-105530230D01*
X147855249Y-105499937D01*
X148115263Y-105417330D01*
X148354165Y-105285585D01*
X148562775Y-105109763D01*
X148733076Y-104896622D01*
X148858522Y-104654352D01*
X148934293Y-104392264D01*
X148957478Y-104120430D01*
X148927185Y-103849297D01*
X148844578Y-103589282D01*
X148712832Y-103350380D01*
X148537011Y-103141770D01*
X148323870Y-102971470D01*
X148081599Y-102846023D01*
X147885189Y-102789240D01*
X147063115Y-102636878D01*
X146859402Y-102619504D01*
X146588267Y-102649797D01*
X146328252Y-102732403D01*
X146089350Y-102864149D01*
X145880740Y-103039971D01*
X145710440Y-103253112D01*
X145584994Y-103495382D01*
X145509222Y-103757470D01*
X145486038Y-104029302D01*
X137067072Y-104029302D01*
X137067072Y-103361500D01*
X137054812Y-103237018D01*
X137018502Y-103117320D01*
X136959537Y-103007006D01*
X136880185Y-102910315D01*
X136783494Y-102830963D01*
X136673180Y-102771998D01*
X136553482Y-102735688D01*
X136429000Y-102723428D01*
X134651000Y-102723428D01*
X134526518Y-102735688D01*
X134406820Y-102771998D01*
X134296506Y-102830963D01*
X134199815Y-102910315D01*
X134120463Y-103007006D01*
X134061498Y-103117320D01*
X134025188Y-103237018D01*
X134012928Y-103361500D01*
X134012928Y-104512269D01*
X126195199Y-112330000D01*
X112257922Y-112330000D01*
X112220599Y-112326324D01*
X112183276Y-112330000D01*
X112183267Y-112330000D01*
X112071614Y-112340997D01*
X111928353Y-112384454D01*
X111796324Y-112455026D01*
X111796322Y-112455027D01*
X111796323Y-112455027D01*
X111709596Y-112526201D01*
X111709592Y-112526205D01*
X111680599Y-112549999D01*
X111656805Y-112578992D01*
X107623570Y-116612228D01*
X107469592Y-116581600D01*
X107194408Y-116581600D01*
X106924510Y-116635286D01*
X106670273Y-116740595D01*
X106441465Y-116893480D01*
X106246880Y-117088065D01*
X106093995Y-117316873D01*
X106062000Y-117394115D01*
X106030005Y-117316873D01*
X105877120Y-117088065D01*
X105682535Y-116893480D01*
X105552000Y-116806259D01*
X105552000Y-115262801D01*
X115418230Y-105396572D01*
X116569000Y-105396572D01*
X116693482Y-105384312D01*
X116813180Y-105348002D01*
X116923494Y-105289037D01*
X117020185Y-105209685D01*
X117099537Y-105112994D01*
X117158502Y-105002680D01*
X117194812Y-104882982D01*
X117207072Y-104758500D01*
X117207072Y-103361500D01*
X117194812Y-103237018D01*
X117158502Y-103117320D01*
X117099537Y-103007006D01*
X117020185Y-102910315D01*
X116923494Y-102830963D01*
X116813180Y-102771998D01*
X116693482Y-102735688D01*
X116569000Y-102723428D01*
X114791000Y-102723428D01*
X114666518Y-102735688D01*
X114546820Y-102771998D01*
X114436506Y-102830963D01*
X114339815Y-102910315D01*
X114260463Y-103007006D01*
X114201498Y-103117320D01*
X114165188Y-103237018D01*
X114152928Y-103361500D01*
X114152928Y-104512270D01*
X104280998Y-114384201D01*
X104252000Y-114407999D01*
X104228202Y-114436997D01*
X104228201Y-114436998D01*
X104157026Y-114523724D01*
X104086454Y-114655754D01*
X104042998Y-114799015D01*
X104028324Y-114948000D01*
X104032001Y-114985332D01*
X104032000Y-116806259D01*
X103901465Y-116893480D01*
X103706880Y-117088065D01*
X103553995Y-117316873D01*
X103522000Y-117394115D01*
X103490005Y-117316873D01*
X103337120Y-117088065D01*
X103142535Y-116893480D01*
X103012000Y-116806259D01*
X103012000Y-115623961D01*
X103015677Y-115586628D01*
X103001003Y-115437642D01*
X102957546Y-115294381D01*
X102886974Y-115162352D01*
X102815799Y-115075625D01*
X102792001Y-115046627D01*
X102763003Y-115022829D01*
X100473806Y-112733633D01*
X100473799Y-112733624D01*
X100152631Y-112412457D01*
X100164829Y-112390108D01*
X100202182Y-112270731D01*
X100215529Y-112146361D01*
X100204355Y-112021777D01*
X100169091Y-111901767D01*
X99645766Y-110606491D01*
X99587767Y-110495667D01*
X99509261Y-110398287D01*
X99413266Y-110318093D01*
X99303471Y-110258169D01*
X99184094Y-110220816D01*
X99059724Y-110207469D01*
X98935140Y-110218643D01*
X98815130Y-110253907D01*
X97166597Y-110919957D01*
X97055773Y-110977956D01*
X96958393Y-111056462D01*
X96878199Y-111152457D01*
X96818275Y-111262252D01*
X96780922Y-111381629D01*
X96767575Y-111505999D01*
X96778749Y-111630583D01*
X96814013Y-111750593D01*
X97337338Y-113045869D01*
X97395337Y-113156693D01*
X97473843Y-113254073D01*
X97569838Y-113334267D01*
X97679633Y-113394191D01*
X97799010Y-113431544D01*
X97923380Y-113444891D01*
X98047964Y-113433717D01*
X98167974Y-113398453D01*
X98752756Y-113162186D01*
X99398996Y-113808427D01*
X99399005Y-113808434D01*
X101492001Y-115901431D01*
X101492000Y-116806259D01*
X101361465Y-116893480D01*
X101166880Y-117088065D01*
X101013995Y-117316873D01*
X100982000Y-117394115D01*
X100950005Y-117316873D01*
X100797120Y-117088065D01*
X100602535Y-116893480D01*
X100373727Y-116740595D01*
X100119490Y-116635286D01*
X99849592Y-116581600D01*
X99574408Y-116581600D01*
X99304510Y-116635286D01*
X99050273Y-116740595D01*
X99031625Y-116753055D01*
X99014547Y-116696754D01*
X98943975Y-116564725D01*
X98849002Y-116449000D01*
X98819998Y-116425197D01*
X98725403Y-116330602D01*
X98701600Y-116301598D01*
X98585875Y-116206625D01*
X98453846Y-116136053D01*
X98310585Y-116092596D01*
X98198932Y-116081599D01*
X98198921Y-116081599D01*
X98161599Y-116077923D01*
X98124277Y-116081599D01*
X93266323Y-116081599D01*
X93229000Y-116077923D01*
X93191677Y-116081599D01*
X93191668Y-116081599D01*
X93080015Y-116092596D01*
X92936754Y-116136053D01*
X92804725Y-116206625D01*
X92689000Y-116301598D01*
X92665202Y-116330596D01*
X92383570Y-116612228D01*
X92229592Y-116581600D01*
X91954408Y-116581600D01*
X91684510Y-116635286D01*
X91430273Y-116740595D01*
X91201465Y-116893480D01*
X91006880Y-117088065D01*
X90853995Y-117316873D01*
X90824308Y-117388543D01*
X90819636Y-117375577D01*
X90757656Y-117259620D01*
X90517565Y-117192640D01*
X89731605Y-117978600D01*
X90517565Y-118764560D01*
X90757656Y-118697580D01*
X90821485Y-118561840D01*
X90853995Y-118640327D01*
X91006880Y-118869135D01*
X91201465Y-119063720D01*
X91430273Y-119216605D01*
X91684510Y-119321914D01*
X91954408Y-119375600D01*
X92229592Y-119375600D01*
X92499490Y-119321914D01*
X92753727Y-119216605D01*
X92982535Y-119063720D01*
X93177120Y-118869135D01*
X93330005Y-118640327D01*
X93362000Y-118563085D01*
X93393995Y-118640327D01*
X93546880Y-118869135D01*
X93741465Y-119063720D01*
X93970273Y-119216605D01*
X94224510Y-119321914D01*
X94494408Y-119375600D01*
X94769592Y-119375600D01*
X94923570Y-119344972D01*
X96679600Y-121101002D01*
X96703399Y-121130001D01*
X96819124Y-121224974D01*
X96951153Y-121295546D01*
X97094414Y-121339003D01*
X97206067Y-121350000D01*
X97206076Y-121350000D01*
X97243399Y-121353676D01*
X97280722Y-121350000D01*
X106015199Y-121350000D01*
X112847822Y-128182624D01*
X112629158Y-128262486D01*
X112528686Y-128316188D01*
X112469408Y-128549803D01*
X113210000Y-129290395D01*
X113224143Y-129276253D01*
X113403748Y-129455858D01*
X113389605Y-129470000D01*
X113403748Y-129484143D01*
X113224143Y-129663748D01*
X113210000Y-129649605D01*
X112469408Y-130390197D01*
X112489948Y-130471145D01*
X112384991Y-130439306D01*
X112254978Y-130426501D01*
X112254970Y-130426501D01*
X112211501Y-130422220D01*
X112168032Y-130426501D01*
X91482568Y-130426501D01*
X91439099Y-130422220D01*
X91395630Y-130426501D01*
X91395622Y-130426501D01*
X91280405Y-130437849D01*
X91265608Y-130439306D01*
X91215002Y-130454658D01*
X91098786Y-130489912D01*
X90945040Y-130572090D01*
X90945038Y-130572091D01*
X90945039Y-130572091D01*
X90844052Y-130654969D01*
X90844050Y-130654971D01*
X90810282Y-130682684D01*
X90782569Y-130716452D01*
X89696123Y-131802899D01*
X89689592Y-131801600D01*
X89414408Y-131801600D01*
X89144510Y-131855286D01*
X88890273Y-131960595D01*
X88661465Y-132113480D01*
X88466880Y-132308065D01*
X88313995Y-132536873D01*
X88282000Y-132614115D01*
X88250005Y-132536873D01*
X88097120Y-132308065D01*
X87902535Y-132113480D01*
X87673727Y-131960595D01*
X87419490Y-131855286D01*
X87149592Y-131801600D01*
X86874408Y-131801600D01*
X86604510Y-131855286D01*
X86350273Y-131960595D01*
X86121465Y-132113480D01*
X85926880Y-132308065D01*
X85773995Y-132536873D01*
X85744308Y-132608543D01*
X85739636Y-132595577D01*
X85677656Y-132479620D01*
X85437565Y-132412640D01*
X84651605Y-133198600D01*
X85437565Y-133984560D01*
X85677656Y-133917580D01*
X85741485Y-133781840D01*
X85773995Y-133860327D01*
X85926880Y-134089135D01*
X86121465Y-134283720D01*
X86150001Y-134302787D01*
X86150000Y-135525198D01*
X85651375Y-136023823D01*
X85636912Y-136017832D01*
X85321033Y-135955000D01*
X84998967Y-135955000D01*
X84683088Y-136017832D01*
X84385537Y-136141082D01*
X84117748Y-136320013D01*
X83890013Y-136547748D01*
X83711082Y-136815537D01*
X83587832Y-137113088D01*
X83525000Y-137428967D01*
X83525000Y-137751033D01*
X83587832Y-138066912D01*
X83711082Y-138364463D01*
X83890013Y-138632252D01*
X84117748Y-138859987D01*
X84385537Y-139038918D01*
X84683088Y-139162168D01*
X84998967Y-139225000D01*
X85321033Y-139225000D01*
X85636912Y-139162168D01*
X85934463Y-139038918D01*
X86202252Y-138859987D01*
X86429987Y-138632252D01*
X86608918Y-138364463D01*
X86732168Y-138066912D01*
X86795000Y-137751033D01*
X86795000Y-137428967D01*
X86732168Y-137113088D01*
X86726177Y-137098625D01*
X87421004Y-136403798D01*
X87450001Y-136380001D01*
X87544974Y-136264276D01*
X87615546Y-136132247D01*
X87659003Y-135988986D01*
X87670000Y-135877333D01*
X87670000Y-135877325D01*
X87673676Y-135840000D01*
X87670000Y-135802675D01*
X87670000Y-134438149D01*
X87673727Y-134436605D01*
X87902535Y-134283720D01*
X88097120Y-134089135D01*
X88250005Y-133860327D01*
X88282000Y-133783085D01*
X88313995Y-133860327D01*
X88466880Y-134089135D01*
X88661465Y-134283720D01*
X88890273Y-134436605D01*
X89144510Y-134541914D01*
X89414408Y-134595600D01*
X89689592Y-134595600D01*
X89959490Y-134541914D01*
X90213727Y-134436605D01*
X90442535Y-134283720D01*
X90637120Y-134089135D01*
X90790005Y-133860327D01*
X90822000Y-133783085D01*
X90853995Y-133860327D01*
X91006880Y-134089135D01*
X91201465Y-134283720D01*
X91430273Y-134436605D01*
X91684510Y-134541914D01*
X91954408Y-134595600D01*
X92229592Y-134595600D01*
X92499490Y-134541914D01*
X92753727Y-134436605D01*
X92982535Y-134283720D01*
X93177120Y-134089135D01*
X93330005Y-133860327D01*
X93362000Y-133783085D01*
X93393995Y-133860327D01*
X93546880Y-134089135D01*
X93741465Y-134283720D01*
X93970273Y-134436605D01*
X94224510Y-134541914D01*
X94494408Y-134595600D01*
X94769592Y-134595600D01*
X95039490Y-134541914D01*
X95293727Y-134436605D01*
X95522535Y-134283720D01*
X95717120Y-134089135D01*
X95870005Y-133860327D01*
X95902000Y-133783085D01*
X95933995Y-133860327D01*
X96086880Y-134089135D01*
X96281465Y-134283720D01*
X96510273Y-134436605D01*
X96764510Y-134541914D01*
X97034408Y-134595600D01*
X97309592Y-134595600D01*
X97579490Y-134541914D01*
X97833727Y-134436605D01*
X98062535Y-134283720D01*
X98257120Y-134089135D01*
X98410005Y-133860327D01*
X98442000Y-133783085D01*
X98473995Y-133860327D01*
X98626880Y-134089135D01*
X98821465Y-134283720D01*
X99050273Y-134436605D01*
X99304510Y-134541914D01*
X99574408Y-134595600D01*
X99849592Y-134595600D01*
X100119490Y-134541914D01*
X100373727Y-134436605D01*
X100602535Y-134283720D01*
X100797120Y-134089135D01*
X100950005Y-133860327D01*
X100982000Y-133783085D01*
X101013995Y-133860327D01*
X101166880Y-134089135D01*
X101361465Y-134283720D01*
X101590273Y-134436605D01*
X101844510Y-134541914D01*
X102114408Y-134595600D01*
X102389592Y-134595600D01*
X102659490Y-134541914D01*
X102913727Y-134436605D01*
X103142535Y-134283720D01*
X103337120Y-134089135D01*
X103490005Y-133860327D01*
X103522000Y-133783085D01*
X103553995Y-133860327D01*
X103706880Y-134089135D01*
X103901465Y-134283720D01*
X104130273Y-134436605D01*
X104384510Y-134541914D01*
X104654408Y-134595600D01*
X104929592Y-134595600D01*
X105199490Y-134541914D01*
X105453727Y-134436605D01*
X105682535Y-134283720D01*
X105877120Y-134089135D01*
X106030005Y-133860327D01*
X106062000Y-133783085D01*
X106093995Y-133860327D01*
X106246880Y-134089135D01*
X106441465Y-134283720D01*
X106572000Y-134370941D01*
X106572001Y-136974668D01*
X106568324Y-137012000D01*
X106572001Y-137049333D01*
X106582998Y-137160986D01*
X106586870Y-137173751D01*
X106626454Y-137304246D01*
X106697026Y-137436276D01*
X106744536Y-137494166D01*
X106792000Y-137552001D01*
X106820998Y-137575799D01*
X108675198Y-139430000D01*
X79692278Y-139430000D01*
X79254666Y-139387092D01*
X78864768Y-139269375D01*
X78779317Y-139223939D01*
X79041675Y-139187961D01*
X79346088Y-139082795D01*
X79520044Y-138989814D01*
X79615808Y-138725413D01*
X78660000Y-137769605D01*
X78645858Y-137783748D01*
X78466253Y-137604143D01*
X78480395Y-137590000D01*
X78839605Y-137590000D01*
X79795413Y-138545808D01*
X80059814Y-138450044D01*
X80200704Y-138160429D01*
X80282384Y-137848892D01*
X80301718Y-137527405D01*
X80257961Y-137208325D01*
X80152795Y-136903912D01*
X80059814Y-136729956D01*
X79795413Y-136634192D01*
X78839605Y-137590000D01*
X78480395Y-137590000D01*
X78466253Y-137575858D01*
X78645858Y-137396253D01*
X78660000Y-137410395D01*
X79615808Y-136454587D01*
X79520044Y-136190186D01*
X79230429Y-136049296D01*
X78918892Y-135967616D01*
X78597405Y-135948282D01*
X78278325Y-135992039D01*
X77973912Y-136097205D01*
X77799956Y-136190186D01*
X77704193Y-136454585D01*
X77588525Y-136338917D01*
X77570225Y-136357217D01*
X77570980Y-133061008D01*
X80535000Y-133061008D01*
X80535000Y-133336192D01*
X80588686Y-133606090D01*
X80693995Y-133860327D01*
X80846880Y-134089135D01*
X81041465Y-134283720D01*
X81270273Y-134436605D01*
X81524510Y-134541914D01*
X81794408Y-134595600D01*
X82069592Y-134595600D01*
X82339490Y-134541914D01*
X82593727Y-134436605D01*
X82822535Y-134283720D01*
X82942090Y-134164165D01*
X83686040Y-134164165D01*
X83753020Y-134404256D01*
X84002048Y-134521356D01*
X84269135Y-134587623D01*
X84544017Y-134600510D01*
X84816133Y-134559522D01*
X85075023Y-134466236D01*
X85190980Y-134404256D01*
X85257960Y-134164165D01*
X84472000Y-133378205D01*
X83686040Y-134164165D01*
X82942090Y-134164165D01*
X83017120Y-134089135D01*
X83170005Y-133860327D01*
X83199692Y-133788657D01*
X83204364Y-133801623D01*
X83266344Y-133917580D01*
X83506435Y-133984560D01*
X84292395Y-133198600D01*
X83506435Y-132412640D01*
X83266344Y-132479620D01*
X83202515Y-132615360D01*
X83170005Y-132536873D01*
X83017120Y-132308065D01*
X82942090Y-132233035D01*
X83686040Y-132233035D01*
X84472000Y-133018995D01*
X85257960Y-132233035D01*
X85190980Y-131992944D01*
X84941952Y-131875844D01*
X84674865Y-131809577D01*
X84399983Y-131796690D01*
X84127867Y-131837678D01*
X83868977Y-131930964D01*
X83753020Y-131992944D01*
X83686040Y-132233035D01*
X82942090Y-132233035D01*
X82822535Y-132113480D01*
X82593727Y-131960595D01*
X82339490Y-131855286D01*
X82069592Y-131801600D01*
X81794408Y-131801600D01*
X81524510Y-131855286D01*
X81270273Y-131960595D01*
X81041465Y-132113480D01*
X80846880Y-132308065D01*
X80693995Y-132536873D01*
X80588686Y-132791110D01*
X80535000Y-133061008D01*
X77570980Y-133061008D01*
X77571786Y-129544533D01*
X111872124Y-129544533D01*
X111912371Y-129804107D01*
X112002486Y-130050842D01*
X112056188Y-130151314D01*
X112289803Y-130210592D01*
X113030395Y-129470000D01*
X112289803Y-128729408D01*
X112056188Y-128788686D01*
X111945441Y-129026875D01*
X111883289Y-129282093D01*
X111872124Y-129544533D01*
X77571786Y-129544533D01*
X77574470Y-117841008D01*
X80535000Y-117841008D01*
X80535000Y-118116192D01*
X80588686Y-118386090D01*
X80693995Y-118640327D01*
X80846880Y-118869135D01*
X81041465Y-119063720D01*
X81270273Y-119216605D01*
X81524510Y-119321914D01*
X81794408Y-119375600D01*
X82069592Y-119375600D01*
X82339490Y-119321914D01*
X82593727Y-119216605D01*
X82822535Y-119063720D01*
X83017120Y-118869135D01*
X83170005Y-118640327D01*
X83202000Y-118563085D01*
X83233995Y-118640327D01*
X83386880Y-118869135D01*
X83581465Y-119063720D01*
X83810273Y-119216605D01*
X84064510Y-119321914D01*
X84334408Y-119375600D01*
X84609592Y-119375600D01*
X84879490Y-119321914D01*
X85133727Y-119216605D01*
X85362535Y-119063720D01*
X85482090Y-118944165D01*
X86226040Y-118944165D01*
X86293020Y-119184256D01*
X86542048Y-119301356D01*
X86809135Y-119367623D01*
X87084017Y-119380510D01*
X87356133Y-119339522D01*
X87615023Y-119246236D01*
X87730980Y-119184256D01*
X87797960Y-118944165D01*
X88766040Y-118944165D01*
X88833020Y-119184256D01*
X89082048Y-119301356D01*
X89349135Y-119367623D01*
X89624017Y-119380510D01*
X89896133Y-119339522D01*
X90155023Y-119246236D01*
X90270980Y-119184256D01*
X90337960Y-118944165D01*
X89552000Y-118158205D01*
X88766040Y-118944165D01*
X87797960Y-118944165D01*
X87012000Y-118158205D01*
X86226040Y-118944165D01*
X85482090Y-118944165D01*
X85557120Y-118869135D01*
X85710005Y-118640327D01*
X85739692Y-118568657D01*
X85744364Y-118581623D01*
X85806344Y-118697580D01*
X86046435Y-118764560D01*
X86832395Y-117978600D01*
X87191605Y-117978600D01*
X87977565Y-118764560D01*
X88217656Y-118697580D01*
X88279079Y-118566956D01*
X88284364Y-118581623D01*
X88346344Y-118697580D01*
X88586435Y-118764560D01*
X89372395Y-117978600D01*
X88586435Y-117192640D01*
X88346344Y-117259620D01*
X88284921Y-117390244D01*
X88279636Y-117375577D01*
X88217656Y-117259620D01*
X87977565Y-117192640D01*
X87191605Y-117978600D01*
X86832395Y-117978600D01*
X86046435Y-117192640D01*
X85806344Y-117259620D01*
X85742515Y-117395360D01*
X85710005Y-117316873D01*
X85557120Y-117088065D01*
X85482090Y-117013035D01*
X86226040Y-117013035D01*
X87012000Y-117798995D01*
X87797960Y-117013035D01*
X88766040Y-117013035D01*
X89552000Y-117798995D01*
X90337960Y-117013035D01*
X90270980Y-116772944D01*
X90021952Y-116655844D01*
X89754865Y-116589577D01*
X89479983Y-116576690D01*
X89207867Y-116617678D01*
X88948977Y-116710964D01*
X88833020Y-116772944D01*
X88766040Y-117013035D01*
X87797960Y-117013035D01*
X87730980Y-116772944D01*
X87481952Y-116655844D01*
X87214865Y-116589577D01*
X86939983Y-116576690D01*
X86667867Y-116617678D01*
X86408977Y-116710964D01*
X86293020Y-116772944D01*
X86226040Y-117013035D01*
X85482090Y-117013035D01*
X85362535Y-116893480D01*
X85133727Y-116740595D01*
X84879490Y-116635286D01*
X84609592Y-116581600D01*
X84334408Y-116581600D01*
X84064510Y-116635286D01*
X83810273Y-116740595D01*
X83581465Y-116893480D01*
X83386880Y-117088065D01*
X83233995Y-117316873D01*
X83202000Y-117394115D01*
X83170005Y-117316873D01*
X83017120Y-117088065D01*
X82822535Y-116893480D01*
X82593727Y-116740595D01*
X82339490Y-116635286D01*
X82069592Y-116581600D01*
X81794408Y-116581600D01*
X81524510Y-116635286D01*
X81270273Y-116740595D01*
X81041465Y-116893480D01*
X80846880Y-117088065D01*
X80693995Y-117316873D01*
X80588686Y-117571110D01*
X80535000Y-117841008D01*
X77574470Y-117841008D01*
X77575327Y-114108782D01*
X77746750Y-114365334D01*
X78134666Y-114753250D01*
X78590808Y-115058035D01*
X79097646Y-115267974D01*
X79635701Y-115375000D01*
X80184299Y-115375000D01*
X80722354Y-115267974D01*
X81229192Y-115058035D01*
X81685334Y-114753250D01*
X82073250Y-114365334D01*
X82378035Y-113909192D01*
X82587974Y-113402354D01*
X82695000Y-112864299D01*
X82695000Y-112315701D01*
X82587974Y-111777646D01*
X82484963Y-111528953D01*
X87451002Y-111528953D01*
X87475372Y-111800683D01*
X87552287Y-112062437D01*
X87678789Y-112304157D01*
X87850018Y-112516553D01*
X88059393Y-112691463D01*
X88298868Y-112822165D01*
X88559240Y-112903636D01*
X88830504Y-112932745D01*
X89102234Y-112908375D01*
X89298395Y-112850734D01*
X90073589Y-112537536D01*
X90254736Y-112442734D01*
X90467132Y-112271505D01*
X90642042Y-112062130D01*
X90772743Y-111822655D01*
X90854215Y-111562283D01*
X90883324Y-111291020D01*
X90858954Y-111019289D01*
X90782039Y-110757535D01*
X90655537Y-110515815D01*
X90484308Y-110303419D01*
X90274933Y-110128509D01*
X90035458Y-109997808D01*
X89775086Y-109916336D01*
X89503822Y-109887227D01*
X89232091Y-109911597D01*
X89035930Y-109969238D01*
X88260737Y-110282436D01*
X88079590Y-110377238D01*
X87867194Y-110548467D01*
X87692284Y-110757842D01*
X87561582Y-110997317D01*
X87480111Y-111257689D01*
X87451002Y-111528953D01*
X82484963Y-111528953D01*
X82378035Y-111270808D01*
X82073250Y-110814666D01*
X81685334Y-110426750D01*
X81229192Y-110121965D01*
X80722354Y-109912026D01*
X80184299Y-109805000D01*
X79635701Y-109805000D01*
X79097646Y-109912026D01*
X78590808Y-110121965D01*
X78134666Y-110426750D01*
X77746750Y-110814666D01*
X77576024Y-111070176D01*
X77577048Y-106599227D01*
X85755489Y-106599227D01*
X85755489Y-106911445D01*
X85816400Y-107217663D01*
X85935880Y-107506115D01*
X86109339Y-107765715D01*
X86330110Y-107986486D01*
X86589710Y-108159945D01*
X86878162Y-108279425D01*
X87184380Y-108340336D01*
X87496598Y-108340336D01*
X87802816Y-108279425D01*
X88091268Y-108159945D01*
X88350868Y-107986486D01*
X88571639Y-107765715D01*
X88745098Y-107506115D01*
X88864578Y-107217663D01*
X88925489Y-106911445D01*
X88925489Y-106599227D01*
X88864578Y-106293009D01*
X88745098Y-106004557D01*
X88571639Y-105744957D01*
X88350868Y-105524186D01*
X88091268Y-105350727D01*
X87802816Y-105231247D01*
X87496598Y-105170336D01*
X87184380Y-105170336D01*
X86878162Y-105231247D01*
X86589710Y-105350727D01*
X86330110Y-105524186D01*
X86109339Y-105744957D01*
X85935880Y-106004557D01*
X85816400Y-106293009D01*
X85755489Y-106599227D01*
X77577048Y-106599227D01*
X77578622Y-99736899D01*
X84839738Y-99736899D01*
X84850912Y-99861483D01*
X84886176Y-99981493D01*
X85860154Y-102392171D01*
X85918153Y-102502996D01*
X85996659Y-102600376D01*
X86092654Y-102680569D01*
X86202450Y-102740493D01*
X86321826Y-102777847D01*
X86446196Y-102791193D01*
X86570780Y-102780019D01*
X86690790Y-102744755D01*
X87399895Y-102458258D01*
X92092566Y-112985123D01*
X92017131Y-113024601D01*
X91812634Y-113189463D01*
X91644229Y-113391053D01*
X91518387Y-113621624D01*
X91439946Y-113872315D01*
X91411919Y-114133492D01*
X91435383Y-114395117D01*
X91509438Y-114647139D01*
X91631237Y-114879871D01*
X91796099Y-115084368D01*
X91997689Y-115252773D01*
X92228260Y-115378615D01*
X92478951Y-115457056D01*
X92740128Y-115485083D01*
X93001753Y-115461619D01*
X93190620Y-115406121D01*
X93665354Y-115214316D01*
X93839765Y-115123039D01*
X94044262Y-114958177D01*
X94212667Y-114756587D01*
X94338509Y-114526016D01*
X94416950Y-114275325D01*
X94444977Y-114014149D01*
X94421512Y-113752523D01*
X94347458Y-113500501D01*
X94225658Y-113267769D01*
X94060796Y-113063272D01*
X93859206Y-112894867D01*
X93660460Y-112786394D01*
X93652793Y-112763347D01*
X93633994Y-112701374D01*
X93611524Y-112659336D01*
X91377692Y-107648277D01*
X91525554Y-107709524D01*
X92131229Y-107830000D01*
X92748771Y-107830000D01*
X93354446Y-107709524D01*
X93924979Y-107473201D01*
X94438446Y-107130114D01*
X94875114Y-106693446D01*
X95218201Y-106179979D01*
X95454524Y-105609446D01*
X95575000Y-105003771D01*
X95575000Y-104386229D01*
X95454524Y-103780554D01*
X95218201Y-103210021D01*
X94875114Y-102696554D01*
X94657115Y-102478555D01*
X95954511Y-102478555D01*
X95954511Y-102790773D01*
X96015422Y-103096991D01*
X96134902Y-103385443D01*
X96308361Y-103645043D01*
X96529132Y-103865814D01*
X96788732Y-104039273D01*
X97077184Y-104158753D01*
X97383402Y-104219664D01*
X97695620Y-104219664D01*
X98001838Y-104158753D01*
X98290290Y-104039273D01*
X98549890Y-103865814D01*
X98770661Y-103645043D01*
X98944120Y-103385443D01*
X99063600Y-103096991D01*
X99124511Y-102790773D01*
X99124511Y-102478555D01*
X99063600Y-102172337D01*
X98944120Y-101883885D01*
X98770661Y-101624285D01*
X98549890Y-101403514D01*
X98290290Y-101230055D01*
X98001838Y-101110575D01*
X97695620Y-101049664D01*
X97383402Y-101049664D01*
X97077184Y-101110575D01*
X96788732Y-101230055D01*
X96529132Y-101403514D01*
X96308361Y-101624285D01*
X96134902Y-101883885D01*
X96015422Y-102172337D01*
X95954511Y-102478555D01*
X94657115Y-102478555D01*
X94438446Y-102259886D01*
X93924979Y-101916799D01*
X93354446Y-101680476D01*
X92748771Y-101560000D01*
X92131229Y-101560000D01*
X91525554Y-101680476D01*
X90955021Y-101916799D01*
X90441554Y-102259886D01*
X90004886Y-102696554D01*
X89661799Y-103210021D01*
X89535321Y-103515366D01*
X88810095Y-101888499D01*
X89101468Y-101770777D01*
X89212293Y-101712778D01*
X89309673Y-101634272D01*
X89389866Y-101538277D01*
X89449790Y-101428481D01*
X89487144Y-101309105D01*
X89495488Y-101231351D01*
X89607065Y-101277568D01*
X90019542Y-101359615D01*
X90440100Y-101359615D01*
X90852577Y-101277568D01*
X91241123Y-101116627D01*
X91590804Y-100882978D01*
X91888184Y-100585598D01*
X92121833Y-100235917D01*
X92282774Y-99847371D01*
X92364821Y-99434894D01*
X92364821Y-99014336D01*
X92282774Y-98601859D01*
X92121833Y-98213313D01*
X91888184Y-97863632D01*
X91590804Y-97566252D01*
X91241123Y-97332603D01*
X90852577Y-97171662D01*
X90440100Y-97089615D01*
X90019542Y-97089615D01*
X89607065Y-97171662D01*
X89218519Y-97332603D01*
X88868838Y-97566252D01*
X88571458Y-97863632D01*
X88337809Y-98213313D01*
X88306072Y-98289933D01*
X88247574Y-98241065D01*
X88137778Y-98181141D01*
X88018402Y-98143787D01*
X87894032Y-98130441D01*
X87769448Y-98141615D01*
X87649438Y-98176879D01*
X85238760Y-99150857D01*
X85127935Y-99208856D01*
X85030555Y-99287362D01*
X84950362Y-99383357D01*
X84890438Y-99493153D01*
X84853084Y-99612529D01*
X84839738Y-99736899D01*
X77578622Y-99736899D01*
X77580943Y-89617187D01*
X77746750Y-89865334D01*
X78134666Y-90253250D01*
X78590808Y-90558035D01*
X79097646Y-90767974D01*
X79635701Y-90875000D01*
X80184299Y-90875000D01*
X80722354Y-90767974D01*
X81229192Y-90558035D01*
X81685334Y-90253250D01*
X82073250Y-89865334D01*
X82378035Y-89409192D01*
X82587974Y-88902354D01*
X82695000Y-88364299D01*
X82695000Y-87815701D01*
X82587974Y-87277646D01*
X82378035Y-86770808D01*
X82073250Y-86314666D01*
X81685334Y-85926750D01*
X81420810Y-85750000D01*
X99175198Y-85750000D01*
X98238580Y-86686619D01*
G37*
%TD.AperFunction*%
%TD*%
M02*
