%TF.GenerationSoftware,KiCad,Pcbnew,(5.1.9-0-10_14)*%
%TF.CreationDate,2021-05-28T20:21:16+09:00*%
%TF.ProjectId,quali5,7175616c-6935-42e6-9b69-6361645f7063,rev?*%
%TF.SameCoordinates,Original*%
%TF.FileFunction,Soldermask,Bot*%
%TF.FilePolarity,Negative*%
%FSLAX46Y46*%
G04 Gerber Fmt 4.6, Leading zero omitted, Abs format (unit mm)*
G04 Created by KiCad (PCBNEW (5.1.9-0-10_14)) date 2021-05-28 20:21:16*
%MOMM*%
%LPD*%
G01*
G04 APERTURE LIST*
%ADD10C,1.524000*%
%ADD11O,1.778000X1.397000*%
%ADD12R,1.778000X1.397000*%
%ADD13C,4.300000*%
%ADD14C,3.000000*%
%ADD15C,0.100000*%
%ADD16O,2.200000X1.500000*%
%ADD17R,2.600000X2.600000*%
%ADD18C,1.397000*%
%ADD19C,2.000000*%
G04 APERTURE END LIST*
D10*
%TO.C,U1*%
X81932000Y-117978600D03*
X84472000Y-117978600D03*
X87012000Y-117978600D03*
X89552000Y-117978600D03*
X92092000Y-117978600D03*
X94632000Y-117978600D03*
X97172000Y-117978600D03*
X99712000Y-117978600D03*
X102252000Y-117978600D03*
X104792000Y-117978600D03*
X107332000Y-117978600D03*
X109872000Y-117978600D03*
X109872000Y-133198600D03*
X107332000Y-133198600D03*
X104792000Y-133198600D03*
X102252000Y-133198600D03*
X99712000Y-133198600D03*
X97172000Y-133198600D03*
X94632000Y-133198600D03*
X92092000Y-133198600D03*
X89552000Y-133198600D03*
X87012000Y-133198600D03*
X84472000Y-133198600D03*
X81932000Y-133198600D03*
%TD*%
D11*
%TO.C,D3*%
X129540000Y-104060000D03*
D12*
X135540000Y-104060000D03*
%TD*%
D13*
%TO.C,Ref\u002A\u002A*%
X118410000Y-133590000D03*
%TD*%
%TO.C,Ref\u002A\u002A*%
X164910000Y-137090000D03*
%TD*%
%TO.C,Ref\u002A\u002A*%
X164910000Y-88090000D03*
%TD*%
%TO.C,Ref\u002A\u002A*%
X79910000Y-112590000D03*
%TD*%
%TO.C,Ref\u002A\u002A*%
X79910000Y-88090000D03*
%TD*%
D14*
%TO.C,SW2*%
X90229821Y-99224615D03*
X95689875Y-99391387D03*
D15*
G36*
X86451764Y-102153145D02*
G01*
X85477786Y-99742467D01*
X87888464Y-98768489D01*
X88862442Y-101179167D01*
X86451764Y-102153145D01*
G37*
G36*
X98031232Y-99847513D02*
G01*
X97057254Y-97436835D01*
X99467932Y-96462857D01*
X100441910Y-98873535D01*
X98031232Y-99847513D01*
G37*
G36*
G01*
X88147261Y-111822053D02*
X88147261Y-111822053D01*
G75*
G02*
X88561694Y-110845710I695388J280955D01*
G01*
X89210722Y-110583486D01*
G75*
G02*
X90187065Y-110997919I280955J-695388D01*
G01*
X90187065Y-110997919D01*
G75*
G02*
X89772632Y-111974262I-695388J-280955D01*
G01*
X89123604Y-112236486D01*
G75*
G02*
X88147261Y-111822053I-280955J695388D01*
G01*
G37*
%TD*%
D14*
%TO.C,SW6*%
X153629029Y-121233978D03*
X158323647Y-124026926D03*
D15*
G36*
X148904887Y-121963689D02*
G01*
X149221747Y-119383069D01*
X151802367Y-119699929D01*
X151485507Y-122280549D01*
X148904887Y-121963689D01*
G37*
G36*
X160150310Y-125560975D02*
G01*
X160467170Y-122980355D01*
X163047790Y-123297215D01*
X162730930Y-125877835D01*
X160150310Y-125560975D01*
G37*
G36*
G01*
X145700221Y-131242300D02*
X145700221Y-131242300D01*
G75*
G02*
X146536033Y-130589292I744410J-91402D01*
G01*
X147230815Y-130674600D01*
G75*
G02*
X147883823Y-131510412I-91402J-744410D01*
G01*
X147883823Y-131510412D01*
G75*
G02*
X147048011Y-132163420I-744410J91402D01*
G01*
X146353229Y-132078112D01*
G75*
G02*
X145700221Y-131242300I91402J744410D01*
G01*
G37*
%TD*%
D16*
%TO.C,SW3*%
X107940000Y-100170000D03*
D17*
X121790000Y-91470000D03*
X110190000Y-89270000D03*
D14*
X118490000Y-91470000D03*
X113490000Y-89270000D03*
%TD*%
D15*
%TO.C,D1*%
G36*
X99054156Y-110845517D02*
G01*
X99577481Y-112140793D01*
X97928948Y-112806843D01*
X97405623Y-111511567D01*
X99054156Y-110845517D01*
G37*
G36*
G01*
X93752715Y-113740794D02*
X93752715Y-113740794D01*
G75*
G02*
X93366740Y-114650095I-647638J-261663D01*
G01*
X93013482Y-114792821D01*
G75*
G02*
X92104181Y-114406846I-261663J647638D01*
G01*
X92104181Y-114406846D01*
G75*
G02*
X92490156Y-113497545I647638J261663D01*
G01*
X92843414Y-113354819D01*
G75*
G02*
X93752715Y-113740794I261663J-647638D01*
G01*
G37*
%TD*%
D11*
%TO.C,D2*%
X109680000Y-104060000D03*
D12*
X115680000Y-104060000D03*
%TD*%
D15*
%TO.C,D4*%
G36*
X155972775Y-108786264D02*
G01*
X155802524Y-110172851D01*
X154037777Y-109956168D01*
X154208028Y-108569581D01*
X155972775Y-108786264D01*
G37*
G36*
G01*
X149932373Y-108748342D02*
X149932373Y-108748342D01*
G75*
G02*
X149153954Y-109356509I-693293J85126D01*
G01*
X148775794Y-109310077D01*
G75*
G02*
X148167627Y-108531658I85126J693293D01*
G01*
X148167627Y-108531658D01*
G75*
G02*
X148946046Y-107923491I693293J-85126D01*
G01*
X149324206Y-107969923D01*
G75*
G02*
X149932373Y-108748342I-85126J-693293D01*
G01*
G37*
%TD*%
%TO.C,D5*%
G36*
X155535137Y-135370656D02*
G01*
X155364886Y-136757243D01*
X153600139Y-136540560D01*
X153770390Y-135153973D01*
X155535137Y-135370656D01*
G37*
G36*
G01*
X149494735Y-135332734D02*
X149494735Y-135332734D01*
G75*
G02*
X148716316Y-135940901I-693293J85126D01*
G01*
X148338156Y-135894469D01*
G75*
G02*
X147729989Y-135116050I85126J693293D01*
G01*
X147729989Y-135116050D01*
G75*
G02*
X148508408Y-134507883I693293J-85126D01*
G01*
X148886568Y-134554315D01*
G75*
G02*
X149494735Y-135332734I-85126J-693293D01*
G01*
G37*
%TD*%
D18*
%TO.C,OL1*%
X113210000Y-137090000D03*
X113210000Y-134550000D03*
X113210000Y-132010000D03*
X113210000Y-129470000D03*
%TD*%
D19*
%TO.C,SW1*%
X85160000Y-137590000D03*
X78660000Y-137590000D03*
%TD*%
D14*
%TO.C,SW4*%
X132540000Y-89270000D03*
X137540000Y-91470000D03*
D17*
X129240000Y-89270000D03*
X140840000Y-91470000D03*
D16*
X126990000Y-100170000D03*
%TD*%
%TO.C,SW5*%
G36*
G01*
X146140178Y-103874408D02*
X146140178Y-103874408D01*
G75*
G02*
X147014296Y-103273644I737441J-136677D01*
G01*
X147702574Y-103401208D01*
G75*
G02*
X148303338Y-104275326I-136677J-737441D01*
G01*
X148303338Y-104275326D01*
G75*
G02*
X147429220Y-104876090I-737441J136677D01*
G01*
X146740942Y-104748526D01*
G75*
G02*
X146140178Y-103874408I136677J737441D01*
G01*
G37*
D15*
G36*
X160910149Y-99085837D02*
G01*
X161383962Y-96529374D01*
X163940425Y-97003187D01*
X163466612Y-99559650D01*
X160910149Y-99085837D01*
G37*
G36*
X149905310Y-94808744D02*
G01*
X150379123Y-92252281D01*
X152935586Y-92726094D01*
X152461773Y-95282557D01*
X149905310Y-94808744D01*
G37*
D14*
X159180546Y-97443134D03*
X154665190Y-94368796D03*
%TD*%
M02*
