%TF.GenerationSoftware,KiCad,Pcbnew,(5.1.9-0-10_14)*%
%TF.CreationDate,2021-06-22T22:50:01+09:00*%
%TF.ProjectId,quali5,7175616c-6935-42e6-9b69-6361645f7063,rev?*%
%TF.SameCoordinates,Original*%
%TF.FileFunction,Soldermask,Bot*%
%TF.FilePolarity,Negative*%
%FSLAX46Y46*%
G04 Gerber Fmt 4.6, Leading zero omitted, Abs format (unit mm)*
G04 Created by KiCad (PCBNEW (5.1.9-0-10_14)) date 2021-06-22 22:50:01*
%MOMM*%
%LPD*%
G01*
G04 APERTURE LIST*
%ADD10C,3.000000*%
%ADD11C,0.100000*%
%ADD12C,4.300000*%
%ADD13R,2.600000X2.600000*%
%ADD14O,2.200000X1.500000*%
%ADD15R,1.300000X0.950000*%
%ADD16C,1.397000*%
G04 APERTURE END LIST*
D10*
%TO.C,SW2*%
X90229821Y-99224615D03*
X95689875Y-99391387D03*
D11*
G36*
X86451764Y-102153145D02*
G01*
X85477786Y-99742467D01*
X87888464Y-98768489D01*
X88862442Y-101179167D01*
X86451764Y-102153145D01*
G37*
G36*
X98031232Y-99847513D02*
G01*
X97057254Y-97436835D01*
X99467932Y-96462857D01*
X100441910Y-98873535D01*
X98031232Y-99847513D01*
G37*
G36*
G01*
X88147261Y-111822053D02*
X88147261Y-111822053D01*
G75*
G02*
X88561694Y-110845710I695388J280955D01*
G01*
X89210722Y-110583486D01*
G75*
G02*
X90187065Y-110997919I280955J-695388D01*
G01*
X90187065Y-110997919D01*
G75*
G02*
X89772632Y-111974262I-695388J-280955D01*
G01*
X89123604Y-112236486D01*
G75*
G02*
X88147261Y-111822053I-280955J695388D01*
G01*
G37*
%TD*%
D12*
%TO.C,Ref\u002A\u002A*%
X79810000Y-112590000D03*
%TD*%
%TO.C,Ref\u002A\u002A*%
X122510000Y-137190000D03*
%TD*%
%TO.C,Ref\u002A\u002A*%
X165010000Y-137190000D03*
%TD*%
%TO.C,Ref\u002A\u002A*%
X165010000Y-87990000D03*
%TD*%
%TO.C,Ref\u002A\u002A*%
X79810000Y-87990000D03*
%TD*%
D10*
%TO.C,SW4*%
X132540000Y-89270000D03*
X137540000Y-91470000D03*
D13*
X129240000Y-89270000D03*
X140840000Y-91470000D03*
D14*
X126990000Y-100170000D03*
%TD*%
D11*
%TO.C,D5*%
G36*
X150531274Y-134981438D02*
G01*
X150415498Y-135924356D01*
X149125188Y-135765926D01*
X149240964Y-134823008D01*
X150531274Y-134981438D01*
G37*
G36*
X154054812Y-135414074D02*
G01*
X153939036Y-136356992D01*
X152648726Y-136198562D01*
X152764502Y-135255644D01*
X154054812Y-135414074D01*
G37*
%TD*%
%TO.C,D4*%
G36*
X151090401Y-108117939D02*
G01*
X150917277Y-109052031D01*
X149639045Y-108815125D01*
X149812169Y-107881033D01*
X151090401Y-108117939D01*
G37*
G36*
X154580955Y-108764875D02*
G01*
X154407831Y-109698967D01*
X153129599Y-109462061D01*
X153302723Y-108527969D01*
X154580955Y-108764875D01*
G37*
%TD*%
D15*
%TO.C,D3*%
X130765000Y-104060000D03*
X134315000Y-104060000D03*
%TD*%
%TO.C,D2*%
X111635000Y-103990000D03*
X115185000Y-103990000D03*
%TD*%
D11*
%TO.C,D1*%
G36*
X94488980Y-112931020D02*
G01*
X94844857Y-113811845D01*
X93639518Y-114298834D01*
X93283641Y-113418009D01*
X94488980Y-112931020D01*
G37*
G36*
X97780482Y-111601166D02*
G01*
X98136359Y-112481991D01*
X96931020Y-112968980D01*
X96575143Y-112088155D01*
X97780482Y-111601166D01*
G37*
%TD*%
D10*
%TO.C,SW6*%
X153629029Y-121233978D03*
X158323647Y-124026926D03*
D11*
G36*
X148904887Y-121963689D02*
G01*
X149221747Y-119383069D01*
X151802367Y-119699929D01*
X151485507Y-122280549D01*
X148904887Y-121963689D01*
G37*
G36*
X160150310Y-125560975D02*
G01*
X160467170Y-122980355D01*
X163047790Y-123297215D01*
X162730930Y-125877835D01*
X160150310Y-125560975D01*
G37*
G36*
G01*
X145700221Y-131242300D02*
X145700221Y-131242300D01*
G75*
G02*
X146536033Y-130589292I744410J-91402D01*
G01*
X147230815Y-130674600D01*
G75*
G02*
X147883823Y-131510412I-91402J-744410D01*
G01*
X147883823Y-131510412D01*
G75*
G02*
X147048011Y-132163420I-744410J91402D01*
G01*
X146353229Y-132078112D01*
G75*
G02*
X145700221Y-131242300I91402J744410D01*
G01*
G37*
%TD*%
D14*
%TO.C,SW3*%
X107940000Y-100170000D03*
D13*
X121790000Y-91470000D03*
X110190000Y-89270000D03*
D10*
X118490000Y-91470000D03*
X113490000Y-89270000D03*
%TD*%
D16*
%TO.C,OL1*%
X113210000Y-137090000D03*
X113210000Y-134550000D03*
X113210000Y-132010000D03*
X113210000Y-129470000D03*
%TD*%
%TO.C,SW5*%
G36*
G01*
X146140178Y-103874408D02*
X146140178Y-103874408D01*
G75*
G02*
X147014296Y-103273644I737441J-136677D01*
G01*
X147702574Y-103401208D01*
G75*
G02*
X148303338Y-104275326I-136677J-737441D01*
G01*
X148303338Y-104275326D01*
G75*
G02*
X147429220Y-104876090I-737441J136677D01*
G01*
X146740942Y-104748526D01*
G75*
G02*
X146140178Y-103874408I136677J737441D01*
G01*
G37*
D11*
G36*
X160910149Y-99085837D02*
G01*
X161383962Y-96529374D01*
X163940425Y-97003187D01*
X163466612Y-99559650D01*
X160910149Y-99085837D01*
G37*
G36*
X149905310Y-94808744D02*
G01*
X150379123Y-92252281D01*
X152935586Y-92726094D01*
X152461773Y-95282557D01*
X149905310Y-94808744D01*
G37*
D10*
X159180546Y-97443134D03*
X154665190Y-94368796D03*
%TD*%
M02*
