%TF.GenerationSoftware,KiCad,Pcbnew,(5.1.9-0-10_14)*%
%TF.CreationDate,2021-06-22T22:50:01+09:00*%
%TF.ProjectId,quali5,7175616c-6935-42e6-9b69-6361645f7063,rev?*%
%TF.SameCoordinates,Original*%
%TF.FileFunction,Soldermask,Top*%
%TF.FilePolarity,Negative*%
%FSLAX46Y46*%
G04 Gerber Fmt 4.6, Leading zero omitted, Abs format (unit mm)*
G04 Created by KiCad (PCBNEW (5.1.9-0-10_14)) date 2021-06-22 22:50:01*
%MOMM*%
%LPD*%
G01*
G04 APERTURE LIST*
%ADD10C,3.000000*%
%ADD11C,4.300000*%
%ADD12C,1.524000*%
%ADD13C,0.100000*%
%ADD14R,1.300000X0.950000*%
%ADD15C,1.397000*%
%ADD16C,2.000000*%
G04 APERTURE END LIST*
D10*
%TO.C,SW2*%
X90229821Y-99224615D03*
X95689875Y-99391387D03*
%TD*%
D11*
%TO.C,Ref\u002A\u002A*%
X79810000Y-112590000D03*
%TD*%
%TO.C,Ref\u002A\u002A*%
X122510000Y-137190000D03*
%TD*%
%TO.C,Ref\u002A\u002A*%
X165010000Y-137190000D03*
%TD*%
%TO.C,Ref\u002A\u002A*%
X165010000Y-87990000D03*
%TD*%
%TO.C,Ref\u002A\u002A*%
X79810000Y-87990000D03*
%TD*%
D10*
%TO.C,SW4*%
X132540000Y-89270000D03*
X137540000Y-91470000D03*
%TD*%
D12*
%TO.C,U1*%
X81932000Y-134001400D03*
X84472000Y-134001400D03*
X87012000Y-134001400D03*
X89552000Y-134001400D03*
X92092000Y-134001400D03*
X94632000Y-134001400D03*
X97172000Y-134001400D03*
X99712000Y-134001400D03*
X102252000Y-134001400D03*
X104792000Y-134001400D03*
X107332000Y-134001400D03*
X109872000Y-134001400D03*
X109872000Y-118781400D03*
X107332000Y-118781400D03*
X104792000Y-118781400D03*
X102252000Y-118781400D03*
X99712000Y-118781400D03*
X97172000Y-118781400D03*
X94632000Y-118781400D03*
X92092000Y-118781400D03*
X89552000Y-118781400D03*
X87012000Y-118781400D03*
X84472000Y-118781400D03*
X81932000Y-118781400D03*
%TD*%
D13*
%TO.C,D5*%
G36*
X154054812Y-135414074D02*
G01*
X153939036Y-136356992D01*
X152648726Y-136198562D01*
X152764502Y-135255644D01*
X154054812Y-135414074D01*
G37*
G36*
X150531274Y-134981438D02*
G01*
X150415498Y-135924356D01*
X149125188Y-135765926D01*
X149240964Y-134823008D01*
X150531274Y-134981438D01*
G37*
%TD*%
%TO.C,D4*%
G36*
X154580955Y-108764875D02*
G01*
X154407831Y-109698967D01*
X153129599Y-109462061D01*
X153302723Y-108527969D01*
X154580955Y-108764875D01*
G37*
G36*
X151090401Y-108117939D02*
G01*
X150917277Y-109052031D01*
X149639045Y-108815125D01*
X149812169Y-107881033D01*
X151090401Y-108117939D01*
G37*
%TD*%
D14*
%TO.C,D3*%
X134315000Y-104060000D03*
X130765000Y-104060000D03*
%TD*%
%TO.C,D2*%
X115185000Y-103990000D03*
X111635000Y-103990000D03*
%TD*%
D13*
%TO.C,D1*%
G36*
X97780482Y-111601166D02*
G01*
X98136359Y-112481991D01*
X96931020Y-112968980D01*
X96575143Y-112088155D01*
X97780482Y-111601166D01*
G37*
G36*
X94488980Y-112931020D02*
G01*
X94844857Y-113811845D01*
X93639518Y-114298834D01*
X93283641Y-113418009D01*
X94488980Y-112931020D01*
G37*
%TD*%
D10*
%TO.C,SW6*%
X153629029Y-121233978D03*
X158323647Y-124026926D03*
%TD*%
%TO.C,SW3*%
X118490000Y-91470000D03*
X113490000Y-89270000D03*
%TD*%
D15*
%TO.C,OL1*%
X113210000Y-137090000D03*
X113210000Y-134550000D03*
X113210000Y-132010000D03*
X113210000Y-129470000D03*
%TD*%
D16*
%TO.C,SW1*%
X78660000Y-137590000D03*
X85160000Y-137590000D03*
%TD*%
D10*
%TO.C,SW5*%
X159180546Y-97443134D03*
X154665190Y-94368796D03*
%TD*%
M02*
