M48
; DRILL file {KiCad (5.1.9-0-10_14)} date Tuesday, June 22, 2021 at 10:50:05 PM
; FORMAT={-:-/ absolute / inch / decimal}
; #@! TF.CreationDate,2021-06-22T22:50:05+09:00
; #@! TF.GenerationSoftware,Kicad,Pcbnew,(5.1.9-0-10_14)
; #@! TF.FileFunction,Plated,1,2,PTH
FMAT,2
INCH
T1C0.0118
T2C0.0320
T3C0.0512
%
G90
G05
T2
X3.2257Y-4.6764
X3.2257Y-5.2756
X3.3257Y-4.6764
X3.3257Y-5.2756
X3.4257Y-4.6764
X3.4257Y-5.2756
X3.5257Y-4.6764
X3.5257Y-5.2756
X3.6257Y-4.6764
X3.6257Y-5.2756
X3.7257Y-4.6764
X3.7257Y-5.2756
X3.8257Y-4.6764
X3.8257Y-5.2756
X3.9257Y-4.6764
X3.9257Y-5.2756
X4.0257Y-4.6764
X4.0257Y-5.2756
X4.1257Y-4.6764
X4.1257Y-5.2756
X4.2257Y-4.6764
X4.2257Y-5.2756
X4.3257Y-4.6764
X4.3257Y-5.2756
X4.4571Y-5.0972
X4.4571Y-5.1972
X4.4571Y-5.2972
X4.4571Y-5.3972
T3
X3.0969Y-5.4169
X3.3528Y-5.4169
T1
G00X3.4977Y-4.3914
M15
G01X3.5233Y-4.3811
M16
G05
G00X4.2358Y-3.9437
M15
G01X4.2634Y-3.9437
M16
G05
G00X4.9858Y-3.9437
M15
G01X5.0134Y-3.9437
M16
G05
G00X5.7655Y-5.1706
M15
G01X5.7929Y-5.174
M16
G05
G00X5.7826Y-4.0949
M15
G01X5.8097Y-4.0999
M16
G05
T0
M30
