%TF.GenerationSoftware,KiCad,Pcbnew,(5.1.9-0-10_14)*%
%TF.CreationDate,2021-06-22T22:50:01+09:00*%
%TF.ProjectId,quali5,7175616c-6935-42e6-9b69-6361645f7063,rev?*%
%TF.SameCoordinates,Original*%
%TF.FileFunction,Legend,Top*%
%TF.FilePolarity,Positive*%
%FSLAX46Y46*%
G04 Gerber Fmt 4.6, Leading zero omitted, Abs format (unit mm)*
G04 Created by KiCad (PCBNEW (5.1.9-0-10_14)) date 2021-06-22 22:50:01*
%MOMM*%
%LPD*%
G01*
G04 APERTURE LIST*
%ADD10C,0.300000*%
%ADD11C,0.150000*%
G04 APERTURE END LIST*
D10*
X139917142Y-115268571D02*
X139917142Y-114268571D01*
X139917142Y-114554285D02*
X139988571Y-114411428D01*
X140060000Y-114340000D01*
X140202857Y-114268571D01*
X140345714Y-114268571D01*
X141417142Y-115197142D02*
X141274285Y-115268571D01*
X140988571Y-115268571D01*
X140845714Y-115197142D01*
X140774285Y-115054285D01*
X140774285Y-114482857D01*
X140845714Y-114340000D01*
X140988571Y-114268571D01*
X141274285Y-114268571D01*
X141417142Y-114340000D01*
X141488571Y-114482857D01*
X141488571Y-114625714D01*
X140774285Y-114768571D01*
X141988571Y-114268571D02*
X142345714Y-115268571D01*
X142702857Y-114268571D01*
X143274285Y-115125714D02*
X143345714Y-115197142D01*
X143274285Y-115268571D01*
X143202857Y-115197142D01*
X143274285Y-115125714D01*
X143274285Y-115268571D01*
X143917142Y-113911428D02*
X143988571Y-113840000D01*
X144131428Y-113768571D01*
X144488571Y-113768571D01*
X144631428Y-113840000D01*
X144702857Y-113911428D01*
X144774285Y-114054285D01*
X144774285Y-114197142D01*
X144702857Y-114411428D01*
X143845714Y-115268571D01*
X144774285Y-115268571D01*
X130160000Y-118068571D02*
X130160000Y-116568571D01*
X130160000Y-117140000D02*
X130302857Y-117068571D01*
X130588571Y-117068571D01*
X130731428Y-117140000D01*
X130802857Y-117211428D01*
X130874285Y-117354285D01*
X130874285Y-117782857D01*
X130802857Y-117925714D01*
X130731428Y-117997142D01*
X130588571Y-118068571D01*
X130302857Y-118068571D01*
X130160000Y-117997142D01*
X131374285Y-117068571D02*
X131731428Y-118068571D01*
X132088571Y-117068571D02*
X131731428Y-118068571D01*
X131588571Y-118425714D01*
X131517142Y-118497142D01*
X131374285Y-118568571D01*
X133588571Y-116568571D02*
X134445714Y-116568571D01*
X134017142Y-118068571D02*
X134017142Y-116568571D01*
X134874285Y-117640000D02*
X135588571Y-117640000D01*
X134731428Y-118068571D02*
X135231428Y-116568571D01*
X135731428Y-118068571D01*
X136231428Y-118068571D02*
X136231428Y-116568571D01*
X136731428Y-117640000D01*
X137231428Y-116568571D01*
X137231428Y-118068571D01*
X137874285Y-117640000D02*
X138588571Y-117640000D01*
X137731428Y-118068571D02*
X138231428Y-116568571D01*
X138731428Y-118068571D01*
X139231428Y-118068571D02*
X139231428Y-116568571D01*
X140088571Y-118068571D01*
X140088571Y-116568571D01*
X141088571Y-116568571D02*
X141374285Y-116568571D01*
X141517142Y-116640000D01*
X141660000Y-116782857D01*
X141731428Y-117068571D01*
X141731428Y-117568571D01*
X141660000Y-117854285D01*
X141517142Y-117997142D01*
X141374285Y-118068571D01*
X141088571Y-118068571D01*
X140945714Y-117997142D01*
X140802857Y-117854285D01*
X140731428Y-117568571D01*
X140731428Y-117068571D01*
X140802857Y-116782857D01*
X140945714Y-116640000D01*
X141088571Y-116568571D01*
X131214523Y-115485238D02*
X131024047Y-115390000D01*
X130833571Y-115199523D01*
X130547857Y-114913809D01*
X130357380Y-114818571D01*
X130166904Y-114818571D01*
X130262142Y-115294761D02*
X130071666Y-115199523D01*
X129881190Y-115009047D01*
X129785952Y-114628095D01*
X129785952Y-113961428D01*
X129881190Y-113580476D01*
X130071666Y-113390000D01*
X130262142Y-113294761D01*
X130643095Y-113294761D01*
X130833571Y-113390000D01*
X131024047Y-113580476D01*
X131119285Y-113961428D01*
X131119285Y-114628095D01*
X131024047Y-115009047D01*
X130833571Y-115199523D01*
X130643095Y-115294761D01*
X130262142Y-115294761D01*
X132833571Y-113961428D02*
X132833571Y-115294761D01*
X131976428Y-113961428D02*
X131976428Y-115009047D01*
X132071666Y-115199523D01*
X132262142Y-115294761D01*
X132547857Y-115294761D01*
X132738333Y-115199523D01*
X132833571Y-115104285D01*
X134643095Y-115294761D02*
X134643095Y-114247142D01*
X134547857Y-114056666D01*
X134357380Y-113961428D01*
X133976428Y-113961428D01*
X133785952Y-114056666D01*
X134643095Y-115199523D02*
X134452619Y-115294761D01*
X133976428Y-115294761D01*
X133785952Y-115199523D01*
X133690714Y-115009047D01*
X133690714Y-114818571D01*
X133785952Y-114628095D01*
X133976428Y-114532857D01*
X134452619Y-114532857D01*
X134643095Y-114437619D01*
X135881190Y-115294761D02*
X135690714Y-115199523D01*
X135595476Y-115009047D01*
X135595476Y-113294761D01*
X136643095Y-115294761D02*
X136643095Y-113961428D01*
X136643095Y-113294761D02*
X136547857Y-113390000D01*
X136643095Y-113485238D01*
X136738333Y-113390000D01*
X136643095Y-113294761D01*
X136643095Y-113485238D01*
X138547857Y-113294761D02*
X137595476Y-113294761D01*
X137500238Y-114247142D01*
X137595476Y-114151904D01*
X137785952Y-114056666D01*
X138262142Y-114056666D01*
X138452619Y-114151904D01*
X138547857Y-114247142D01*
X138643095Y-114437619D01*
X138643095Y-114913809D01*
X138547857Y-115104285D01*
X138452619Y-115199523D01*
X138262142Y-115294761D01*
X137785952Y-115294761D01*
X137595476Y-115199523D01*
X137500238Y-115104285D01*
D11*
%TO.C,D5*%
X152147208Y-135154662D02*
X152025338Y-136147208D01*
X151987018Y-135638748D02*
X151154662Y-135032792D01*
X151154662Y-135032792D02*
X151032792Y-136025338D01*
X151032792Y-136025338D02*
X151987018Y-135638748D01*
X149001527Y-134516543D02*
X154361277Y-135174638D01*
X154361277Y-135174638D02*
X154178473Y-136663457D01*
X154178473Y-136663457D02*
X148818723Y-136005362D01*
X148818723Y-136005362D02*
X149001527Y-134516543D01*
%TO.C,D4*%
X152692745Y-108389490D02*
X152510510Y-109372745D01*
X152503302Y-108862894D02*
X151709490Y-108207255D01*
X151709490Y-108207255D02*
X151527255Y-109190510D01*
X151527255Y-109190510D02*
X152503302Y-108862894D01*
X149591888Y-107560523D02*
X154901465Y-108544595D01*
X154901465Y-108544595D02*
X154628112Y-110019477D01*
X154628112Y-110019477D02*
X149318535Y-109035405D01*
X149318535Y-109035405D02*
X149591888Y-107560523D01*
%TO.C,D3*%
X133040000Y-103560000D02*
X133040000Y-104560000D01*
X132940000Y-104060000D02*
X132040000Y-103560000D01*
X132040000Y-103560000D02*
X132040000Y-104560000D01*
X132040000Y-104560000D02*
X132940000Y-104060000D01*
X129840000Y-103310000D02*
X135240000Y-103310000D01*
X135240000Y-103310000D02*
X135240000Y-104810000D01*
X135240000Y-104810000D02*
X129840000Y-104810000D01*
X129840000Y-104810000D02*
X129840000Y-103310000D01*
%TO.C,D2*%
X113910000Y-103490000D02*
X113910000Y-104490000D01*
X113810000Y-103990000D02*
X112910000Y-103490000D01*
X112910000Y-103490000D02*
X112910000Y-104490000D01*
X112910000Y-104490000D02*
X113810000Y-103990000D01*
X110710000Y-103240000D02*
X116110000Y-103240000D01*
X116110000Y-103240000D02*
X116110000Y-104740000D01*
X116110000Y-104740000D02*
X110710000Y-104740000D01*
X110710000Y-104740000D02*
X110710000Y-103240000D01*
%TO.C,D1*%
X95986289Y-112299105D02*
X96360895Y-113226289D01*
X96080874Y-112800157D02*
X95059105Y-112673711D01*
X95059105Y-112673711D02*
X95433711Y-113600895D01*
X95433711Y-113600895D02*
X96080874Y-112800157D01*
X92925649Y-113266050D02*
X97932441Y-111243174D01*
X97932441Y-111243174D02*
X98494351Y-112633950D01*
X98494351Y-112633950D02*
X93487559Y-114656826D01*
X93487559Y-114656826D02*
X92925649Y-113266050D01*
%TO.C,OL1*%
X114480000Y-138360000D02*
X111940000Y-138360000D01*
X111940000Y-128200000D02*
X114480000Y-128200000D01*
X111940000Y-138360000D02*
X111940000Y-128200000D01*
X114480000Y-138360000D02*
X114480000Y-128200000D01*
X114862380Y-135042380D02*
X114862380Y-134851904D01*
X114910000Y-134756666D01*
X115005238Y-134661428D01*
X115195714Y-134613809D01*
X115529047Y-134613809D01*
X115719523Y-134661428D01*
X115814761Y-134756666D01*
X115862380Y-134851904D01*
X115862380Y-135042380D01*
X115814761Y-135137619D01*
X115719523Y-135232857D01*
X115529047Y-135280476D01*
X115195714Y-135280476D01*
X115005238Y-135232857D01*
X114910000Y-135137619D01*
X114862380Y-135042380D01*
X115862380Y-133709047D02*
X115862380Y-134185238D01*
X114862380Y-134185238D01*
X115338571Y-133375714D02*
X115338571Y-133042380D01*
X115862380Y-132899523D02*
X115862380Y-133375714D01*
X114862380Y-133375714D01*
X114862380Y-132899523D01*
X115862380Y-132470952D02*
X114862380Y-132470952D01*
X114862380Y-132232857D01*
X114910000Y-132090000D01*
X115005238Y-131994761D01*
X115100476Y-131947142D01*
X115290952Y-131899523D01*
X115433809Y-131899523D01*
X115624285Y-131947142D01*
X115719523Y-131994761D01*
X115814761Y-132090000D01*
X115862380Y-132232857D01*
X115862380Y-132470952D01*
%TD*%
M02*
